<svg xmlns="http://www.w3.org/2000/svg" viewBox="0 0 512 512">
  <path d="M238.97 58.18c-5.17-.02-71.7 3.1-73.85 3.45-1 .17-2.43 1.06-3.16 1.98l-1.32 1.7 2.36 9.2c5.3 20.6 11.62 54 17.7 92.7 1.3 8.5 2.6 15.6 2.83 15.9.27.3 5.04.9 10.58 1.4 8.5.8 13.2 1.1 15.8 1h.9c1.4-.1 1.9-.4 2.1-.8 1.1-2.9 30.3-124.8 30.1-125.4-.2-.5-1.5-.8-3.8-.8zm155.14 4.14c-16.6.05-31.9 5.1-45.5 15-3.1 2.33-17 15.8-38.6 37.35-29.7 29.77-34.1 34.43-37.7 39.85-2.2 3.37-5 8.2-6.1 10.73-2.1 4.58-2.1 4.6-6.1 6.33-2.2.95-7 3.67-10.6 6.05-5.4 3.6-9.3 7.08-23.5 21.1-11.1 11.02-16.9 17.22-16.9 18.04 0 .68.6 1.9 1.4 2.7 1.1 1.15 1.2 1.36.3 1.02-1.2-.5-4.1 1.8-4.1 3.3 0 1 29.3 30.6 30.4 30.6.4 0 1.4-.8 2.3-1.8 1.4-1.4 1.6-2 1.1-3-.3-.7-6.2-6.5-13-13.1-9.4-9.1-12.1-12-11.2-12.2.7-.2 8.9-7.9 18.3-17.2 17.8-17.6 21.9-20.9 30.5-24.9 9-4.1 17.1-5.8 27.8-5.9 14.3 0 27.1 4.3 38.8 12.9 3.7 2.7 8.4 7.3 13.5 13.3 1.9 2.2 2.5 2.5 4.8 2.5 4.5 0 7.3-4.3 5.4-8.2-2.8-5.9-14.5-16.8-23.9-22.3l-4.7-2.8 26.5-26.6c29.1-29.2 29.9-29.8 37.8-31.1 1.5-.3 3-.4 4.4-.3h.2c12.8.3 23.6 11 24.2 23.7v2.1c0 .9-.1 1.8-.2 2.7-1.3 8.6-1.7 9-32.9 40.4-15.7 15.7-30.6 30.4-33 32.5-6.1 5.2-9.7 6.6-17.2 6.6-7.4 0-11.1-1.4-16.8-6.2-10-8.5-16.7-11.3-27-11.4-7.1-.1-11.2.9-17.8 4.3-3.7 1.9-6.6 4.5-20.7 18.4-9 8.9-16.4 16.6-16.4 17.1 0 1.3 6.2 7.3 7.6 7.3.8 0 7.1-5.9 17.1-15.8 17.2-17 18.5-18 25.8-19.2 8-1.4 15.2 1 22.6 7.5 5.4 4.6 8.1 6.3 14.2 8.3 4.1 1.3 5.9 1.6 11.3 1.6 5.6 0 7.1-.3 11.7-1.8 2.9-1 6.7-2.8 8.6-4.1 1.8-1.2 18.1-17 36.1-35.1 32.8-32.9 32.8-32.9 35.3-38.1 2.9-6.1 3.8-9.9 3.8-16.2 0-20.7-16.4-37-37.1-37-5.8 0-10.6 1.2-16.6 4.1-4.3 2.1-6.1 3.7-34.3 31.8-23.8 23.7-30 29.6-30.8 29.2-4.1-1.6-11-2.4-21.4-2.4H280l.9-1.6c.44-.9 2.45-3.7 4.44-6.1 5.33-6.7 66.9-67.7 71.6-71 21.6-15.2 50-15.9 72.6-1.9 5.94 3.7 15.6 13.2 19.4 19.1 14.5 22.6 14.13 50.4-1 73.1-3.3 4.9-66.4 68.3-72.9 73.3-6 4.5-14.3 8.6-21.8 10.6-7.2 1.9-19.3 2.6-26.9 1.5-14.46-2.1-28.78-9.8-38.16-20.4-6.9-7.9-6.8-7.8-9.58-7.8-4.4 0-7.2 4.3-5.34 8.1 2.8 5.8 13.6 15.9 23.4 21.9 2.9 1.7 5.2 3.4 5.2 3.6 0 .2-4.4 4.7-9.77 10-5.8 5.7-9.8 10.1-9.8 10.7 0 1.2 6.3 7.4 7.5 7.4.3 0 6-5.4 12.6-11.9l11.1-11c.6-.3 1.2-.5 1.8-.6l4.5 1c4.4 1 7.8 1.2 16.9 1.3l11.4.1-.9 1.6c-1.9 3.6-8.9 11.3-22.2 24.7-7.8 7.7-14.2 14.4-14.2 14.9s1.4 2.3 3.2 4.1c1.8 1.9 3.7 3.2 4.5 3.2.9 0 6.3-5.1 17.2-16 16.9-17.1 22.3-23.9 26.2-33.2 1.7-4.1 1.7-4.1 6.3-6.2 2.5-1.2 7.3-4 10.7-6.2 5.5-3.6 10-7.9 40.1-38.1 18.7-18.7 35.4-35.9 37.2-38.3 4.1-5.68 9.4-15.9 11.3-22.1 8.9-28.4 1.9-57.5-18.8-78.2-15-14.6-33.2-22-54.7-22zm-160 2.72h.8c.2.2-25.7 108.36-27 112.54-.3 1.23-1.1 1.24-11.8.22-6.7-.65-7-.75-7.4-2.2-.2-.85-1.6-8.83-2.9-17.74-4.7-30.1-11.6-66.23-16.1-83.75-.8-3.1-1.4-5.8-1.3-5.9.3-.2 58.5-3 66-3.1zm-114.7 18.6c-.3 0-.8.16-1.1.4-2.6 1.83-53 56.76-53 57.74 0 .8 13.5 8.94 50.6 30.6 24.7 14.4 45.8 26.44 50.7 29 .2.05.9.46.9.46h.2c.1 0 .2.05.2.05.9 0 3.2-2.1 6.6-5.9 5.2-5.7 5.3-5.9 5.2-8.7-.1-3.2.4-2.3-23.2-42.7-25-42.9-35.5-60.6-36.1-61-.1-.1-.3-.2-.5-.1zm-1.1 9.57c.4-.1 21 34.7 44 74.7l11.1 19.3.1.3-3 3.6c-1.7 2-3.4 3.7-3.8 3.6-1.4-.1-92.1-53.4-91.9-54.1.2-.7 43-46.9 43.8-47.1zm-68.6 89.9l-1.7 1.4c-.9.8-1.8 2.2-2 3.2-.6 3.6-3.6 75.9-3.2 76.9.2.6.7 1.1 1 1.1.8 0 123.8-29.8 125.1-30.3.7-.2 1-1.1 1-2.9 0-4.7-1.9-25.8-2.4-26.3-.2-.3-7.4-1.6-15.8-2.9-38.7-6-72.1-12.4-92.7-17.7l-9.1-2.3zm2.9 7.5c.1 0 4.6 1 9.9 2.3 18.4 4.6 54.1 11.3 84.9 16.1 7.4 1.2 13.6 2.3 13.8 2.6.6.6 2.1 17.9 1.7 18.4-.1.2-25.1 6.4-55.5 13.7l-56.6 13.8c-1.1.3-1.3.1-1.3-1.3 0-2.6 3.1-65.2 3.3-65.3zm149.3 34c-.9 0-6.6 5.4-18.3 17.3-18.2 18.4-22.2 23.4-26.9 33.4-2.2 4.9-2.3 4.9-6.2 6.6-2.1 1-6.8 3.6-10.4 6-6 3.9-9.4 7.2-40.2 38-22.4 22.5-34.9 35.4-37.5 38.9-13.7 18.8-18.4 42.7-12.5 65 8.2 31.2 34.9 54.1 67 57.3 10.2 1 23.5-.6 33.2-4 6.1-2.1 15.3-7 20.4-10.7 2.4-1.7 19.6-18.4 38.3-37.1 31.1-31.1 34.3-34.5 38.3-40.5 2.4-3.6 5.1-8.3 6-10.4 1.6-3.9 1.7-3.9 6.7-6.3 10.6-5 14.9-8.5 34.2-27.7 12.7-12.6 18.1-18.4 18.1-19.3 0-1.4-6-7.6-7.4-7.6-.4 0-8.8 7.9-18.5 17.6-22.2 22.1-27.4 25.8-42.5 30-5.3 1.5-6.8 1.7-16.5 1.7-9.3 0-11.4-.2-15.9-1.4-14.6-4-24.9-10.7-35.2-22.9-5.6-6.6-9.9-14.1-8.7-15.5 2.7-3.3 11.6-6.1 17.7-5.5 6.5.6 10.3 2.4 16 7.6 8 7.4 15.9 10.6 25.7 10.6 6.4 0 10.3-.9 16.4-3.8 5-2.4 5.8-3 22.8-19.9 9.6-9.7 17.5-18 17.5-18.5 0-1.4-6.2-7.3-7.6-7.3-.8 0-7 5.8-17.8 16.5-12.2 12.2-17.3 16.9-19.6 18.1-9.4 4.7-19.6 3.3-28-3.8-10-8.5-16.7-11.3-26.9-11.4-7 0-11.2 1-17.7 4.3-3.9 2-7.4 5.3-38 35.9-32.3 32.2-33.9 33.9-36 38.3-2.9 6.1-4 10.8-4 16.8 0 10.4 3.5 18.6 10.9 26.1 7.5 7.5 15.7 10.9 26.1 10.9 6 0 10.7-1.1 16.8-4.1 4.4-2.1 6.1-3.7 34-31.5l29.5-29.4 4.4 1c7.5 1.7 17 2.4 23.6 1.7 3.4-.3 6.2-.5 6.3-.4.1.1-.9 2-2.3 4.1-3.4 5.3-69.6 71.5-75 75.1-5.9 4-14.5 7.9-21.2 9.6-5.1 1.4-7.5 1.6-15 1.7-12.5.1-22.1-2.1-31.8-7.4-35-18.9-45-64.6-21.1-96.3 5.8-7.6 68.4-69.7 74.1-73.5 11.3-7.4 22.7-10.8 36.7-10.8 14.3 0 27.1 4.2 38.8 12.8 3.7 2.8 8.4 7.3 13.5 13.3 1.9 2.3 2.5 2.6 4.8 2.6 4.5 0 7.3-4.2 5.4-8.1-2.8-5.9-14.6-16.8-23.9-22.3l-4.8-2.8 10.6-10.9c6.8-6.8 10.7-11.2 10.7-12 0-1.1-6.6-7.6-7.75-7.6-.3 0-6.3 5.8-13.4 12.8l-12 11.9c-.63.4-1.24.6-1.9.7l-4.5-1c-4.4-1-7.8-1.2-16.9-1.3-7.5 0-11.3-.3-11.1-.7 2.5-4.4 8.65-11.3 22.3-25.1 9.04-9.1 16.4-16.9 16.4-17.4 0-1.4-6.2-7.3-7.7-7.3zM474.1 283c-.66-.25-122.53 28.96-125.4 30.06-.7.26-1 1.13-1 2.88 0 4.76 1.93 25.8 2.4 26.3.28.3 7.4 1.6 15.84 2.9 39.16 6.1 73 12.57 92.4 17.7l9.2 2.38c.2.03 1.14-.66 2.14-1.54l1.8-1.57 1.7-34c1.94-39.7 2.04-44.6.94-45zm-6.1 7.95c.24.23-1.8 45.65-2.7 60.7-.2 3.45-.56 6.25-.77 6.2-.25-.02-2.9-.7-5.9-1.5-16.06-4.28-53.3-11.46-83.78-16.18-9.08-1.4-17.08-2.74-17.77-3-1.14-.45-1.33-1.35-2.02-9.5-.42-4.95-.63-9.14-.46-9.3.4-.5 113.02-27.7 113.3-27.4zm-185.5.94c-.9 0-3.3 2.6-3.3 3.6 0 .5 6.7 7.6 14.85 15.8 8.2 8.1 15.18 14.8 15.5 14.8 1.17 0 3.98-3.4 3.6-4.4-.4-1.1-29.92-29.8-30.6-29.8zm-125.45 50.7c.12.1 1.28 2 2.57 4.2 6.97 11.8 17.72 22.3 29.2 28.6 1.6.9 2.9 1.9 2.9 2.3 0 1.2-51.5 52-54.44 53.7-1.6.8-3.9 1.9-5.2 2.4-3.5 1.2-8.6 1.6-12.4.9-13.1-2.2-22.5-15.3-20.3-28.4 1.3-7.9 1.9-8.7 30.8-37.6 14.6-14.6 26.7-26.5 26.8-26.3zm192.83 3.7c-1.3 0-2.5 1-6.7 5.7-5.2 5.7-5.3 5.9-5.17 8.7.2 3.2-.3 2.2 23.2 42.7 25 42.8 35.5 60.5 36.2 60.9.4.2 1.2.1 1.7-.3 2.6-1.8 53.1-56.8 53.1-57.8 0-.9-13.3-8.9-50.2-30.5-27.6-16.2-50.9-29.5-51.8-29.6h-.2zm1 7.3h.1c1.9.5 92 53.5 91.9 54-.1.3-9.9 11.1-21.8 23.8-11.9 12.7-21.8 23.2-22 23.3-.4.1-20.98-34.7-44-74.6L344 361l-.03-.22v-.08l3.1-3.56c1.64-1.9 3.3-3.4 3.82-3.5zm-43.4 9c-1.8 0-2.7.3-2.9 1-1.1 2.8-30.3 124.7-30.1 125.4.2.5 1.52.8 3.82.8 5.17 0 71.7-3.1 73.85-3.5 1-.2 2.43-1.1 3.16-2l1.3-1.7-2.3-9.2c-5.3-20.6-11.7-54-17.7-92.7-1.3-8.4-2.6-15.5-2.9-15.8-.5-.5-21.6-2.4-26.3-2.4zm3.3 6.8c3.62 0 17 1.2 17.5 1.7.3.2 1.5 6.5 2.6 13.8 4.8 30.9 11.53 66.6 16.1 84.9 1.3 5.4 2.3 9.8 2.3 9.9-.1.1-14.48.8-31.9 1.7-38.9 1.9-35.3 1.9-34.9.2 7.8-32.6 27.18-111.9 27.4-112.1.06-.1.38-.1.9-.1z"/>
</svg>
