<svg xmlns="http://www.w3.org/2000/svg" viewBox="0 0 511.999 511.999">
  <path d="M390.87 67.6c-15.9 0-31.94 4.9-45.75 15.1-5.05 3.7-58.75 56.6-68.38 67.35-6.27 7-9.26 11.3-13.02 18.8l-2.86 5.7-5.7 2.85c-7.47 3.76-11.8 6.75-18.8 13.02-9.56 8.58-64.05 63.78-67.46 68.35-1.75 2.35-4.74 7.3-6.63 11l-3.44 6.75-4.6 2.2c-6.67 3.14-12.94 7.43-19.55 13.38-10.9 9.8-63.68 63.38-67.38 68.4-19.3 26.2-20.22 61.2-2.3 88.1 12.8 19.25 33.8 31.85 56.6 33.94 18.7 1.7 37.64-3.56 52.92-14.74 3.16-2.32 16.94-15.64 38.48-37.2 30.63-30.64 33.93-34.15 37.83-40.1 2.35-3.58 5.02-8.27 5.93-10.4 1.64-3.87 1.7-3.9 6.6-6.28 11.9-5.7 13.46-7.06 50.44-44.03 31.58-31.6 34.83-35.1 38.74-41 2.35-3.6 5.04-8.4 5.98-10.6l1.7-4 5.03-2.4c11.85-5.7 13.9-7.5 49.97-43.5 21.58-21.6 34.87-35.3 37.2-38.5 9.78-13.4 14.88-28.8 14.94-45 .04-9.4-.85-15.7-3.27-23.3-3.1-9.7-6.4-16.2-12.1-23.7-15.1-19.9-38-30.4-61.2-30.4zm.48 11.88c11.44.08 22.9 3.24 33.46 9.5 6.8 3.98 17.3 14.5 21.3 21.27 3.6 6.04 6 11.76 7.8 18.87 1.2 4.6 1.4 6.87 1.4 15.16 0 8.48-.2 10.5-1.6 15.56-2.1 7.8-4.6 13.62-8.7 19.96-2.8 4.42-8.7 10.65-36.1 38.05-17.9 18.03-34.6 34.25-36.9 36.05-11.4 8.8-24.5 13.1-39.5 13.1-18.7-.1-36.2-7.8-47.9-21.3-6.3-7.3-6.3-7.4-9.1-7.4-1.8 0-2.9.4-3.9 1.42-3.3 3.3-2.5 6.2 3.6 13.15 4.9 5.6 10.3 10.13 17.7 14.8 3.1 1.94 5.7 3.72 5.7 3.95.1.26-11.9 12.38-26.8 26.97-28.8 28.4-29.2 28.7-36.7 30-7.9 1.3-15-1.1-22.5-7.5-5.3-4.7-8-6.3-14.1-8.3-9-3-19.3-2.1-28.4 2.6-3.9 2-7.3 5.1-37.6 35.4-21.6 21.6-33.9 34.2-35 36.2-3.1 5.5-4.6 10.6-4.9 17.1-.5 11.2 2.8 19.8 10.7 27.7 7.5 7.4 15.7 10.8 26 10.9 6 0 10.7-1.2 16.7-4.1 4.4-2.1 6.1-3.7 33.9-31.4l29.3-29.2 6.9 1.4c7.2 1.4 19.3 1.9 24.8.9l2.7-.5-.9 1.8c-2.3 4.4-10.1 12.7-40.3 42.8-26.9 26.7-33.1 32.6-37.5 35.5-6.4 4.1-12.3 6.7-20 8.7-4.2 1.1-7.9 1.5-13.7 1.7-9.4.3-15.2-.6-23.6-3.6-10.6-3.8-18-8.7-25.8-17.1-17.9-19.1-22.1-46.2-11.2-71.2 3.8-8.7 6.8-12.1 40.7-46.2 18-18 34.6-34.3 36.9-36.1 11.4-8.8 24.5-13.1 39.3-13.1 11.4 0 20.5 2.2 30.5 7.3 7.9 4.1 13.8 9.1 22 18.7 2 2.3 2.5 2.6 4.8 2.6 4.5 0 7.3-4.3 5.4-8.2-2.8-5.8-14.4-16.6-23.8-22.1l-4.7-2.7 20.5-21c31.5-32.2 33.4-33.8 40.6-35.7 9.5-2.5 17-.2 26.1 7.9 3.9 3.5 7.3 5.4 13 7.3 6.8 2.37 15.5 2.37 22.4 0 8.6-2.9 10.6-4.6 45.2-39.4 30.7-30.9 32.4-32.7 34.5-37.03 2.9-6 4.1-10.75 4.1-16.7 0-10.35-3.44-18.6-10.85-26-7.4-7.4-15.7-10.84-26-10.9-6 0-10.7 1.17-16.7 4.1-4.4 2.1-6.1 3.7-34.2 31.7L312 171c-1.2 1-1.9 1.37-2.4 1.48l-2.64-.7c-6.33-1.64-15-2.4-22.85-1.97l-7.3.4-.1-.1.9-1.6c2.3-4.4 10.2-12.8 40.3-42.7 20.2-20.1 33.7-33 36.1-34.6 11.6-7.7 24.6-11.6 37.5-11.5zm-.56 39.83h.9c1.2.1 2.5.3 3.9.6 10.3 2.1 17.4 9.2 19.5 19.5.2 1.4.4 2.7.5 3.9v2.5c-.2 3.1-1.1 6.2-2.8 9.8-1.7 3.7-4.5 6.6-31.9 34.1-16.5 16.5-31.4 31.2-33.1 32.5-8.1 6.2-19.4 7.1-27.9 2.1-1.4-.8-4.2-3-6.4-4.8-5-4.3-7.8-6-13.8-8-9-3-19.4-2.1-28.5 2.6-3.9 2-7.2 5.1-33.6 31.4-13.1 13-24.3 24-28.2 27.7-1 .7-1.8 1.1-2.5 1.3-.4-.1-.8-.2-1.1-.4-3.7-1.5-15.2-2.6-23.2-2.2-6.4.3-8 .2-7.7-.4 3.3-5.7 9.1-11.8 37.6-40.5 17.8-17.8 34.3-33.9 36.6-35.7 11.4-8.7 24.5-13.1 39.3-13.1 11.4 0 20.5 2.2 30.4 7.4 7.8 4.1 13.7 9.1 22 18.7 1.9 2.3 2.5 2.6 4.7 2.6 4.4 0 7.2-4.3 5.4-8.2-2.9-5.8-14.5-16.6-23.8-22.1-2.6-1.5-4.7-2.9-4.7-3.2 0-.2 11.8-12.2 26.3-26.6 23.3-23.2 26.8-26.4 30.3-28.2 3.5-1.7 6.6-2.6 9.8-2.8h1.4zm-78.6 157.1h.1c4.1 1.7 10.9 2.4 21.3 2.5h11l-.9 1.7c-2.2 4.2-10.4 12.9-40 42.3-33.5 33.3-36.3 35.7-46 40.2-2.4 1.2-7 2.8-10.1 3.7-7.9 2.2-22.6 2.7-30.3.9-9.8-2.1-18.1-6-25.9-11.9-7.3-5.5-15.1-14.5-18.7-21.5l-2.3-4.4c0-.1 0-.3.1-.4l1.8-1.5c3.6-3 8-4.3 14.5-4.3 7.9 0 11.2 1.3 17.7 7.3 8 7.4 15.8 10.6 25.8 10.6 5.9 0 10.7-1.1 16.7-4 4.3-2.1 6-3.7 34.2-31.7 23-22.9 29.4-29.1 30.6-29.1zm-151.1 62.5c.3 0 2.1 2.5 4 5.5 6.4 10.6 15.9 20 26.4 26.2 2.5 1.5 4.6 3 4.6 3.4 0 .4-11.8 12.4-26.1 26.7-23.7 23.6-26.5 26.2-30.1 27.9-2.2 1.1-5.6 2.2-7.6 2.5-1.3.2-2.2.4-2.9.4-.9.1-1.6.1-2.4 0-.9-.1-1.9-.3-3.5-.6-11.3-2.4-19.3-12.1-19.8-23v-2.1c0-.9.1-1.8.2-2.8 1.4-8.5 2-9.2 30.4-37.8 14.2-14.3 26.2-26 26.5-26z"/>
</svg>
