<svg xmlns="http://www.w3.org/2000/svg" viewBox="0 0 512 512">
  <path d="M388.2 24.96c-4.16.03-8.06.3-10.88.83-8.33 1.5-15.57 4.1-23.7 8.5-9.64 5.2-11.76 6.8-18.32 13.4-11.9 12-14.64 17.8-25.84 54.1-4.74 15.4-10.92 35.4-13.73 44.5-6.1 19.7-7.07 24.6-6.9 35.1l.12 7.8-2.76 3.7c-4.2 5.7-7.4 11.2-9.5 16.2-2.3 5.5-14.8 46-14.8 47.8v.1l-.1.1.1.2c1 3.4 10 20.1 11.1 20.3.5.1 3.3-1.1 6.2-2.6 2.8-1.5 5.5-2.8 5.9-2.8.4 0 1.7 2 3 4.5s2.7 4.7 3.1 4.8c.7.3 4.3-1.4 15.3-7.3 4.7-2.6 5-2.8 5.8-5.6 6.4-21.4 11.8-38.3 13.3-41 2.5-4.7 6.1-8.3 10.8-10.5 5.1-2.5 12.6-3 18.5-1.2 4.7 1.4 15.2 1.5 19.6.2 4.5-1.3 13-6 16-8.8 5-4.8 8.8-10.8 10.9-17.5.3-1.16 6.2-20 12.9-41.97l12.3-39.8.1-6.1c.1-10.6-3.4-19.28-10.8-26.7-4.8-4.8-10.1-8.07-16-9.86-5.1-1.6-16.3-1.5-21 .16-10 3.5-18.6 10.7-22.6 19.1-1.2 2.5-5.98 16.77-10.57 31.67l-11.4 37.3-3.1 10.2-3.65 1c-8.13 2.3-17 6.2-22.4 9.9-2 1.44-3.8 2.3-3.9 2-.7-1.97 2-12.9 8.1-32.6l13.8-44.6c8.4-27.2 10.8-32.34 19.66-41.8 9.7-10.4 20.84-16.5 35.3-19.45 8.6-1.7 26.42-.4 33 2.5 12.4 5.5 17.2 8.6 24.04 15.5 10.17 10.2 15.5 20.55 18 34.55 1.78 10.18 1 20.48-2.32 31-.85 2.66-7 22.5-13.66 44.1-6.85 22.14-13 41-14.1 43.23-5.15 10.2-15.6 21.55-24.1 26.1-1.32.7-2.83 1.54-3.33 1.83-13.6 7.83-32.7 9.6-49 4.6-2.7-.84-6.2-2.06-7.74-2.7-4.7-1.98-8.3-1.28-9.97 1.93-2.1 3.96-.7 7.05 4.2 9.4 7.6 3.7 21.3 7 28.9 7 2 0 3.9.25 4.4.55.7.47.1 2.9-3.2 13.8-1.9 6.17-3.4 11.67-3.8 13.54l-.1.4.1.1v.2c.3 1.85 9.9 19.52 10.7 19.85.45.2 3.44-1.05 6.6-2.7 2.9-1.58 5.35-2.8 5.8-3h.2c.3.23 1.4 2.3 2.8 4.8 1.7 3.15 3 4.84 3.7 4.84.6 0 5.3-2.28 10.5-5 8.9-4.78 9.5-5.2 10.4-7.5 2.7-7.2 13.1-42.6 13.7-46.5.4-2.5.64-8 .6-12.2l-.1-7.7 4.1-5.6c6.86-9.53 8.2-13.1 22.5-59.53 7.3-23.6 13.8-44.98 14.5-47.5 1.9-6.9 1.9-24.95.03-32.28-2.3-8.87-3.6-12.24-7.78-20.1-10.7-20.06-28-33.55-50.2-39-4.77-1.17-12.4-1.77-19.4-1.7zm1.44 52.4c2.46-.03 4.9.3 7.24 1 11.2 3.4 17.52 12.03 17.46 23.84-.02 4.17-1 7.7-11.1 40.48-14.83 48-14.5 46.97-16.28 50.02-2.06 3.5-6.43 7.84-9.5 9.4-6.28 3.2-11.44 3.7-19 1.75-5.74-1.46-14.94-1.62-19.85-.34-4.2 1.2-12.1 5.4-15.9 8.6-3.5 3-8.3 10-10 14.5-.6 1.8-3.6 11.1-6.5 20.8-4.9 16.1-5.5 17.7-7 18.4-.9.5-1.9.9-2.2.9-.3 0-1.7-2-3.1-4.5-1.4-2.5-2.8-4.7-3.1-4.9-.3-.2-3.3 1-6.6 2.7-6.4 3.3-6.3 3.3-8.1-.3-.9-1.9-.8-2.3 5.5-22.8 4-13 7.3-22.8 8.9-25.8 9.4-18.7 26.1-31 47.3-34.7 10.8-1.9 20.1-.9 33.4 3.7 4.9 1.7 8.7 2.6 9.4 2.4.7-.2 2-1.1 3-1.9 1.5-1.2 1.9-2 1.9-4.1 0-4.3-2.8-6.3-13.92-9.8-8.4-2.6-11.6-3.2-19-3.7-3.3-.2-6.03-.6-6.03-.9 0-.4 17.6-58 20.5-67 1.28-3.9 5.1-9.5 8.47-12.3 4-3.2 9.38-5 14.78-5.1zm-183.6 142.92c-.63 0-8.44 7.43-18.1 17.2-18.06 18.28-22.05 23.24-26.72 33.2-2.27 4.85-2.3 4.9-6.18 6.54-2.14.9-6.83 3.58-10.4 5.92-5.96 3.9-9.44 7.18-40.1 37.8-22.35 22.36-34.8 35.27-37.33 38.7-13.6 18.67-18.2 42.5-12.5 64.7 8.2 31.06 34.8 53.8 66.7 57.03 10.2 1.02 23.4-.6 33-4 6.1-2.16 15.2-6.98 20.3-10.7 2.4-1.72 19.5-18.35 38.1-36.96 31-30.9 34.2-34.3 38.1-40.3 2.4-3.6 5-8.2 6-10.4 1.7-3.8 1.7-3.9 6.6-6.2 10.5-5 14.8-8.5 33.8-27.2 9.8-9.7 17.8-18.1 17.8-18.7 0-1.6-1.2-1.7-11-1.7H295V320c0-6.9-.15-7.07-8.26-7.07h-6.36v-9.7c0-10.36-.2-11.6-1.74-11.6-.56 0-8.27 7.24-17.14 16.1-11.9 11.87-16.95 16.5-19.24 17.63-9.4 4.67-19.55 3.3-27.9-3.76-9.94-8.4-16.62-11.22-26.83-11.3-7-.03-11.12.97-17.65 4.3-3.86 1.97-7.4 5.3-37.8 35.7-32.1 32.08-33.66 33.74-35.76 38.1-2.9 6-4 10.76-4 16.7 0 10.3 3.44 18.55 10.86 25.97 7.4 7.4 15.67 10.87 26 10.88 5.97 0 10.7-1.1 16.73-4 4.3-2.1 6.1-3.7 33.9-31.43l29.3-29.2 4.3.97c7.5 1.7 16.9 2.3 23.6 1.7 3.3-.4 6.1-.5 6.2-.4.1.1-.9 1.9-2.3 4.1-3.4 5.2-69.3 71.1-74.7 74.7-5.9 3.9-14.4 7.8-21.1 9.5-5.1 1.3-7.4 1.6-14.9 1.6-12.4.1-22-2.1-31.6-7.3-34.8-18.9-44.8-64.3-20.9-95.8 5.7-7.6 68.1-69.5 73.8-73.2 11.3-7.4 22.6-10.7 36.5-10.8 14.3 0 27 4.2 38.6 12.8 3.8 2.7 8.4 7.3 13.5 13.2 1.9 2.2 2.5 2.5 4.8 2.5 4.4 0 7.2-4.3 5.4-8.1-2.8-5.8-14.5-16.7-23.76-22.2l-4.75-2.8 10.7-10.7c5.9-5.9 10.7-11.2 10.7-11.7 0-1.6-1.25-1.8-11-1.8H223v-5.2c0-6.9-.14-7-8.25-7H208l-.06-3.2c-.03-1.75 0-6 .05-9.4.1-7.04-.3-8.7-1.8-8.7zm205.4 22.8c.25.03.26.34.26.96 0 3.94-1.9 11.5-7.18 28.6-5.7 18.42-5.98 19.16-7.97 20.5-1.14.77-2.28 1.4-2.55 1.4-.26 0-1.65-2.2-3.1-4.87-1.45-2.68-3-4.87-3.5-4.87-.46 0-3.42 1.3-6.56 2.9-5.62 2.83-5.74 2.86-6.63 1.67-1.9-2.56-1.6-3.94 2.9-18.73l4.5-14.6 5.5-1.7c9.5-2.93 15.1-5.36 18.9-8.17 1-.75 2.7-1.82 3.8-2.38 1-.5 1.5-.8 1.7-.8zm-215.8 3.7v2.54c0 3.97.86 4.44 8.25 4.44h6.3v5.13c0 5.8.6 7 3.8 7h1.9l-3 3.1c-1.7 1.7-3.5 3.3-4 3.5-.5.2-3.3-.1-6.1-.8-4.1-.9-7.7-1.2-16.6-1.3H175l1.02-1.7c1.93-3.3 8.55-11.1 14.05-16.6l5.52-5.5zm72.42 71.3v2.48c0 3.94.9 4.4 8.26 4.4h6.35v5.14c0 5.82.67 7.04 3.84 7.04 1.9 0 1.8.18-4.7 6.75-11.8 11.9-21.7 18.2-33.8 21.5-4.8 1.3-7.3 1.6-15.2 1.8-10.3.2-14.7-.3-22.8-3.1-8.1-2.8-16.2-7.6-23-13.7-7.5-6.8-17.2-21.1-15.6-23 2.7-3.3 11.6-6.1 17.6-5.6 6.5.6 10.3 2.4 15.9 7.5 8 7.3 15.8 10.5 25.6 10.5 6.4 0 10.2-.9 16.3-3.8 4.6-2.2 6.2-3.5 13.3-10.4l8.1-7.9zm-106.33 19.7c.12.15 1.27 2.06 2.56 4.23 6.9 11.8 17.6 22.3 29 28.5 1.6.9 2.9 1.9 2.9 2.3 0 1.2-51.3 51.8-54.2 53.5-1.5.9-3.9 2-5.2 2.4-3.4 1.2-8.6 1.6-12.4 1-13.1-2.2-22.3-15.2-20.2-28.2 1.3-7.8 1.9-8.6 30.7-37.4 14.5-14.5 26.5-26.3 26.7-26.1z"/>
</svg>
