<?xml version="1.0" encoding="UTF-8" standalone="no"?>
<svg
   xmlns:dc="http://purl.org/dc/elements/1.1/"
   xmlns:cc="http://creativecommons.org/ns#"
   xmlns:rdf="http://www.w3.org/1999/02/22-rdf-syntax-ns#"
   xmlns:svg="http://www.w3.org/2000/svg"
   xmlns="http://www.w3.org/2000/svg"
   xmlns:sodipodi="http://sodipodi.sourceforge.net/DTD/sodipodi-0.dtd"
   xmlns:inkscape="http://www.inkscape.org/namespaces/inkscape"
   width="18px"
   height="30px"
   viewBox="0 0 18 30"
   version="1.1"
   id="svg2"
   inkscape:version="0.91 r13725"
   sodipodi:docname="icon-ok.svg">
  <metadata
     id="metadata16">
    <rdf:RDF>
      <cc:Work
         rdf:about="">
        <dc:format>image/svg+xml</dc:format>
        <dc:type
           rdf:resource="http://purl.org/dc/dcmitype/StillImage" />
      </cc:Work>
    </rdf:RDF>
  </metadata>
  <sodipodi:namedview
     pagecolor="#ffffff"
     bordercolor="#666666"
     borderopacity="1"
     objecttolerance="10"
     gridtolerance="10"
     guidetolerance="10"
     inkscape:pageopacity="0"
     inkscape:pageshadow="2"
     inkscape:window-width="640"
     inkscape:window-height="480"
     id="namedview14"
     showgrid="false"
     inkscape:zoom="7.8666667"
     inkscape:cx="2.5805085"
     inkscape:cy="20.084746"
     inkscape:window-x="0"
     inkscape:window-y="0"
     inkscape:window-maximized="0"
     inkscape:current-layer="svg2" />
  <defs
     id="defs4" />
  <g
     stroke="none"
     stroke-width="1"
     fill="none"
     fill-rule="evenodd"
     id="g6"
     style="fill:#000000">
    <g
       fill="#FFFFFF"
       id="g8"
       style="fill:#000000">
      <path
         d="M16,15 C15,15 13,17 9,17 C5,17 3,15 2,15 C0.896,15 0,15.896 0,17 C0,18 0.568,18.481 1,18.734 C2.185,19.427 6,21 6,21 L1.75,26.438 C1.75,26.438 1,27.373 1,28 C1,29.104 1.896,30 3,30 C4.021,30 4.484,29.344 4.484,29.344 C4.484,29.344 8.993,23.993 9,24 C9.007,23.993 13.516,29.344 13.516,29.344 C13.516,29.344 13.979,30 15,30 C16.104,30 17,29.104 17,28 C17,27.373 16.25,26.438 16.25,26.438 L12,21 C12,21 15.815,19.427 17,18.734 C17.432,18.481 18,18 18,17 C18,15.896 17.104,15 16,15 L16,15 Z"
         id="path10"
         style="fill:#000000" />
      <path
         d="M9,0 C5.134,0 2,3.134 2,7 C2,10.866 5.134,14 9,14 C12.865,14 16,10.866 16,7 C16,3.134 12.865,0 9,0 L9,0 Z M9,10.5 C7.067,10.5 5.5,8.934 5.5,7 C5.5,5.067 7.067,3.5 9,3.5 C10.932,3.5 12.5,5.067 12.5,7 C12.5,8.934 10.932,10.5 9,10.5 L9,10.5 Z"
         id="path12"
         style="fill:#000000" />
    </g>
  </g>
</svg>
