<?xml version="1.0" encoding="utf-8"?>
<!-- Generated by IcoMoon.io -->
<!DOCTYPE svg PUBLIC "-//W3C//DTD SVG 1.1//EN" "http://www.w3.org/Graphics/SVG/1.1/DTD/svg11.dtd">
<svg version="1.1" xmlns="http://www.w3.org/2000/svg" xmlns:xlink="http://www.w3.org/1999/xlink" width="14" height="14" viewBox="0 0 14 14">
<path d="M12.37 6.372l-4.181-3.863c0.047-0.132 0.072-0.272 0.072-0.42 0-0.696-0.565-1.261-1.261-1.261s-1.261 0.565-1.261 1.261c0 0.148 0.026 0.289 0.072 0.42l-4.181 3.863h-1.63v6.799h14v-6.799h-1.63zM6.82 1.894c0.047-0.044 0.11-0.070 0.18-0.070 0.069 0 0.132 0.026 0.18 0.070 0.053 0.048 0.085 0.117 0.085 0.195s-0.034 0.146-0.085 0.195c-0.047 0.044-0.11 0.070-0.18 0.070-0.069 0-0.132-0.026-0.18-0.070-0.053-0.048-0.085-0.117-0.085-0.195s0.032-0.146 0.085-0.195zM6.487 3.24c0.157 0.070 0.329 0.11 0.513 0.11s0.356-0.040 0.513-0.11l3.39 3.132h-7.805l3.39-3.132zM13.048 12.22h-12.096v-4.896h12.096v4.896zM11.253 8.946h-1.068v-0.952h2.019v3.535h-0.952v-2.583zM5.562 10.242h-1.362v-2.239h0.952v1.287h0.41v-1.287h0.952v3.526h-0.952v-1.287zM2.838 8.959h-0.967v-0.952h1.918v2.241h-0.961v0.337h0.967v0.952h-1.918v-2.241h0.961v-0.337zM7.934 11.705l-0.885-0.351 1.399-3.528 0.885 0.351-1.399 3.528z"></path>
</svg>
