<?xml version="1.0" encoding="utf-8"?>
<!-- Generated by IcoMoon.io -->
<!DOCTYPE svg PUBLIC "-//W3C//DTD SVG 1.1//EN" "http://www.w3.org/Graphics/SVG/1.1/DTD/svg11.dtd">
<svg version="1.1" xmlns="http://www.w3.org/2000/svg" xmlns:xlink="http://www.w3.org/1999/xlink" width="14" height="14" viewBox="0 0 14 14">
<path d="M12.25 5.25c-0.481 0-0.875 0.394-0.875 0.875v3.5c0 0.481 0.394 0.875 0.875 0.875s0.875-0.394 0.875-0.875v-3.5c0-0.481-0.394-0.875-0.875-0.875zM1.75 5.25c-0.481 0-0.875 0.394-0.875 0.875v3.5c0 0.481 0.394 0.875 0.875 0.875s0.875-0.394 0.875-0.875v-3.5c0-0.481-0.394-0.875-0.875-0.875zM3.063 10.063c0 0.725 0.588 1.313 1.313 1.313v0 1.75c0 0.481 0.394 0.875 0.875 0.875s0.875-0.394 0.875-0.875v-1.75h1.75v1.75c0 0.481 0.394 0.875 0.875 0.875s0.875-0.394 0.875-0.875v-1.75c0.725 0 1.313-0.588 1.313-1.313v-4.813h-7.875v4.813z"></path>
<path d="M10.913 4.375c-0.133-1.202-0.807-2.239-1.772-2.866l0.438-0.876c0.108-0.216 0.020-0.479-0.196-0.587s-0.479-0.020-0.587 0.196l-0.439 0.879-0.114-0.045c-0.391-0.13-0.808-0.2-1.243-0.2s-0.852 0.071-1.243 0.2l-0.114 0.045-0.439-0.879c-0.108-0.216-0.371-0.304-0.587-0.196s-0.304 0.371-0.196 0.587l0.438 0.876c-0.965 0.627-1.639 1.665-1.772 2.866v0.438h7.851v-0.437h-0.024zM5.688 3.5c-0.242 0-0.438-0.196-0.438-0.438s0.195-0.437 0.437-0.437c0 0 0.001 0 0.001 0s0-0 0.001-0c0.241 0.001 0.436 0.196 0.436 0.437s-0.196 0.438-0.438 0.438zM8.313 3.5c-0.242 0-0.438-0.196-0.438-0.438s0.195-0.437 0.436-0.437c0 0 0 0 0.001 0s0.001-0 0.001-0c0.241 0.001 0.437 0.196 0.437 0.437s-0.196 0.438-0.438 0.438z"></path>
</svg>
