<?xml version="1.0" encoding="utf-8"?>
<!-- Generated by IcoMoon.io -->
<!DOCTYPE svg PUBLIC "-//W3C//DTD SVG 1.1//EN" "http://www.w3.org/Graphics/SVG/1.1/DTD/svg11.dtd">
<svg version="1.1" xmlns="http://www.w3.org/2000/svg" xmlns:xlink="http://www.w3.org/1999/xlink" width="14" height="14" viewBox="0 0 14 14">
<path d="M5.824 9.926l4.676-4.676-0.82-0.82-3.855 3.828-1.504-1.504-0.82 0.82zM7 1.75c-0.328 0-0.574 0.246-0.574 0.574s0.246 0.602 0.574 0.602 0.574-0.273 0.574-0.602-0.246-0.574-0.574-0.574zM11.074 1.75c0.629 0 1.176 0.547 1.176 1.176v8.148c0 0.629-0.547 1.176-1.176 1.176h-8.148c-0.629 0-1.176-0.547-1.176-1.176v-8.148c0-0.629 0.547-1.176 1.176-1.176h2.434c0.246-0.684 0.875-1.176 1.641-1.176s1.395 0.492 1.641 1.176h2.434z"></path>
</svg>
