<?xml version="1.0" encoding="utf-8"?>
<!-- Generated by IcoMoon.io -->
<!DOCTYPE svg PUBLIC "-//W3C//DTD SVG 1.1//EN" "http://www.w3.org/Graphics/SVG/1.1/DTD/svg11.dtd">
<svg version="1.1" xmlns="http://www.w3.org/2000/svg" xmlns:xlink="http://www.w3.org/1999/xlink" width="14" height="14" viewBox="0 0 14 14">
<path d="M7 11.676c2.57 0 4.676-2.105 4.676-4.676 0-1.066-0.355-2.078-0.984-2.871l-6.563 6.563c0.793 0.629 1.805 0.984 2.871 0.984zM2.324 7c0 1.066 0.355 2.078 0.984 2.871l6.563-6.563c-0.793-0.629-1.805-0.984-2.871-0.984-2.57 0-4.676 2.105-4.676 4.676zM7 1.176c3.227 0 5.824 2.598 5.824 5.824s-2.598 5.824-5.824 5.824-5.824-2.598-5.824-5.824 2.598-5.824 5.824-5.824z"></path>
</svg>
