<?xml version="1.0" encoding="utf-8"?>
<!-- Generated by IcoMoon.io -->
<!DOCTYPE svg PUBLIC "-//W3C//DTD SVG 1.1//EN" "http://www.w3.org/Graphics/SVG/1.1/DTD/svg11.dtd">
<svg version="1.1" xmlns="http://www.w3.org/2000/svg" xmlns:xlink="http://www.w3.org/1999/xlink" width="14" height="14" viewBox="0 0 14 14">
<path d="M13.546 1.724h-7.244v-1.239c0-0.268-0.217-0.485-0.485-0.485h-2.91c-0.268 0-0.485 0.217-0.485 0.485v1.239h-1.968c-0.179 0-0.323 0.145-0.323 0.323v1.406c0 0.179 0.145 0.323 0.323 0.323h1.968v8.109h-1.643c-0.179 0-0.323 0.145-0.323 0.323v1.468c0 0.179 0.145 0.323 0.323 0.323h12.442c0.179 0 0.323-0.145 0.323-0.323v-1.468c0-0.179-0.145-0.323-0.323-0.323h-6.919v-8.108h4.72v1.468c-0.365 0.133-0.626 0.483-0.626 0.893s0.261 0.76 0.626 0.893v0.752c0 0.041-0.008 0.060-0.166 0.178-0.23 0.171-0.577 0.429-0.577 1.083 0 0.588 0.479 1.067 1.067 1.067 0.403 0 0.768-0.223 0.951-0.583 0.081-0.159 0.018-0.354-0.141-0.435s-0.354-0.018-0.435 0.141c-0.072 0.142-0.216 0.23-0.375 0.23-0.232 0-0.42-0.189-0.42-0.42 0-0.329 0.126-0.422 0.317-0.564 0.18-0.134 0.427-0.318 0.427-0.697v-0.752c0.365-0.133 0.626-0.483 0.626-0.893s-0.261-0.76-0.626-0.893v-1.468h1.878c0.179 0 0.323-0.145 0.323-0.323v-1.406c0-0.179-0.145-0.323-0.323-0.323zM3.392 3.857l1.552 1.445-1.552 1.445v-2.89zM3.781 7.711l1.552-1.445v2.89l-1.552-1.445zM4.944 10.12l-1.552 1.445v-2.89l1.552 1.445zM3.781 2.894l1.552-1.445v2.89l-1.552-1.445zM4.423 0.97l-1.031 0.96v-0.96h1.031zM0.777 3.13v-0.76h1.645v0.76h-1.645zM4.471 11.885l0.861-0.802v0.802h-0.861zM13.223 3.13h-6.921v-0.76h6.921v0.76z"></path>
</svg>
