<?xml version="1.0" encoding="utf-8"?>
<!-- Generated by IcoMoon.io -->
<!DOCTYPE svg PUBLIC "-//W3C//DTD SVG 1.1//EN" "http://www.w3.org/Graphics/SVG/1.1/DTD/svg11.dtd">
<svg version="1.1" xmlns="http://www.w3.org/2000/svg" xmlns:xlink="http://www.w3.org/1999/xlink" width="14" height="14" viewBox="0 0 14 14">
<path d="M7 0c-3.866 0-7 0.979-7 2.188v1.313l5.25 5.25v4.375c0 0.483 0.783 0.875 1.75 0.875s1.75-0.392 1.75-0.875v-4.375l5.25-5.25v-1.313c0-1.208-3.134-2.188-7-2.188zM1.29 1.898c0.327-0.187 0.787-0.364 1.33-0.513 1.202-0.329 2.758-0.51 4.38-0.51s3.177 0.181 4.38 0.51c0.543 0.149 1.003 0.326 1.33 0.513 0.216 0.123 0.333 0.227 0.387 0.29-0.054 0.062-0.171 0.166-0.387 0.29-0.327 0.187-0.787 0.364-1.33 0.513-1.202 0.329-2.758 0.51-4.38 0.51s-3.177-0.181-4.38-0.51c-0.543-0.149-1.003-0.326-1.33-0.513-0.216-0.123-0.333-0.227-0.387-0.29 0.054-0.062 0.171-0.166 0.387-0.29z"></path>
</svg>
