<?xml version="1.0" encoding="UTF-8" standalone="no"?>
<!-- Generated by IcoMoon.io -->

<svg
   xmlns:dc="http://purl.org/dc/elements/1.1/"
   xmlns:cc="http://creativecommons.org/ns#"
   xmlns:rdf="http://www.w3.org/1999/02/22-rdf-syntax-ns#"
   xmlns:svg="http://www.w3.org/2000/svg"
   xmlns="http://www.w3.org/2000/svg"
   xmlns:sodipodi="http://sodipodi.sourceforge.net/DTD/sodipodi-0.dtd"
   xmlns:inkscape="http://www.inkscape.org/namespaces/inkscape"
   version="1.1"
   width="14"
   height="14"
   viewBox="0 0 14 14"
   id="svg2"
   inkscape:version="0.91 r13725"
   sodipodi:docname="homeless_animals2.svg">
  <metadata
     id="metadata10">
    <rdf:RDF>
      <cc:Work
         rdf:about="">
        <dc:format>image/svg+xml</dc:format>
        <dc:type
           rdf:resource="http://purl.org/dc/dcmitype/StillImage" />
        <dc:title></dc:title>
      </cc:Work>
    </rdf:RDF>
  </metadata>
  <defs
     id="defs8" />
  <sodipodi:namedview
     pagecolor="#ffffff"
     bordercolor="#666666"
     borderopacity="1"
     objecttolerance="10"
     gridtolerance="10"
     guidetolerance="10"
     inkscape:pageopacity="0"
     inkscape:pageshadow="2"
     inkscape:window-width="640"
     inkscape:window-height="480"
     id="namedview6"
     showgrid="false"
     inkscape:zoom="16.857143"
     inkscape:cx="7"
     inkscape:cy="7"
     inkscape:window-x="0"
     inkscape:window-y="0"
     inkscape:window-maximized="0"
     inkscape:current-layer="svg2" />
  <path
     d="m 6.036,3.415 c 0.8674681,0.00976 1.5670198,0.6837033 1.9413273,1.4161355 0.3705021,0.2727912 0.6810569,0.9306044 0.2291502,1.0769306 0.5122294,0.6860042 1.4830215,0.6078677 2.1263845,1.1036829 0.429873,0.1287648 1.823142,0.4332698 0.880046,0.9365016 C 10.48812,8.4739913 9.355143,7.7245492 8.7840577,8.3861954 8.6337451,9.3176512 9.8322157,8.9010511 10.335275,8.7602434 11.099404,8.5361429 11.90816,8.2979554 12.502743,7.7410175 12.877567,7.1321333 11.253995,6.8314669 12.210403,6.4415473 12.481337,5.7305554 11.597406,5.417912 11.067364,5.2646644 10.523311,4.9829427 9.9258861,4.9927523 9.3399793,5.1034866 8.5748187,5.2768827 8.4057226,4.4588093 8.098913,3.9762643 7.7419346,3.3744929 7.0887313,2.948052 6.3753782,2.983868 5.7776844,2.623359 5.6573724,1.7986555 5.0234693,1.4214104 4.5607362,0.91630132 4.1494568,0.26332329 3.4862344,0.02270195 2.6994581,0.00925216 2.5579499,0.92621653 2.2273233,1.4583728 1.591039,1.9161254 2.0391256,2.8353898 2.5330367,2.832395 2.3587614,3.2433514 2.534037,3.9936263 3.1127028,3.6537128 2.9478689,4.0621131 2.8763636,4.7336373 3.5369022,4.5128006 4.2677676,4.7673476 3.1114691,6.0991101 3.2416131,5.0479181 2.981806,4.7325475 2.3389608,4.6224034 2.5992701,4.1098362 2.2592843,3.8296204 1.8932156,3.5351593 2.1693568,3.0763183 1.8191719,2.4185441 0.42049516,2.7267317 0.39509506,3.4963453 0.5633005,4.2458306 1.2093027,4.7853165 1.5002499,5.4914982 1.8963512,6.224338 2.2427135,7.0842275 1.812645,7.8838016 1.6178343,8.3345757 1.983165,8.6687115 2.3366769,8.2686328 2.5348004,8.7328324 1.484341,9.433713 2.0556183,9.7415637 c 0.9090623,-0.2858347 -0.0011,0.9589083 -0.097427,1.3287573 -0.160883,0.647111 1.0259612,0.373676 0.5308885,1.037718 -0.3466272,0.377557 -0.9714859,1.35449 -0.015077,1.355767 0.5960294,0.09201 1.0396173,-0.387286 0.4739373,-0.720345 0.2504433,-0.681028 0.3934357,-1.47279 -0.2291028,-1.947777 0.101211,-0.624322 0.5051742,-1.2135107 0.35549,-1.8648743 C 3.0752287,8.6312018 2.7148921,8.5384086 2.6483029,8.8706324 2.9102468,7.5268876 2.5061169,6.1606262 1.8160214,5.0093207 1.6731809,4.5238612 0.87976287,4.0074683 1.1747773,3.547778 1.9275372,3.6488138 1.9576263,4.4869142 2.256227,5.0258158 2.4719535,5.6023206 3.016731,6.3017694 3.7054099,6.0451195 4.3888152,5.7199901 4.303784,4.8202579 4.1558399,4.2042598 4.0603235,3.6519984 3.8625782,3.1160384 3.4539032,2.711764 3.132665,2.3284486 2.6917506,1.8018351 2.9570896,1.2787523 3.5334064,0.83191544 3.8802863,1.7499854 4.4913877,1.7116749 4.921161,1.8731915 4.4091369,2.955259 5.0932615,2.4540521 5.8873055,2.1656075 4.9026627,3.8336602 5.8402221,3.4015345 5.9071122,3.3946111 5.9709768,3.3961633 6.036,3.415 Z m 5.575,2.607 c 0.621283,-0.098139 -0.09695,0.4796931 0,0 z M 11.337,6.014 C 11.605455,6.5673732 10.835915,6.271533 10.945416,5.8432153 10.908892,5.5209221 11.337245,5.8820839 11.337,6.014 Z m -0.74,-0.376 c 0.165506,0.3558209 0.03443,1.1173448 -0.216794,0.3547051 C 10.248741,5.7257746 10.15898,5.1727634 10.597,5.638 Z M 9.721,5.426 c 0.466411,0.00475 0.2590651,1.0813325 0.08748,0.3092744 C 9.7771531,5.6328664 9.7381435,5.5322127 9.721,5.426 Z m -0.356,0.08 c 0.5319038,0.8520011 -0.8301983,-0.046633 0,0 z M 2.328,2.355 C 1.8082755,2.1388652 2.8126175,1.7538956 2.4871309,2.3363369 L 2.4036985,2.3596927 2.328,2.355 Z M 1.883,3.408 c -0.4620803,-0.388077 0.3228326,-0.5225082 0,0 z m 0.475,0.989 c -0.5270986,-0.2195495 0.3189292,-0.4987678 0,0 z M 2.879,5.395 C 2.2880474,5.3802917 3.0958569,4.686356 2.9407958,5.2741103 L 2.879,5.395 Z M 3.355,3.97 C 3.759381,3.4547061 3.596971,4.8483146 3.2762101,4.1291328 L 3.2938618,4.0722476 3.355,3.97 Z M 2.808,3.111 C 3.035266,2.5016398 3.2059841,3.786026 2.7591022,3.2899614 2.7610408,3.2264642 2.7863391,3.1695542 2.808,3.111 Z M 7.377,4.819 C 6.9536194,4.4743634 6.2595346,3.2430038 5.7857861,4.1622772 5.4606093,5.0502509 6.6957398,5.9865536 7.4353147,5.3581682 7.5864439,5.2101822 7.585923,4.9169872 7.377,4.819 Z M 6.316,4.992 C 5.9169908,4.8297778 6.2349659,3.7375833 6.4244066,4.501263 6.6106194,4.7530669 6.9809122,5.3503957 6.316,4.992 Z M 5.065,7.283 C 4.3104058,6.5396024 4.6460559,9.0315457 5.2242469,8.0974942 5.2649439,7.8155524 5.1343273,7.5489915 5.065,7.283 Z M 3.949,9.705 C 4.517999,9.4144731 3.720569,7.9908709 3.5505404,8.9461258 3.5507046,9.2173341 3.5041935,9.812131 3.949,9.705 Z m 8.741,1.659 c 0.875273,-0.194418 0.350829,-1.5743041 -0.429649,-1.36152 0.378996,-0.1718574 0.79036,-0.9578197 0.02939,-0.7546173 -0.413524,0.035961 -1.173063,-0.8188094 -1.320694,-0.2969292 0.236062,0.2979551 1.173982,0.5908505 0.544992,1.0119387 0.153301,0.5213478 1.787083,0.4708348 0.81183,1.0759388 -0.382909,0.432617 0.249516,0.958561 0.432967,0.996983 -0.54523,0.946187 1.246005,0.374864 0.639746,-0.30081 C 13.237191,11.447455 12.906205,11.547074 12.69,11.364 Z M 6.498,10.14 C 6.8290516,9.8108091 6.2204418,9.2133464 6.2203503,9.8763447 5.9729515,10.427689 5.942641,8.713256 5.696671,9.3629965 5.6887377,9.796659 5.7443817,11.131798 6.3839861,10.645847 6.4522648,10.484968 6.4518663,10.306755 6.498,10.14 Z m -1.62,3.088 C 4.1074128,13.589775 4.8606479,12.449317 4.819347,12.106165 5.0453036,11.688536 4.3962175,10.903436 4.2785785,11.682721 4.4105874,12.42932 3.5842023,13.348056 4.119055,13.950906 4.493727,14.039726 4.9365418,13.6007 4.878,13.228 Z m 4.538,-1.766 c -0.7229293,-0.600909 -0.7372784,1.609199 -1.2347611,0.63857 -0.076528,-0.509668 -0.8835399,-0.594768 -0.4882546,0.05424 0.098407,0.81803 1.3100517,1.177437 1.4183069,0.18842 C 9.2667294,12.075944 9.4698508,11.789277 9.416,11.462 Z m 1.357,0.98 c -0.425335,-1.002461 -0.8966014,0.488608 -0.06951,0.666297 0.557808,0.175652 0.214375,-0.484473 0.06951,-0.666297 z m 2.12,0.545 c -0.220069,-0.359513 -1.276612,-0.84123 -0.859485,-0.01579 0.175981,0.4036 1.422362,0.846141 1.124909,0.146431 C 13.069757,13.074512 12.975622,13.041986 12.893,12.987 Z M 6.261,12.79 C 5.7868813,13.274121 7.3013755,13.986037 6.6958048,13.210458 6.5749559,13.049814 6.4516561,12.874344 6.261,12.79 Z"
     id="path4"
     inkscape:connector-curvature="0" />
</svg>
