<?xml version="1.0" encoding="utf-8"?>
<!-- Generated by IcoMoon.io -->
<!DOCTYPE svg PUBLIC "-//W3C//DTD SVG 1.1//EN" "http://www.w3.org/Graphics/SVG/1.1/DTD/svg11.dtd">
<svg version="1.1" xmlns="http://www.w3.org/2000/svg" xmlns:xlink="http://www.w3.org/1999/xlink" width="14" height="14" viewBox="0 0 14 14">
<path d="M13.89 7.763l-2.54-2.54v-1.675c0-0.209-0.169-0.378-0.378-0.378s-0.378 0.169-0.378 0.378v0.92l-1.792-1.792c-0.147-0.148-0.387-0.148-0.534 0l-1.918 1.918c0.063 0.038 0.122 0.082 0.174 0.134l0.382 0.378 1.629-1.629 4.821 4.821c0.074 0.073 0.171 0.111 0.267 0.111s0.194-0.037 0.267-0.111c0.148-0.148 0.148-0.387 0-0.535z"></path>
<path d="M12.809 8.197l-4.007-4.007c-0.071-0.071-0.167-0.111-0.267-0.111s-0.196 0.040-0.267 0.111l-1.14 1.14 0.241 0.242c0.119 0.12 0.202 0.268 0.24 0.429 0.162 0.674-0.121 1.629-0.877 2.061-0.164 0.093-0.432 0.204-0.78 0.204 0 0 0 0-0 0-0.172-0-0.344-0.027-0.514-0.081l-0.225 0.28 1.31 1.635c0.153 0.19 0.222 0.429 0.195 0.671s-0.146 0.46-0.337 0.613c-0.023 0.019-0.046 0.035-0.071 0.051h0.699c0.253 0 0.497-0.107 0.67-0.294 0.157-0.169 0.243-0.39 0.243-0.62v-1.436c0-0.349 0.267-0.64 0.612-0.673 0.345 0.033 0.612 0.324 0.612 0.673v1.436c0 0.23 0.087 0.451 0.243 0.62 0.172 0.187 0.417 0.294 0.67 0.294h1.956c0.504 0 0.913-0.41 0.913-0.914v-1.954c0-0.057-0.005-0.116-0.017-0.173-0.015-0.074-0.051-0.142-0.105-0.196z"></path>
<path d="M4.525 8.467l0.753-0.939c0.565 0.341 1.003 0.175 1.187 0.070 0.531-0.304 0.736-1 0.622-1.471-0.017-0.069-0.052-0.129-0.1-0.176-0.007 0.008-0.014 0.016-0.022 0.024l-0.679 0.679c-0.209 0.209-0.548 0.209-0.757 0l-0.086-0.086c-0.209-0.209-0.209-0.548 0-0.757l0.679-0.679c0.008-0.008 0.016-0.015 0.024-0.022-0.048-0.047-0.108-0.083-0.176-0.1-0.471-0.114-1.168 0.092-1.471 0.622-0.118 0.206-0.312 0.73 0.213 1.393l-0.672 0.839-1.328-1.656c0.168-0.158 0.331-0.317 0.456-0.446 0.080-0.083 0.172-0.124 0.281-0.124 0.090 0 0.159 0.028 0.159 0.028s0 0-0 0c0.103 0.047 0.223 0.016 0.289-0.074s0.060-0.215-0.015-0.298c-0.381-0.424-0.742-0.512-0.977-0.512-0.286 0-0.472 0.127-0.493 0.142-0.005 0.004-0.010 0.008-0.015 0.012l-1.209 1.025h-0.315c-0.058 0-0.115 0.022-0.158 0.061l-0.638 0.578c-0.048 0.044-0.076 0.106-0.077 0.171s0.025 0.128 0.071 0.173l0.945 0.921c0.046 0.045 0.105 0.067 0.165 0.067 0.057 0 0.113-0.020 0.158-0.061l0.549-0.496c0.047-0.042 0.075-0.102 0.078-0.165l0.014-0.326c0.044-0.040 0.106-0.096 0.178-0.161l1.399 1.745-1.728 2.155c-0.131 0.163-0.104 0.401 0.058 0.531 0.070 0.056 0.153 0.083 0.236 0.083 0.111 0 0.22-0.049 0.295-0.142l1.622-2.024 1.474 1.838c0.075 0.093 0.184 0.142 0.295 0.142 0.083 0 0.166-0.027 0.236-0.083 0.163-0.131 0.189-0.369 0.058-0.531l-1.579-1.969z"></path>
</svg>
