<?xml version="1.0" encoding="utf-8"?>
<!-- Generated by IcoMoon.io -->
<!DOCTYPE svg PUBLIC "-//W3C//DTD SVG 1.1//EN" "http://www.w3.org/Graphics/SVG/1.1/DTD/svg11.dtd">
<svg version="1.1" xmlns="http://www.w3.org/2000/svg" xmlns:xlink="http://www.w3.org/1999/xlink" width="14" height="14" viewBox="0 0 14 14">
<path d="M9.488 10.227l-5.715-5.715c-0.52 0.684-0.848 1.559-0.848 2.488 0 2.27 1.805 4.074 4.074 4.074 0.93 0 1.805-0.328 2.488-0.848zM1.75 2.488l0.738-0.738 9.762 9.762-0.738 0.738-1.203-1.203c-0.766 0.629-1.695 1.066-2.734 1.176v1.203h-1.148v-1.203c-2.434-0.273-4.375-2.215-4.648-4.648h-1.203v-1.148h1.203c0.109-1.039 0.547-1.969 1.176-2.734zM12.223 6.426h1.203v1.148h-1.203c-0.082 0.656-0.273 1.313-0.574 1.859l-0.875-0.875c0.191-0.465 0.301-1.012 0.301-1.559 0-2.27-1.805-4.074-4.074-4.074-0.547 0-1.094 0.109-1.559 0.301l-0.875-0.875c0.574-0.301 1.203-0.492 1.859-0.574v-1.203h1.148v1.203c2.434 0.273 4.375 2.215 4.648 4.648z"></path>
</svg>
