<?xml version="1.0" encoding="utf-8"?>
<!-- Generated by IcoMoon.io -->
<!DOCTYPE svg PUBLIC "-//W3C//DTD SVG 1.1//EN" "http://www.w3.org/Graphics/SVG/1.1/DTD/svg11.dtd">
<svg version="1.1" xmlns="http://www.w3.org/2000/svg" xmlns:xlink="http://www.w3.org/1999/xlink" width="14" height="14" viewBox="0 0 14 14">
<path d="M4.928 7.793v1.856c0 0.149 0.121 0.27 0.271 0.27s0.271-0.121 0.271-0.27v-1.686l-0.857-0.905c-0.187-0.198-0.261-0.474-0.197-0.738l0.206-0.859h-0.241l0.181-0.274c0.038 0.017 0.078 0.031 0.12 0.040 0.043-0.128 0.117-0.241 0.212-0.329 0.124-0.116 0.285-0.191 0.461-0.209 0.026-0.003 0.053-0.005 0.080-0.005v-0.885c0-0.149-0.121-0.27-0.27-0.27s-0.27 0.121-0.27 0.27v0.326c-0.032-0.006-0.066-0.009-0.1-0.009s-0.068 0.004-0.1 0.009v-0.77c0-0.149-0.121-0.27-0.271-0.27s-0.27 0.121-0.27 0.27v1.469l-0.131 0.199-0.131-0.199v-1.469c0-0.149-0.121-0.27-0.27-0.27s-0.27 0.121-0.27 0.27v0.77c-0.033-0.006-0.066-0.009-0.1-0.009-0.069 0-0.135 0.013-0.196 0.036v-1.258c0-0.149-0.121-0.27-0.271-0.27s-0.27 0.121-0.27 0.27v1.469l-0.166 0.252v-1.26c0-0.149-0.121-0.27-0.27-0.27s-0.27 0.121-0.27 0.27v0.336c-0.061-0.023-0.127-0.036-0.196-0.036-0.31 0-0.561 0.251-0.561 0.561s0.251 0.561 0.561 0.561c0.069 0 0.135-0.013 0.196-0.036v0.164c0 0.033 0.007 0.065 0.018 0.096h-0.697l-0.42-0.638v-1.469c0-0.149-0.121-0.27-0.27-0.27s-0.27 0.121-0.27 0.27v1.55c0 0.053 0.016 0.105 0.045 0.149l0.73 1.107v1.183c-0.003 0.017-0.005 0.035-0.005 0.054v2.253c0 0.149 0.121 0.27 0.27 0.27s0.271-0.121 0.271-0.27v-1.856h0.269v1.856c0 0.149 0.121 0.27 0.271 0.27s0.271-0.121 0.271-0.27v-2.253c0-0.018-0.002-0.036-0.005-0.054v-1.177l0.3 0.455v1.183c-0.003 0.017-0.005 0.035-0.005 0.054v2.253c0 0.149 0.121 0.27 0.271 0.27s0.27-0.121 0.27-0.27v-1.856h0.269v1.856c0 0.149 0.121 0.27 0.27 0.27s0.27-0.121 0.27-0.27v-2.253c0-0.018-0.002-0.036-0.005-0.054v-1.183l0.102-0.155 0.102 0.155v1.183c-0.003 0.017-0.005 0.035-0.005 0.054v2.253c0 0.149 0.121 0.27 0.27 0.27s0.271-0.121 0.271-0.27v-1.856h0.269zM3.249 5.46h-0.483l-0.165-0.251 0.165-0.25c0.098 0.166 0.277 0.277 0.484 0.277 0.083 0 0.162-0.019 0.233-0.051l0.181 0.274h-0.414z"></path>
<path d="M6.051 4.968c0.028-0.044 0.058-0.088 0.090-0.128 0.030-0.038 0.062-0.075 0.097-0.109 0.060-0.060 0.126-0.115 0.197-0.163 0.077-0.053 0.16-0.097 0.248-0.133v-0.434c0-0.149-0.121-0.27-0.27-0.27-0.067 0-0.127 0.025-0.174 0.065v-0.441c0-0.149-0.121-0.27-0.271-0.27s-0.27 0.121-0.27 0.27v1.372c0.062 0.021 0.12 0.049 0.173 0.084 0.069 0.044 0.129 0.098 0.181 0.159z"></path>
<path d="M5.874 8.39l-0.211-0.223v1.615l0.211-0.258z"></path>
<path d="M13.488 2.825c-0.149 0-0.27 0.121-0.27 0.27v1.469l-0.42 0.638h-0.697c0.012-0.031 0.018-0.063 0.018-0.096v-0.164c0.061 0.023 0.127 0.036 0.196 0.036 0.31 0 0.561-0.251 0.561-0.561s-0.251-0.561-0.561-0.561c-0.069 0-0.135 0.013-0.196 0.036v-0.336c0-0.149-0.121-0.27-0.271-0.27s-0.27 0.121-0.27 0.27v1.26l-0.166-0.252v-1.469c0-0.149-0.121-0.27-0.27-0.27s-0.271 0.121-0.271 0.27v1.258c-0.061-0.023-0.127-0.036-0.196-0.036-0.034 0-0.068 0.004-0.1 0.009v-0.77c0-0.149-0.121-0.27-0.27-0.27s-0.27 0.121-0.27 0.27v1.469l-0.131 0.199-0.021-0.031v1.045l0.021-0.031 0.102 0.155v1.183c-0.003 0.017-0.005 0.035-0.005 0.054v2.253c0 0.149 0.121 0.27 0.271 0.27s0.27-0.121 0.27-0.27v-1.856h0.269v1.856c0 0.149 0.121 0.27 0.27 0.27s0.271-0.121 0.271-0.27v-2.253c0-0.018-0.002-0.036-0.005-0.054v-1.183l0.3-0.455v1.177c-0.003 0.017-0.005 0.035-0.005 0.054v2.253c0 0.149 0.121 0.27 0.271 0.27s0.27-0.121 0.27-0.27v-1.856h0.269v1.856c0 0.149 0.121 0.27 0.271 0.27s0.27-0.121 0.27-0.27v-2.253c0-0.018-0.002-0.036-0.005-0.054v-1.183l0.73-1.107c0.029-0.044 0.045-0.096 0.045-0.149v-1.55c0-0.149-0.121-0.27-0.27-0.27zM11.157 5.663h-0.897l0.181-0.274c0.071 0.032 0.15 0.051 0.233 0.051 0.206 0 0.386-0.112 0.484-0.277l0.165 0.25-0.165 0.251z"></path>
<path d="M9.8 6.612c-0.015 0.031-0.031 0.061-0.051 0.091l-1.062 1.612v1.677c0.006 0.038 0.008 0.077 0.008 0.115v0.013c0.010 0.001 0.019 0.003 0.029 0.003 0.149 0 0.27-0.121 0.27-0.27v-1.856h0.269v1.856c0 0.149 0.121 0.27 0.271 0.27s0.27-0.121 0.27-0.27v-2.253c0-0.018-0.002-0.036-0.005-0.054v-0.933z"></path>
<path d="M8.227 3.557c0-0.149-0.121-0.27-0.27-0.27s-0.271 0.121-0.271 0.27v0.035c-0.047-0.040-0.107-0.065-0.174-0.065-0.149 0-0.27 0.121-0.27 0.27v0.538c0.156 0.006 0.306 0.038 0.444 0.092 0.033 0.013 0.065 0.028 0.097 0.043 0.172 0.084 0.323 0.202 0.444 0.348v-1.262h0z"></path>
<path d="M2.39 2.37c0.161-0.212 0.169-0.51 0.035-0.743-0.144-0.252-0.775-0.732-0.427-1.011 0.193-0.155-0.080-0.425-0.272-0.272-0.227 0.182-0.248 0.461-0.17 0.725 0.105 0.352 0.796 0.719 0.501 1.106-0.15 0.197 0.184 0.388 0.332 0.194z"></path>
<path d="M12.406 0.728c0.247-0.025 0.164-0.4-0.080-0.376-0.289 0.029-0.459 0.252-0.537 0.517-0.103 0.353 0.278 1.036-0.181 1.201-0.233 0.084-0.057 0.426 0.173 0.343 0.251-0.090 0.419-0.336 0.433-0.604 0.016-0.29-0.253-1.036 0.191-1.081z"></path>
<path d="M4.88 2.328c0.041 0.265 0.233 0.493 0.491 0.558 0.237 0.059 0.379-0.298 0.138-0.359-0.473-0.118-0.162-0.836-0.299-1.177-0.103-0.256-0.294-0.46-0.585-0.461-0.245-0-0.29 0.382-0.043 0.382 0.446 0.001 0.253 0.769 0.298 1.056z"></path>
<path d="M9.576 0.951c0.113-0.252 0.128-0.531-0.073-0.741-0.17-0.177-0.476 0.055-0.305 0.234 0.309 0.322-0.38 0.716-0.556 0.946-0.163 0.213-0.195 0.51-0.062 0.741 0.121 0.212 0.477 0.066 0.354-0.149-0.242-0.423 0.491-0.696 0.642-1.031z"></path>
<path d="M6.108 1.353c0.103 0.248 0.343 0.424 0.609 0.426 0.244 0.002 0.297-0.38 0.049-0.381-0.487-0.003-0.355-0.774-0.57-1.072-0.161-0.224-0.395-0.377-0.678-0.309-0.238 0.058-0.192 0.439 0.049 0.381 0.434-0.105 0.428 0.687 0.54 0.956z"></path>
<path d="M3.393 2.404c0.347 0 0.347-0.538 0-0.538s-0.347 0.538 0 0.538z"></path>
<path d="M0.819 1.636c0.347 0 0.347-0.538 0-0.538s-0.347 0.538 0 0.538z"></path>
<path d="M8.042 0.406c-0.347 0-0.347 0.538 0 0.538s0.347-0.538 0-0.538z"></path>
<path d="M7.543 2.327c0.347 0 0.347-0.538 0-0.538s-0.347 0.538 0 0.538z"></path>
<path d="M10.501 1.52c0.347 0 0.347-0.538 0-0.538s-0.347 0.538 0 0.538z"></path>
<path d="M13.575 1.559c-0.347 0-0.347 0.538 0 0.538s0.347-0.538 0-0.538z"></path>
<path d="M8.454 7.969l0.974-1.478c0.045-0.068 0.069-0.148 0.069-0.23v-2.945c0-0.010-0.001-0.020-0.002-0.030-0.016-0.216-0.196-0.387-0.416-0.387-0.231 0-0.417 0.187-0.417 0.417v2.82l-0.649 0.984h-1.663l-0.697-0.736 0.193-0.802c0-0.001 0-0.002 0-0.002 0.003-0.011 0.005-0.022 0.006-0.033 0.001-0.005 0.001-0.011 0.002-0.016 0.005-0.048 0.002-0.095-0.008-0.14-0.010-0.043-0.026-0.084-0.049-0.121-0.056-0.092-0.147-0.163-0.26-0.191-0.003-0.001-0.005-0.001-0.008-0.001-0.030-0.007-0.060-0.010-0.090-0.010-0.002 0-0.003 0-0.005 0-0.187 0.002-0.355 0.13-0.4 0.32l-0.245 1.022c-0.033 0.137 0.006 0.282 0.103 0.385l1.366 1.443v1.424l-1.386 1.695c-0.14 0.171-0.122 0.421 0.040 0.571l1.063 0.982c0.080 0.074 0.182 0.111 0.283 0.111 0.112 0 0.225-0.045 0.307-0.134 0.156-0.169 0.146-0.433-0.024-0.59l-0.774-0.715 0.704-0.86h1.006v2.863c0 0.23 0.187 0.417 0.417 0.417s0.417-0.187 0.417-0.417v-3.476c0-0.028-0.003-0.056-0.008-0.083v-1.824l0.152-0.23z"></path>
<path d="M6.257 5.904c0.064 0.267 0.238 0.491 0.473 0.62 0.085 0.047 0.179 0.081 0.278 0.1 0.060 0.012 0.121 0.018 0.184 0.018 0.378 0 0.704-0.219 0.862-0.536 0.037-0.074 0.065-0.153 0.082-0.236 0.012-0.062 0.019-0.125 0.019-0.191 0-0.075-0.010-0.148-0.026-0.218-0.051-0.218-0.176-0.408-0.347-0.541-0.031-0.024-0.063-0.046-0.097-0.066-0.058-0.035-0.12-0.064-0.186-0.086-0.082-0.028-0.169-0.044-0.259-0.049-0.016-0.001-0.032-0.002-0.049-0.002-0.14 0-0.272 0.031-0.392 0.084-0.041 0.018-0.080 0.039-0.117 0.063-0.244 0.153-0.414 0.411-0.447 0.711-0.001 0.005-0.001 0.011-0.001 0.016-0.002 0.026-0.004 0.052-0.004 0.079 0 0.003-0 0.006-0 0.010 0 0.031 0.002 0.062 0.005 0.092 0.004 0.045 0.012 0.089 0.023 0.132z"></path>
<path d="M5.873 9.638h0.336v3.754h-0.336v-3.754z"></path>
<path d="M4.761 10.497h1.384v3.44h-1.384v-3.44z"></path>
<path d="M6.040 11.483h0.755v1.909h-0.755v-1.909z"></path>
<path d="M6.229 9.512h0.021v1.888h-0.021v-1.888z"></path>
<path d="M6.019 9.658h0.231v1.888h-0.231v-1.888z"></path>
<path d="M5.411 10.33h0.336v0.189h-0.336v-0.189z"></path>
<path d="M5.411 10.015h0.608v0.839h-0.608v-0.839z"></path>
<path d="M6.049 10.779v0.214h0.549v-0.214h-0.549zM6.074 10.804h0.499v0.164h-0.499v-0.164z"></path>
<path d="M6.25 10.707h0.692v2.999h-0.692v-2.999z"></path>
<path d="M6.25 13.664c0.221 0.565 0.57 0.304 0.671 0z"></path>
</svg>
