<?xml version="1.0" encoding="utf-8"?>
<!-- Generated by IcoMoon.io -->
<!DOCTYPE svg PUBLIC "-//W3C//DTD SVG 1.1//EN" "http://www.w3.org/Graphics/SVG/1.1/DTD/svg11.dtd">
<svg version="1.1" xmlns="http://www.w3.org/2000/svg" xmlns:xlink="http://www.w3.org/1999/xlink" width="14" height="14" viewBox="0 0 14 14">
<path d="M11.562 2.103c-0.483 0.583-0.974 1.011-1.719 0.56-0.657-0.397-1.125-0.91-1.958-0.828-0.649 0.063-1.176 0.608-1.361 1.205-0.027 0.086-0.035 0.176-0.035 0.267-0.501-0.011-1 0.18-1.367 0.557l-0.014-0.011-4.696 6.317 0.003 0.002c-0.017 0.021-0.035 0.040-0.051 0.062-0.608 0.818-0.438 1.975 0.38 2.583s1.975 0.438 2.584-0.38c0.016-0.022 0.030-0.045 0.044-0.067l0.003 0.003 4.696-6.317-0.014-0.011c0.443-0.797 0.24-1.818-0.512-2.377-0.18-0.134-0.376-0.228-0.578-0.288 0.002-0.315 0.168-0.592 0.407-0.806 0.378-0.338 0.88-0.322 1.317-0.122 0.625 0.286 1.069 0.954 1.829 0.907 0.624-0.038 1.054-0.52 1.428-0.97 0.198-0.24-0.189-0.526-0.387-0.287zM7.015 3.746c0.114 0.050 0.225 0.113 0.331 0.192 0.616 0.458 0.816 1.231 0.447 1.728s-1.167 0.527-1.783 0.070c-0.616-0.458-0.816-1.232-0.447-1.728 0.214-0.288 0.574-0.418 0.959-0.388 0.073 0.412 0.221 0.833-0.047 1.154-0.199 0.239 0.188 0.525 0.386 0.287 0.335-0.4 0.238-0.854 0.154-1.315zM11.297 1.615l-0.389-0.798 0.526 0.715-0.138 0.083zM12.895 1.217l-0.601 0.719-0.114-0.113 0.715-0.606zM14 3.521l-1.637-0.832 0.079-0.14 1.558 0.972zM12.187 2.851l0.038 2.089-0.198-2.079 0.16-0.009z"></path>
</svg>
