<?xml version="1.0" encoding="utf-8"?>
<!-- Generated by IcoMoon.io -->
<!DOCTYPE svg PUBLIC "-//W3C//DTD SVG 1.1//EN" "http://www.w3.org/Graphics/SVG/1.1/DTD/svg11.dtd">
<svg version="1.1" xmlns="http://www.w3.org/2000/svg" xmlns:xlink="http://www.w3.org/1999/xlink" width="14" height="14" viewBox="0 0 14 14">
<path d="M7 11.074c2.27 0 4.074-1.805 4.074-4.074s-1.805-4.074-4.074-4.074-4.074 1.805-4.074 4.074 1.805 4.074 4.074 4.074zM12.223 6.426h1.203v1.148h-1.203c-0.273 2.434-2.215 4.375-4.648 4.648v1.203h-1.148v-1.203c-2.434-0.273-4.375-2.215-4.648-4.648h-1.203v-1.148h1.203c0.273-2.434 2.215-4.375 4.648-4.648v-1.203h1.148v1.203c2.434 0.273 4.375 2.215 4.648 4.648zM7 4.676c1.285 0 2.324 1.039 2.324 2.324s-1.039 2.324-2.324 2.324-2.324-1.039-2.324-2.324 1.039-2.324 2.324-2.324z"></path>
</svg>
