<?xml version="1.0" encoding="UTF-8" standalone="no"?>
<!-- Generated by IcoMoon.io -->

<svg
   xmlns:dc="http://purl.org/dc/elements/1.1/"
   xmlns:cc="http://creativecommons.org/ns#"
   xmlns:rdf="http://www.w3.org/1999/02/22-rdf-syntax-ns#"
   xmlns:svg="http://www.w3.org/2000/svg"
   xmlns="http://www.w3.org/2000/svg"
   xmlns:sodipodi="http://sodipodi.sourceforge.net/DTD/sodipodi-0.dtd"
   xmlns:inkscape="http://www.inkscape.org/namespaces/inkscape"
   version="1.1"
   width="14"
   height="14"
   viewBox="0 0 14 14"
   id="svg2"
   inkscape:version="0.91 r13725"
   sodipodi:docname="oil_spill_2.svg">
  <metadata
     id="metadata10">
    <rdf:RDF>
      <cc:Work
         rdf:about="">
        <dc:format>image/svg+xml</dc:format>
        <dc:type
           rdf:resource="http://purl.org/dc/dcmitype/StillImage" />
        <dc:title></dc:title>
      </cc:Work>
    </rdf:RDF>
  </metadata>
  <defs
     id="defs8" />
  <sodipodi:namedview
     pagecolor="#ffffff"
     bordercolor="#666666"
     borderopacity="1"
     objecttolerance="10"
     gridtolerance="10"
     guidetolerance="10"
     inkscape:pageopacity="0"
     inkscape:pageshadow="2"
     inkscape:window-width="640"
     inkscape:window-height="480"
     id="namedview6"
     showgrid="false"
     inkscape:zoom="16.857143"
     inkscape:cx="7"
     inkscape:cy="7.8898305"
     inkscape:window-x="0"
     inkscape:window-y="0"
     inkscape:window-maximized="0"
     inkscape:current-layer="svg2" />
  <path
     d="M 3.0749566,13.380415 C 2.6953465,12.570566 3.4799129,11.886194 3.7543837,11.186297 4.1610665,10.350957 4.4261597,9.4511466 4.6127829,8.5401825 4.2069911,8.4032504 3.7460963,9.4114079 3.5137315,8.6688035 4.0655278,8.0123772 2.7826814,7.1675363 2.6844507,8.1876628 2.5308927,8.7382642 1.3404701,9.3104067 1.4308803,8.3582543 1.7712333,7.6994092 3.282773,7.7507634 2.9262331,6.7639161 2.3310835,6.3772503 2.1258476,7.4961437 1.6992789,7.7439051 0.9972626,8.2088308 0.17049516,7.3206613 0.56549421,6.610967 0.91728551,5.9651545 1.7330048,6.0664006 2.3482135,5.9919686 2.8110014,5.8916399 3.99286,5.8642779 3.6738045,5.131483 3.251749,5.2744872 2.067384,4.8051049 2.7902181,4.3597267 3.2388079,4.6041899 4.4792702,5.2121616 4.2435001,4.1831508 3.9398118,3.4383613 2.9494615,3.2290299 2.7873006,2.3956595 2.3668895,1.8459306 3.0482575,0.38898507 3.5928036,1.3195685 3.9154473,2.0700023 3.6389594,3.083463 4.3486709,3.6453817 5.1688825,3.9681595 4.6341666,2.5396479 4.9087699,2.1222974 5.1047192,1.5782473 4.1220169,0.62786355 4.9104337,0.47639339 5.2807743,0.97480893 4.8662677,1.7696271 5.2845562,2.3372084 5.4095536,2.7267674 5.5852769,3.8504585 6.1259118,3.1627186 6.4275206,2.5448477 6.9348628,2.8280537 7.4019143,2.9358213 8.1913627,2.765734 7.4614171,1.9486689 7.6767163,1.4446647 7.6952227,0.61577276 9.0700731,0.46308061 8.9852744,1.3892078 8.9327978,2.0087078 8.3119397,2.6261042 8.7149708,3.2415236 9.2462613,4.0527318 10.083184,2.0361156 10.443573,3.131088 10.676262,4.0647287 8.8499122,3.9372507 9.3750234,4.773 10.044146,5.2254976 10.609991,4.4710371 11.090665,4.0850178 c 0.584109,-0.478075 1.335721,-0.8930535 2.105047,-0.727465 0.721468,0.376347 0.164813,1.5472152 -0.561269,1.0627581 -0.822044,-0.064472 -1.635688,0.2615935 -2.279702,0.7685189 -0.191657,0.6627725 1.006622,1.3399981 0.01388,1.7949964 -0.227562,0.9749629 1.070799,0.7927949 1.630721,0.7834428 0.657155,0.226428 1.016878,0.9776904 0.967439,1.655186 C 13.345324,10.266971 12.02219,10.909123 11.8227,9.9072128 11.548934,9.2704276 11.517611,8.3722074 10.776165,8.0923189 9.8808874,7.5901702 9.5477221,9.1052167 10.287464,9.4866593 10.952215,9.8002619 10.86628,11.4601 10.008206,10.893861 9.6763018,10.331089 9.955284,9.4285451 9.269611,9.1006055 8.3217396,8.5886099 8.8618484,10.603417 8.0718143,10.084812 7.810101,9.7773237 7.6223484,8.5102255 7.0809775,9.2036525 6.9369221,10.057251 7.3780578,10.863569 7.7260241,11.603644 8.0921833,11.942783 7.8858844,13.170038 7.3370149,12.545191 6.935893,11.781988 7.1671882,10.86844 6.886658,10.069849 6.9141893,9.5672793 6.3285317,8.4311922 5.8903472,9.2398255 5.7163577,9.8810184 6.6178359,10.613796 5.9803336,11.145574 5.1265022,11.477761 5.0722515,10.243818 5.4739715,9.7702236 5.6722963,9.2934862 5.0535486,8.4839235 4.8070749,9.274733 4.2831932,10.426035 4.3080026,11.72455 4.0091062,12.937583 3.8648992,13.277189 3.435651,13.632887 3.0749566,13.380415 Z"
     id="path4"
     inkscape:connector-curvature="0" />
</svg>
