<?xml version="1.0" encoding="utf-8"?>
<!-- Generated by IcoMoon.io -->
<!DOCTYPE svg PUBLIC "-//W3C//DTD SVG 1.1//EN" "http://www.w3.org/Graphics/SVG/1.1/DTD/svg11.dtd">
<svg version="1.1" xmlns="http://www.w3.org/2000/svg" xmlns:xlink="http://www.w3.org/1999/xlink" width="14" height="14" viewBox="0 0 14 14">
<path d="M8.429 3.094h1.793l0 2.092 0.909-1.411v-1.183c0-0.072-0.029-0.142-0.080-0.193l-2.319-2.319c-0.051-0.051-0.12-0.080-0.193-0.080h-7.17c-0.451 0-0.818 0.367-0.818 0.818v12.364c0 0.451 0.367 0.818 0.818 0.818h8.943c0.451 0 0.818-0.367 0.818-0.818v-3.51l-0.909 1.391 0 2.028h-8.761v-12.182h6.63v1.847c0 0.187 0.151 0.338 0.338 0.338z"></path>
<path d="M12.147 6.504l-0.376-0.245c-0.061-0.040-0.143-0.023-0.184 0.038l-2.023 3.096-0.389-0.254 2.023-3.096c0.040-0.061 0.023-0.143-0.038-0.184l-0.376-0.246c-0.061-0.040-0.143-0.023-0.184 0.038l-3.029 4.635c-0.013 0.020-0.020 0.042-0.021 0.066l-0.079 1.609c-0.002 0.047 0.020 0.092 0.060 0.117s0.090 0.029 0.132 0.008l1.441-0.718c0.021-0.010 0.039-0.026 0.052-0.046l3.029-4.635c0.040-0.061 0.023-0.143-0.038-0.183z"></path>
<path d="M13.388 4.605l-1.362-0.89c-0.061-0.040-0.143-0.023-0.184 0.038l-0.919 1.406c-0.040 0.061-0.023 0.144 0.038 0.184l1.362 0.89c0.061 0.040 0.144 0.023 0.184-0.038l0.919-1.406c0.040-0.061 0.023-0.143-0.038-0.184z"></path>
<path d="M2.785 2.915h2.6c0.184 0 0.333-0.149 0.333-0.333s-0.149-0.333-0.333-0.333h-2.6c-0.184 0-0.333 0.149-0.333 0.333s0.149 0.333 0.333 0.333z"></path>
<path d="M7.719 4.249c0-0.184-0.149-0.333-0.333-0.333h-4.6c-0.184 0-0.333 0.149-0.333 0.333s0.149 0.333 0.333 0.333h4.6c0.184 0 0.333-0.149 0.333-0.333z"></path>
<path d="M2.785 6.249h2.6c0.184 0 0.333-0.149 0.333-0.333s-0.149-0.333-0.333-0.333h-2.6c-0.184 0-0.333 0.149-0.333 0.333s0.149 0.333 0.333 0.333z"></path>
<path d="M2.785 7.915h2.6c0.184 0 0.333-0.149 0.333-0.333s-0.149-0.333-0.333-0.333h-2.6c-0.184 0-0.333 0.149-0.333 0.333s0.149 0.333 0.333 0.333z"></path>
<path d="M2.927 12.223c-0.065 0.084 0.052 0.203 0.118 0.118 0.207-0.268 0.378-0.556 0.521-0.86 0.089 0.056 0.206 0.045 0.302 0.007 0.138-0.055 0.256-0.16 0.367-0.255 0.066-0.056 0.143-0.149 0.234-0.158 0.070-0.007 0.164 0.050 0.234 0.061 0.182 0.031 0.395-0.022 0.571-0.065 0.167-0.041 0.363-0.106 0.461-0.258 0.059-0.090-0.086-0.174-0.144-0.084-0.079 0.121-0.271 0.159-0.401 0.191-0.152 0.038-0.329 0.075-0.486 0.048-0.118-0.020-0.214-0.092-0.336-0.038-0.163 0.073-0.288 0.225-0.432 0.328-0.064 0.046-0.138 0.090-0.219 0.097-0.033 0.003-0.060-0.010-0.083-0.030 0.018-0.041 0.035-0.082 0.052-0.124 0.163-0.403 0.236-0.813 0.311-1.238 0.038-0.216 0.102-0.556-0.207-0.577-0.274-0.018-0.51 0.376-0.597 0.584-0.078 0.186-0.087 0.402-0.081 0.6 0.004 0.124 0.048 0.252 0.081 0.38-0.262 0.042-0.494 0.307-0.453 0.57 0.040 0.259 0.363 0.125 0.484 0.029 0.122-0.097 0.162-0.218 0.163-0.348 0.024 0.040 0.045 0.088 0.066 0.133-0.141 0.316-0.317 0.616-0.527 0.888zM3.219 11.28c-0.025 0.11-0.164 0.218-0.273 0.229-0.086 0.008-0.034-0.146-0.017-0.18 0.053-0.108 0.186-0.179 0.297-0.209 0.005 0.054 0.004 0.108-0.007 0.161zM3.358 10.957c-0.028-0.133-0.068-0.266-0.078-0.386-0.020-0.233 0.022-0.476 0.137-0.679 0.072-0.127 0.219-0.322 0.375-0.338 0.139-0.015 0.054 0.324 0.042 0.391-0.037 0.21-0.064 0.418-0.116 0.625-0.048 0.193-0.109 0.383-0.182 0.57-0.039-0.097-0.089-0.158-0.178-0.183z"></path>
</svg>
