<?xml version="1.0" encoding="utf-8"?>
<!-- Generated by IcoMoon.io -->
<!DOCTYPE svg PUBLIC "-//W3C//DTD SVG 1.1//EN" "http://www.w3.org/Graphics/SVG/1.1/DTD/svg11.dtd">
<svg version="1.1" xmlns="http://www.w3.org/2000/svg" xmlns:xlink="http://www.w3.org/1999/xlink" width="14" height="14" viewBox="0 0 14 14">
<path d="M13.917 10.431c0.033-0.058 0.041-0.13 0.003-0.194-0.681-1.15-2.327-0.724-3.217-0.047-0.275-0.318-0.56-0.634-0.85-0.949 0.11-0.068 0.222-0.13 0.336-0.189 0.191-0.099 0.419-0.118 0.591-0.247 0.167-0.126 0.175-0.41-0.062-0.47-0.412-0.106-0.894 0.197-1.264 0.478-0.407-0.429-0.829-0.852-1.258-1.265 0.583-0.412 1.211-0.561 1.983-0.737 0.257-0.059 0.238-0.431 0-0.5-0.859-0.248-1.763 0.266-2.432 0.812-0.572-0.533-1.161-1.044-1.758-1.53 0.656-0.62 1.422-0.758 2.214-1.126 0.228-0.106 0.086-0.408-0.116-0.427-0.914-0.090-1.88 0.612-2.511 1.223-0.186-0.146-0.372-0.292-0.56-0.432 0.794-0.846 1.333-1.962 1.618-3.176 0.057-0.242-0.149-0.397-0.338-0.387-0.005-0.027-0.014-0.055-0.034-0.081-0.493-0.671-1.725-0.954-2.504-1.052-1.122-0.142-2.221 0.004-3.035 0.849-1.238 1.286-0.879 4.874 0.991 5.434 0.047 0.014 0.092-0.004 0.123-0.035 0.015 0.002 0.029 0.006 0.046 0.005 1.153-0.123 2.104-0.591 2.857-1.284 0.178 0.16 0.352 0.325 0.526 0.49-0.598 0.713-0.978 1.641-1.105 2.546-0.027 0.193 0.24 0.28 0.3 0.083 0.261-0.854 0.619-1.596 1.183-2.261 0.538 0.532 1.064 1.083 1.592 1.634-0.664 0.708-1.122 1.631-1.341 2.561-0.044 0.185 0.24 0.325 0.321 0.135 0.351-0.82 0.81-1.582 1.414-2.24 0.007-0.008 0.015-0.015 0.023-0.024 0.412 0.426 0.827 0.848 1.255 1.252-0.396 0.396-0.698 0.876-0.878 1.409-0.072 0.213 0.267 0.358 0.365 0.154 0.219-0.461 0.544-0.848 0.918-1.188 0.361 0.325 0.731 0.638 1.115 0.929-0.583 0.453-0.884 1.142-0.791 1.891 0.081 0.648 0.679 1.516 1.417 1.435 0.056-0.006 0.101-0.030 0.134-0.063 0.095 0.080 0.27 0.070 0.326-0.086 0.274-0.769 0.417-1.557 0.358-2.367 0.7-0.033 1.427-0.172 2.007-0.569 0.165-0.113 0.144-0.294 0.038-0.393zM1.824 5.935c-0.068 0.017-0.111 0.063-0.136 0.117-1.167-1.158-1.548-3.606-0.39-4.831 0.649-0.686 1.785-0.644 2.629-0.489 0.752 0.139 1.362 0.622 2.077 0.79 0.007 0.002 0.014 0.001 0.020 0.001-0.601 2.245-1.903 3.82-4.201 4.411zM11.594 10.889c-0.181 0.005-0.272 0.159-0.247 0.324 0.117 0.782 0.015 1.567-0.184 2.327-0.003-0.002-0.004-0.004-0.007-0.007-0.505-0.343-0.856-0.47-1-1.13-0.137-0.624 0.19-1.251 0.603-1.689 0.022-0.024 0.032-0.051 0.037-0.079 0.018-0.021 0.033-0.045 0.045-0.072 0.416-0.279 0.85-0.472 1.361-0.506s0.862 0.214 1.284 0.388c-0.621 0.262-1.199 0.425-1.891 0.444z"></path>
<path d="M4.375 2.286c-0.224-0.062-0.454-0.023-0.685-0.023-0.037 0-0.074-0.004-0.111-0.005-0.101-0.189-0.227-0.377-0.379-0.52-0.138-0.13-0.317 0.062-0.203 0.203 0.072 0.090 0.127 0.19 0.171 0.296-0.141-0.013-0.281-0.029-0.421-0.050-0.249-0.038-0.357 0.306-0.106 0.385 0.217 0.068 0.434 0.109 0.657 0.139 0.031 0.174 0.052 0.35 0.077 0.513 0.047 0.305 0.545 0.229 0.533-0.072-0.005-0.126-0.042-0.255-0.090-0.38 0.192 0.017 0.386 0.019 0.558-0.028 0.227-0.063 0.227-0.395 0-0.458z"></path>
</svg>
