<?xml version="1.0" encoding="utf-8"?>
<!-- Generated by IcoMoon.io -->
<!DOCTYPE svg PUBLIC "-//W3C//DTD SVG 1.1//EN" "http://www.w3.org/Graphics/SVG/1.1/DTD/svg11.dtd">
<svg version="1.1" xmlns="http://www.w3.org/2000/svg" xmlns:xlink="http://www.w3.org/1999/xlink" width="14" height="14" viewBox="0 0 14 14">
<path d="M7 11.676c2.57 0 4.676-2.105 4.676-4.676s-2.105-4.676-4.676-4.676-4.676 2.105-4.676 4.676 2.105 4.676 4.676 4.676zM7 1.176c3.227 0 5.824 2.598 5.824 5.824s-2.598 5.824-5.824 5.824-5.824-2.598-5.824-5.824 2.598-5.824 5.824-5.824zM4.074 5.551c0-0.492 0.383-0.875 0.875-0.875s0.875 0.383 0.875 0.875-0.383 0.875-0.875 0.875-0.875-0.383-0.875-0.875zM8.176 5.551c0-0.492 0.383-0.875 0.875-0.875s0.875 0.383 0.875 0.875-0.383 0.875-0.875 0.875-0.875-0.383-0.875-0.875zM5.25 8.176h3.5v0.875h-3.5v-0.875z"></path>
</svg>
