<?xml version="1.0" encoding="utf-8"?>
<!-- Generated by IcoMoon.io -->
<!DOCTYPE svg PUBLIC "-//W3C//DTD SVG 1.1//EN" "http://www.w3.org/Graphics/SVG/1.1/DTD/svg11.dtd">
<svg version="1.1" xmlns="http://www.w3.org/2000/svg" xmlns:xlink="http://www.w3.org/1999/xlink" width="14" height="14" viewBox="0 0 14 14">
<path d="M4.318 3.143h4.32c0.114 0 0.205-0.092 0.205-0.206s-0.092-0.206-0.205-0.206h-4.32c-0.114 0-0.206 0.092-0.206 0.206s0.092 0.206 0.206 0.206z"></path>
<path d="M0.455 5.153h4.32c0.114 0 0.206-0.092 0.206-0.206s-0.092-0.205-0.206-0.205h-4.32c-0.114 0-0.206 0.092-0.206 0.205s0.092 0.206 0.206 0.206z"></path>
<path d="M1.615 7.267c0 0.114 0.092 0.206 0.206 0.206h4.32c0.114 0 0.206-0.092 0.206-0.206s-0.092-0.205-0.206-0.205h-4.32c-0.114 0-0.206 0.092-0.206 0.205z"></path>
<path d="M4.087 9.656h-3.881c-0.114 0-0.206 0.092-0.206 0.205s0.092 0.206 0.206 0.206h3.881c0.114 0 0.206-0.092 0.206-0.206s-0.092-0.205-0.206-0.205z"></path>
<path d="M11.070 4.432c0.62 0 1.122-0.503 1.122-1.123s-0.503-1.123-1.122-1.123c-0.62 0-1.123 0.503-1.123 1.123s0.503 1.123 1.123 1.123z"></path>
<path d="M12.917 4.109c-0.645 0.903-1.508 1.007-2.436 0.456-0.063-0.037-0.344-0.192-0.406-0.229-1.494-0.887-2.987-0.539-3.987 0.862-0.425 0.596 0.558 1.161 0.979 0.572 0.517-0.724 1.175-0.934 1.894-0.704-0.368 0.639-0.69 1.274-1.144 2.177s-1.458 1.623-2.422 1.060c-0.696-0.407-1.323 0.593-0.629 0.998 1.316 0.769 2.859 0.297 3.647-0.703 0.027 0.015 0.056 0.028 0.088 0.039 0.644 0.224 1.487 0.821 1.744 1.033s0.698 1.289 0.961 1.831c0.318 0.657 1.345 0.178 1.026-0.481-0.297-0.614-0.796-1.84-1.185-2.151-0.312-0.249-0.918-0.712-1.432-0.975 0.348-0.673 0.71-1.34 1.091-1.994 1.215 0.372 2.369-0.066 3.192-1.218 0.426-0.596-0.558-1.161-0.979-0.572z"></path>
</svg>
