<?xml version="1.0" encoding="utf-8"?>
<!-- Generated by IcoMoon.io -->
<!DOCTYPE svg PUBLIC "-//W3C//DTD SVG 1.1//EN" "http://www.w3.org/Graphics/SVG/1.1/DTD/svg11.dtd">
<svg version="1.1" xmlns="http://www.w3.org/2000/svg" xmlns:xlink="http://www.w3.org/1999/xlink" width="14" height="14" viewBox="0 0 14 14">
<path d="M9.469 4.623h-1.063v-1.311h-1.058v-0.8c0.52-0.010 1.041-0.043 1.563-0.099 0.576-0.328 0.576-0.557 0-0.885-0.522-0.056-1.043-0.088-1.563-0.099v-0.246h-0.695v0.246c-0.52 0.010-1.041 0.043-1.563 0.099-0.576 0.328-0.576 0.557 0 0.885 0.522 0.056 1.043 0.088 1.563 0.099v0.8h-1.058v1.311h-1.063v0.761h4.937v-0.761zM6.258 3.976h1.484v0.647h-1.484v-0.647z"></path>
<path d="M11.655 8.998h-2.199c-0.326-0.007-0.589-0.274-0.589-0.601v-0.856c0-0.332 0.27-0.602 0.602-0.602v-0.858h-4.937v0.858c0.332 0 0.602 0.27 0.602 0.602v0.856c0 0.328-0.263 0.594-0.589 0.601h-2.199v-0.516h-0.824v4.333h0.824v-0.527h9.309v0.527h0.824v-4.333h-0.824v0.516z"></path>
<path d="M13.176 8.482h0.824v4.333h-0.824v-4.333z"></path>
<path d="M0 8.482h0.824v4.333h-0.824v-4.333z"></path>
<path d="M8.572 10.002c0.017 0.717-0.657 1.299-1.467 1.299s-1.614-0.598-1.467-1.299c0.137-0.655 1.813-3.359 1.433-2.844-0.354 0.48 1.485 2.141 1.501 2.844z"></path>
<path d="M7.157 7.173c-0.071-0.007-0.127-0.046-0.174-0.097-0.025-0.019-0.059-0.087-0.094-0.055 1.061-0.276 0.321-0.21 0.395-0.039 0.019 0.037 0.059 0.062 0.093 0.084 0.046 0.014 0.085 0.039 0.126 0.063 0.006 0.005 0.012 0.011 0.018 0.016 0 0-0.418 0.141-0.418 0.141v0c-0.005-0.004-0.010-0.007-0.016-0.011-0.041-0.025-0.087-0.040-0.127-0.066-0.040-0.031-0.083-0.060-0.102-0.11-0.077-0.233 0.261-0.205 0.438-0.25 0.043 0.021 0.072 0.056 0.105 0.090 0.046 0.043 0.097 0.068 0.162 0.064 0 0-0.407 0.168-0.407 0.168z"></path>
</svg>
