<?xml version="1.0" encoding="utf-8"?>
<!-- Generated by IcoMoon.io -->
<!DOCTYPE svg PUBLIC "-//W3C//DTD SVG 1.1//EN" "http://www.w3.org/Graphics/SVG/1.1/DTD/svg11.dtd">
<svg version="1.1" xmlns="http://www.w3.org/2000/svg" xmlns:xlink="http://www.w3.org/1999/xlink" width="14" height="14" viewBox="0 0 14 14">
<path d="M3.418 11.512v-3.691l2.023 4.867h-0.848c-0.629 0-1.176-0.547-1.176-1.176zM4.594 5.113c0.328 0 0.574-0.273 0.574-0.602s-0.246-0.574-0.574-0.574-0.574 0.246-0.574 0.574 0.246 0.602 0.574 0.602zM12.852 9.297c0.246 0.602-0.027 1.285-0.629 1.531l-4.293 1.777c-0.137 0.055-0.301 0.082-0.465 0.082-0.465 0-0.875-0.273-1.066-0.711l-2.898-7c-0.055-0.164-0.082-0.301-0.082-0.465 0-0.438 0.273-0.848 0.711-1.039l4.32-1.777c0.164-0.055 0.301-0.082 0.465-0.082 0.438 0 0.848 0.273 1.039 0.711zM1.477 11.457c-0.602-0.246-0.875-0.902-0.629-1.504l1.422-3.418v5.25z"></path>
</svg>
