<?xml version="1.0" encoding="utf-8"?>
<!-- Generated by IcoMoon.io -->
<!DOCTYPE svg PUBLIC "-//W3C//DTD SVG 1.1//EN" "http://www.w3.org/Graphics/SVG/1.1/DTD/svg11.dtd">
<svg version="1.1" xmlns="http://www.w3.org/2000/svg" xmlns:xlink="http://www.w3.org/1999/xlink" width="14" height="14" viewBox="0 0 14 14">
<path d="M7.041 0.257c-2.595 0-4.888 1.537-5.888 3.883h-0.676l-0.477 1.772h0.799c-0.108 0.466-0.163 0.944-0.163 1.431 0 3.531 2.873 6.404 6.404 6.404s6.404-2.873 6.404-6.404c0-0.487-0.055-0.965-0.163-1.431h0.799l-0.545-1.703h-0.608c-0.284-0.365-1.543-4.028-5.887-3.952zM1.922 5.912h10.236c0.13 0.463 0.196 0.942 0.196 1.431 0 2.93-2.384 5.314-5.314 5.314s-5.314-2.384-5.314-5.314c0-0.489 0.066-0.968 0.196-1.431zM9.136 5.985v0zM4.758 6.005v0zM5.255 6.757l-0.469 0.492-0.462-0.48-0.26 0.16 0.516 0.535-0.544 0.569 0.261 0.159 0.49-0.513 0.502 0.521 0.26-0.16-0.556-0.578 0.523-0.547-0.261-0.159zM9.8 6.757l-0.469 0.492-0.462-0.48-0.26 0.16 0.516 0.535-0.543 0.569 0.261 0.159 0.49-0.513 0.502 0.521 0.26-0.16-0.556-0.578 0.523-0.547-0.261-0.159zM7.040 9.285c-1.039 0-1.883 0.659-1.883 1.47h0.341c0-0.622 0.692-1.128 1.542-1.128s1.542 0.506 1.542 1.128h0.341c0-0.81-0.845-1.47-1.884-1.47z"></path>
</svg>
