<?xml version="1.0" encoding="utf-8"?>
<!-- Generated by IcoMoon.io -->
<!DOCTYPE svg PUBLIC "-//W3C//DTD SVG 1.1//EN" "http://www.w3.org/Graphics/SVG/1.1/DTD/svg11.dtd">
<svg version="1.1" xmlns="http://www.w3.org/2000/svg" xmlns:xlink="http://www.w3.org/1999/xlink" width="14" height="14" viewBox="0 0 14 14">
<path d="M7 2.461c1.211 0 2.352 0.473 3.21 1.329s1.329 1.999 1.329 3.21c0 1.211-0.473 2.352-1.329 3.21-0.859 0.856-1.999 1.329-3.21 1.329s-2.352-0.473-3.21-1.329c-0.856-0.859-1.329-1.999-1.329-3.21s0.473-2.352 1.329-3.21 1.999-1.329 3.21-1.329zM7 1.367c-3.112 0-5.633 2.521-5.633 5.633s2.521 5.633 5.633 5.633 5.633-2.521 5.633-5.633-2.521-5.633-5.633-5.633zM7 4.681c1.28 0 2.319 1.042 2.319 2.319s-1.042 2.319-2.319 2.319-2.319-1.042-2.319-2.319c0-1.28 1.039-2.319 2.319-2.319zM7 3.587c-1.884 0-3.413 1.529-3.413 3.413s1.529 3.412 3.413 3.412 3.412-1.529 3.412-3.412-1.529-3.413-3.412-3.413zM7 5.756c-0.664 0-1.203 0.539-1.203 1.203s0.539 1.203 1.203 1.203 1.203-0.539 1.203-1.203-0.539-1.203-1.203-1.203z"></path>
</svg>
