<?xml version="1.0" encoding="utf-8"?>
<!-- Generated by IcoMoon.io -->
<!DOCTYPE svg PUBLIC "-//W3C//DTD SVG 1.1//EN" "http://www.w3.org/Graphics/SVG/1.1/DTD/svg11.dtd">
<svg version="1.1" xmlns="http://www.w3.org/2000/svg" xmlns:xlink="http://www.w3.org/1999/xlink" width="14" height="14" viewBox="0 0 14 14">
<path d="M10.758 11.179h0.809c0.248 0 0.449-0.201 0.449-0.449v-8.643c0-0.619-0.502-1.122-1.122-1.122h-2.463v-0.64h-2.862v0.64h-2.463c-0.619 0-1.122 0.502-1.122 1.122v8.643c0 0.248 0.201 0.449 0.449 0.449h0.809l-3.242 2.496h2.084l2.54-2.496h4.751l2.54 2.496h2.084l-3.242-2.496zM9.375 9.764c0-0.38 0.308-0.687 0.687-0.687s0.687 0.308 0.687 0.687c0 0.38-0.308 0.687-0.687 0.687s-0.687-0.308-0.687-0.687zM3.985 10.452c-0.38 0-0.687-0.308-0.687-0.687s0.308-0.687 0.687-0.687c0.38 0 0.687 0.308 0.687 0.687s-0.308 0.687-0.687 0.687zM3.325 6.898c-0.124 0-0.224-0.1-0.224-0.224v-4.344c0-0.124 0.1-0.224 0.224-0.224h7.35c0.124 0 0.224 0.1 0.224 0.224v4.344c0 0.124-0.1 0.224-0.224 0.224h-7.35z"></path>
</svg>
