<?xml version="1.0" encoding="utf-8"?>
<!-- Generated by IcoMoon.io -->
<!DOCTYPE svg PUBLIC "-//W3C//DTD SVG 1.1//EN" "http://www.w3.org/Graphics/SVG/1.1/DTD/svg11.dtd">
<svg version="1.1" xmlns="http://www.w3.org/2000/svg" xmlns:xlink="http://www.w3.org/1999/xlink" width="14" height="14" viewBox="0 0 14 14">
<path d="M10.5 0.875c1.447 0 2.625 1.178 2.625 2.625v2.625h-1.75v-2.625c0-0.482-0.393-0.875-0.875-0.875h-1.75c-0.482 0-0.875 0.393-0.875 0.875v2.625h0.219c0.361 0 0.656 0.295 0.656 0.656v6.563c0 0.361-0.295 0.656-0.656 0.656h-7.438c-0.361 0-0.656-0.295-0.656-0.656v-6.563c0-0.361 0.295-0.656 0.656-0.656h5.469v-2.625c0-1.447 1.178-2.625 2.625-2.625h1.75z"></path>
</svg>
