<?xml version="1.0" encoding="utf-8"?>
<!-- Generated by IcoMoon.io -->
<!DOCTYPE svg PUBLIC "-//W3C//DTD SVG 1.1//EN" "http://www.w3.org/Graphics/SVG/1.1/DTD/svg11.dtd">
<svg version="1.1" xmlns="http://www.w3.org/2000/svg" xmlns:xlink="http://www.w3.org/1999/xlink" width="35" height="14" viewBox="0 0 35 14">
<path d="M4.703 2.316c0.003-0.012 0.005-0.020 0.005-0.025l0.014-0.103-0.647-0.004c-0.585-0.003-0.764 0-0.78 0.015-0.008 0.007-0.21 0.774-0.57 2.164-0.172 0.663-0.316 1.192-0.321 1.176s-0.21-0.772-0.457-1.681c-0.246-0.909-0.453-1.658-0.459-1.664-0.009-0.009-0.793-0.012-1.428-0.007-0.092 0.001-0.143-0.179 0.821 2.887 0.133 0.424 0.333 1.025 0.444 1.335 0.128 0.357 0.219 0.633 0.281 0.864 0.11 0.438 0.114 0.713 0.090 1.034-0.028 0.371-0.032 2.986-0.005 3.030 0.021 0.033 1.247 0.049 1.363 0.017 0.019-0.005 0.031-0.023 0.039-0.122 0.029-0.085 0.031-0.423 0.031-1.829v-1.795l0.079-0.248c0.051-0.162 0.18-0.588 0.287-0.946s0.235-0.788 0.286-0.954c0.463-1.508 0.904-2.992 0.916-3.076l0.009-0.069z"></path>
<path d="M11.568 4.493l-0 0.093-0.015 0-0.008 2.584-0.008 2.505-0.201 0.204c-0.225 0.229-0.404 0.316-0.567 0.275-0.177-0.044-0.173 0.025-0.188-2.936l-0.014-2.725h-1.289v0.094h-0.015v2.957c0 3.168-0 3.166 0.161 3.485 0.128 0.253 0.315 0.377 0.634 0.419h0c0.421 0.056 0.875-0.135 1.296-0.544l0.183-0.178v0.307c0 0.265 0.008 0.309 0.056 0.322 0.079 0.022 1.055 0.023 1.161 0.002l0.087-0.018v-0.091l0.015-0.003v-6.769l-1.288 0.017z"></path>
<path d="M8.297 5.829c-0.122-0.524-0.351-0.877-0.728-1.12-0.592-0.383-1.268-0.423-1.895-0.113-0.457 0.226-0.751 0.6-0.903 1.15-0.018 0.065-0.031 0.12-0.041 0.203-0.039 0.194-0.043 0.483-0.053 1.831-0.015 2.077 0.008 2.324 0.269 2.796 0.255 0.463 0.785 0.802 1.361 0.872 0.174 0.021 0.525-0.012 0.728-0.068 0.46-0.128 0.9-0.491 1.095-0.903 0.084-0.178 0.135-0.302 0.166-0.528 0.057-0.309 0.061-0.809 0.061-2.083-0-1.625-0.005-1.803-0.059-2.035zM6.827 10.063c-0.108 0.082-0.297 0.118-0.451 0.085-0.118-0.025-0.278-0.211-0.327-0.38-0.061-0.211-0.066-3.144-0.013-3.72 0.087-0.288 0.331-0.438 0.597-0.367 0.207 0.056 0.313 0.186 0.374 0.457 0.045 0.202 0.050 0.453 0.041 1.931-0.006 0.98-0.010 1.459-0.042 1.717-0.033 0.162-0.086 0.206-0.178 0.276z"></path>
<path d="M31.451 7.303h0.623l-0.010-0.564c-0.010-0.518-0.017-0.577-0.086-0.717-0.109-0.222-0.27-0.32-0.526-0.32-0.307 0-0.501 0.148-0.593 0.453-0.039 0.13-0.080 1.021-0.051 1.098 0.016 0.043 0.106 0.051 0.643 0.051z"></path>
<path d="M27.286 6.019c-0.083-0.167-0.238-0.25-0.417-0.243-0.14 0.005-0.295 0.064-0.444 0.178l-0.111 0.084v4.055l0.111 0.084c0.252 0.192 0.529 0.233 0.719 0.105 0.075-0.050 0.125-0.12 0.163-0.231 0.050-0.144 0.054-0.328 0.048-2.034-0.007-1.778-0.011-1.883-0.069-1.999z"></path>
<path d="M35.012 4.192c-0.124-1.488-0.223-1.971-0.53-2.591-0.406-0.822-0.994-1.255-1.83-1.35-0.647-0.074-3.080-0.177-5.333-0.227-3.899-0.087-10.309 0.080-11.128 0.289-0.378 0.097-0.662 0.261-0.957 0.555-0.517 0.515-0.826 1.253-0.95 2.275-0.283 2.333-0.289 5.151-0.016 7.568 0.117 1.040 0.359 1.715 0.812 2.272 0.283 0.347 0.77 0.643 1.207 0.731 0.306 0.062 1.838 0.148 4.069 0.228 0.332 0.012 1.212 0.033 1.955 0.046 1.549 0.028 4.397 0.011 6.025-0.034 1.095-0.031 3.093-0.112 3.466-0.141 0.105-0.008 0.348-0.024 0.541-0.034 0.646-0.037 1.058-0.172 1.444-0.475 0.5-0.393 0.887-1.118 1.050-1.969 0.155-0.805 0.258-2.239 0.279-3.867 0.018-1.36-0.006-2.094-0.104-3.273zM19.486 3.653l-0.724 0.009-0.032 7.727-0.628 0.008c-0.486 0.007-0.633-0.001-0.645-0.032-0.008-0.022-0.019-1.764-0.023-3.871l-0.008-3.831-1.415-0.018v-1.207l4.181 0.017 0.018 1.19-0.724 0.009zM23.929 8.082v3.323h-1.145v-0.35c0-0.263-0.010-0.35-0.041-0.35-0.022 0-0.126 0.087-0.231 0.193-0.226 0.23-0.495 0.415-0.723 0.501-0.474 0.177-0.924 0.074-1.116-0.256-0.176-0.302-0.179-0.37-0.179-3.505v-2.879h1.144l0.009 2.711c0.009 2.664 0.010 2.712 0.074 2.821 0.085 0.144 0.213 0.182 0.418 0.126 0.121-0.033 0.203-0.092 0.398-0.286l0.246-0.245v-5.126h1.145v3.323zM28.393 10.929c-0.101 0.225-0.325 0.444-0.51 0.499-0.481 0.142-0.866 0.026-1.312-0.392-0.138-0.13-0.267-0.235-0.286-0.235-0.023 0-0.036 0.102-0.036 0.302v0.302h-1.145v-8.967h1.145v1.463c0 0.804 0.011 1.463 0.024 1.463s0.134-0.107 0.268-0.236c0.309-0.299 0.568-0.429 0.896-0.454 0.585-0.044 0.934 0.257 1.094 0.945 0.050 0.215 0.055 0.46 0.055 2.448-0 2.422-0 2.432-0.194 2.864zM33.236 9.6c-0.010 0.249-0.040 0.535-0.068 0.636-0.159 0.59-0.583 1.008-1.195 1.179-0.825 0.231-1.732-0.147-2.095-0.872-0.203-0.407-0.211-0.488-0.211-2.477 0-1.622 0.006-1.821 0.058-2.042 0.147-0.626 0.511-1.031 1.128-1.256 0.179-0.065 0.365-0.099 0.551-0.102 0.665-0.014 1.326 0.344 1.603 0.927 0.187 0.393 0.21 0.561 0.229 1.669l0.017 0.994-2.44 0.017-0.009 0.668c-0.013 0.942 0.051 1.232 0.305 1.403 0.214 0.144 0.542 0.133 0.721-0.024 0.168-0.147 0.215-0.305 0.232-0.767l0.015-0.405h1.178l-0.019 0.453z"></path>
</svg>
