<?xml version="1.0" encoding="iso-8859-1"?>
<!-- Generator: Adobe Illustrator 16.0.0, SVG Export Plug-In . SVG Version: 6.00 Build 0)  -->
<!DOCTYPE svg PUBLIC "-//W3C//DTD SVG 1.1//EN" "http://www.w3.org/Graphics/SVG/1.1/DTD/svg11.dtd">
<svg version="1.1" id="Capa_1" xmlns="http://www.w3.org/2000/svg" xmlns:xlink="http://www.w3.org/1999/xlink" x="0px" y="0px"
	 width="60.181px" height="60.181px" viewBox="0 0 60.181 60.181" style="enable-background:new 0 0 60.181 60.181;"
	 xml:space="preserve">
<g>
	<path d="M59.212,51.856L38.957,16.739V4.39c0.688-0.301,1.108-0.638,1.108-0.996c0-1.226-4.462-2.218-9.974-2.218
		s-9.974,0.992-9.974,2.218c0,0.356,0.421,0.694,1.11,0.996v12.35L0.971,51.856c-2.273,3.933-0.417,7.148,4.124,7.148h49.994
		C59.627,59.005,61.482,55.789,59.212,51.856z M41.841,45.868c-1.827-0.972-4.263,0.384-4.913,1.111
		c-1.978,2.217,1.39,4.197-1.113,5.603c-1.699,0.96-4.51-1.52-6.491-2.064c-1.092-0.301-2.415,1.088-4.166,1.385
		c-2.827,0.479-1.676-2.756-1.229-4.853c0.24-1.124-3.592-3.1-6.596-3.218c-2.509-0.099-3.348-1.487-2.804-2.658
		c0.542-1.179,2.313-1.525,3.985,0.295c1.946,2.116,5.665,2.531,6.541,1.562c1.235-1.364-2.152-5.112-4.401-6.885
		c-1.625-1.281-1.34-2.869-0.418-3.538c1.311-0.938,3.073-0.027,2.83,1.69c-0.341,2.397,3.903,6.52,5.604,6.086
		c1.202-0.303,2.744-5.826,1.75-8.253c-0.824-2.004,0.647-3.557,1.829-3.65c1.244-0.096,2.93,2.034,1.007,4.422
		c-1.674,2.08-2.454,7.84-0.533,8.524c1.515,0.543,4.678-2.235,6.161-5.087c1.126-2.167,2.664-2.286,3.479-1.362
		c1.061,1.202,0.526,2.988-1.923,3.475c-2.092,0.41-5.148,4.138-4.595,5.273c0.534,1.095,2.771,1.195,5.092,0.176
		c2.475-1.084,4.471-1.316,4.817,0.271C46.141,45.965,44.536,47.304,41.841,45.868z"/>
</g>
<g>
</g>
<g>
</g>
<g>
</g>
<g>
</g>
<g>
</g>
<g>
</g>
<g>
</g>
<g>
</g>
<g>
</g>
<g>
</g>
<g>
</g>
<g>
</g>
<g>
</g>
<g>
</g>
<g>
</g>
</svg>
