<?xml version="1.0" encoding="UTF-8" standalone="no"?>
<!-- Created with Inkscape (http://www.inkscape.org/) -->

<svg
   xmlns:dc="http://purl.org/dc/elements/1.1/"
   xmlns:cc="http://creativecommons.org/ns#"
   xmlns:rdf="http://www.w3.org/1999/02/22-rdf-syntax-ns#"
   xmlns:svg="http://www.w3.org/2000/svg"
   xmlns="http://www.w3.org/2000/svg"
   xmlns:sodipodi="http://sodipodi.sourceforge.net/DTD/sodipodi-0.dtd"
   xmlns:inkscape="http://www.inkscape.org/namespaces/inkscape"
   width="210mm"
   height="297mm"
   viewBox="0 0 744.09448819 1052.3622047"
   id="svg2"
   version="1.1"
   inkscape:version="0.91 r13725"
   sodipodi:docname="1005_dam_destruction.svg">
  <defs
     id="defs4" />
  <sodipodi:namedview
     id="base"
     pagecolor="#ffffff"
     bordercolor="#666666"
     borderopacity="1.0"
     inkscape:pageopacity="0.0"
     inkscape:pageshadow="2"
     inkscape:zoom="1.4"
     inkscape:cx="97.368266"
     inkscape:cy="537.67407"
     inkscape:document-units="px"
     inkscape:current-layer="layer1"
     showgrid="false"
     inkscape:window-width="1920"
     inkscape:window-height="1137"
     inkscape:window-x="-8"
     inkscape:window-y="-8"
     inkscape:window-maximized="1"
     inkscape:snap-text-baseline="true" />
  <metadata
     id="metadata7">
    <rdf:RDF>
      <cc:Work
         rdf:about="">
        <dc:format>image/svg+xml</dc:format>
        <dc:type
           rdf:resource="http://purl.org/dc/dcmitype/StillImage" />
        <dc:title />
      </cc:Work>
    </rdf:RDF>
  </metadata>
  <g
     inkscape:label="Layer 1"
     inkscape:groupmode="layer"
     id="layer1">
    <g
       id="g3377"
       transform="matrix(1.8082593,0,0,1.8443272,272.69029,358.85432)"
       style="fill:#000000">
      <g
         id="g3337"
         style="fill:#000000">
        <path
           id="path3339"
           d="m 106.048,56.204 0,19.609 c -2.361,-1.01 -5.178,-2.661 -5.882,-4.878 -0.928,-2.791 -2.134,-8.389 2.94,-8.834 0,0 -6.399,-7.467 -11.785,2.951 -4.07,7.938 -6.959,11.402 -8.834,11.781 l -2.946,0 c -1.869,-0.451 -4.8,-2.543 -5.888,-5.889 -0.927,-2.796 -2.133,-8.388 2.941,-8.844 0,0 -6.4,-7.462 -11.785,2.957 -4.086,7.938 -6.954,11.407 -8.834,11.78 l -2.946,0 c -1.872,-0.45 -4.803,-2.548 -5.891,-5.894 -0.924,-2.791 -2.128,-8.388 2.946,-8.833 0,0 -6.41,-7.467 -11.785,2.951 -4.088,7.938 -6.957,11.402 -8.834,11.78 l -2.954,0 c -1.856,-0.45 -4.797,-2.543 -5.885,-5.888 -0.914,-2.796 -2.139,-8.389 2.946,-8.844 0,0 -6.416,-7.462 -11.785,2.956 C 8.829,70.78 3.472,74.146 0,75.735 L 0,47.897 C 6.664,24.992 23.796,5.649 41.241,5.649 c 8.935,0 15.407,1.973 17.676,5.901 2.175,3.671 2.257,10.452 -2.952,11.778 -2.175,0.557 -7.5,-0.966 -8.826,-2.949 -0.924,-1.383 -2.762,-2.307 0,-5.89 -15.335,-3.912 -26.688,33.352 8.837,38.3 4.712,-18.041 18.6,-32.405 32.399,-32.405 6.877,0 10.04,2.858 11.791,5.888 1.651,2.825 1.04,7.832 -2.952,8.839 -1.678,0.451 -5.069,-1.294 -5.893,-2.938 -0.818,-1.654 -0.642,-4.696 2.951,-5.9 C 81.887,23.1 73.354,54.526 106.048,56.204 Z M 20.627,76.833 c 0,0 -6.416,-7.473 -11.788,2.945 C 6.638,84.046 3.107,86.988 0,88.882 l 0,11.517 106.048,0 0,-8.839 c -1.874,-0.451 -7.752,-2.543 -8.834,-5.889 -0.922,-2.806 -2.123,-8.388 2.952,-8.838 0,0 -6.4,-7.473 -11.791,2.945 -4.075,7.943 -6.965,11.408 -8.834,11.786 l -2.946,0 c -1.869,-0.45 -4.806,-2.538 -5.893,-5.888 -0.922,-2.802 -2.123,-8.389 2.951,-8.839 0,0 -6.41,-7.467 -11.79,2.951 -4.086,7.943 -6.955,11.402 -8.834,11.78 l -2.949,0 c -1.872,-0.45 -4.803,-2.543 -5.89,-5.888 -0.917,-2.807 -2.125,-8.389 2.949,-8.839 0,0 -6.41,-7.472 -11.782,2.946 -4.094,7.933 -6.957,11.397 -8.845,11.771 l -2.943,0 c -1.859,-0.451 -4.803,-2.543 -5.891,-5.889 -0.911,-2.803 -2.136,-8.385 2.949,-8.836 z"
           style="fill:#000000"
           inkscape:connector-curvature="0" />
      </g>
      <g
         id="g3341"
         style="fill:#000000" />
      <g
         id="g3343"
         style="fill:#000000" />
      <g
         id="g3345"
         style="fill:#000000" />
      <g
         id="g3347"
         style="fill:#000000" />
      <g
         id="g3349"
         style="fill:#000000" />
      <g
         id="g3351"
         style="fill:#000000" />
      <g
         id="g3353"
         style="fill:#000000" />
      <g
         id="g3355"
         style="fill:#000000" />
      <g
         id="g3357"
         style="fill:#000000" />
      <g
         id="g3359"
         style="fill:#000000" />
      <g
         id="g3361"
         style="fill:#000000" />
      <g
         id="g3363"
         style="fill:#000000" />
      <g
         id="g3365"
         style="fill:#000000" />
      <g
         id="g3367"
         style="fill:#000000" />
      <g
         id="g3369"
         style="fill:#000000" />
    </g>
    <text
       xml:space="preserve"
       style="font-style:normal;font-variant:normal;font-weight:normal;font-stretch:normal;font-size:40px;line-height:125%;font-family:sans-serif;-inkscape-font-specification:'sans-serif, Normal';text-align:start;letter-spacing:0px;word-spacing:0px;writing-mode:lr-tb;text-anchor:start;fill:#000000;fill-opacity:1;stroke:none;stroke-width:1px;stroke-linecap:butt;stroke-linejoin:miter;stroke-opacity:1"
       x="345"
       y="564.50507"
       id="text3466"
       sodipodi:linespacing="125%"><tspan
         sodipodi:role="line"
         id="tspan3468"
         x="345"
         y="564.50507" /></text>
  </g>
</svg>
