<?xml version="1.0" encoding="iso-8859-1"?>
<!-- Generator: Adobe Illustrator 16.0.0, SVG Export Plug-In . SVG Version: 6.00 Build 0)  -->
<!DOCTYPE svg PUBLIC "-//W3C//DTD SVG 1.1//EN" "http://www.w3.org/Graphics/SVG/1.1/DTD/svg11.dtd">
<svg version="1.1" id="Capa_1" xmlns="http://www.w3.org/2000/svg" xmlns:xlink="http://www.w3.org/1999/xlink" x="0px" y="0px"
	 width="70.4px" height="70.399px" viewBox="0 0 70.4 70.399" style="enable-background:new 0 0 70.4 70.399;" xml:space="preserve"
	>
<g>
	<path d="M55.061,6.138C43.132-2.034,27.273-2.047,15.333,6.107c-2.478-1.42-5.689-1.1-7.803,1.014L7.122,7.529
		c-2.113,2.112-2.434,5.325-1.014,7.803c-8.153,11.943-8.142,27.803,0.031,39.729c-1.461,2.484-1.148,5.732,0.982,7.864l0.408,0.408
		c2.131,2.132,5.377,2.443,7.864,0.983c8.249,5.611,18.444,7.458,28.244,5.046c4.099-1.008,7.916-2.713,11.376-5.073
		c2.49,1.493,5.771,1.188,7.913-0.957l0.407-0.408c2.145-2.145,2.45-5.422,0.955-7.913c2.362-3.458,4.067-7.276,5.076-11.374
		c2.41-9.803,0.563-19.997-5.05-28.246c1.461-2.485,1.148-5.733-0.981-7.865l-0.407-0.408C60.794,4.989,57.548,4.678,55.061,6.138z
		 M59.752,10.295l0.407,0.408c0.776,0.777,0.776,2.041,0.004,2.82l-10.689,10.68l-0.015,0.011c-0.792,0.758-2.018,0.748-2.788-0.023
		l-0.407-0.408c-0.765-0.764-0.771-2.021-0.04-2.776l10.707-10.714C57.71,9.517,58.974,9.517,59.752,10.295z M50.011,41.509
		c-2.229-0.706-4.745-0.187-6.514,1.583l-0.406,0.406c-1.77,1.771-2.289,4.283-1.583,6.515c-0.798,0.343-1.613,0.632-2.447,0.838
		c-3.368,0.828-6.954,0.515-10.137-0.813c0.7-2.238,0.191-4.787-1.561-6.539l-0.407-0.406c-1.769-1.77-4.343-2.275-6.602-1.542
		c-1.737-4.034-1.754-8.6-0.044-12.647c2.259,0.755,4.853,0.255,6.646-1.539l0.407-0.406c1.794-1.794,2.296-4.386,1.538-6.646
		c4.045-1.709,8.609-1.693,12.643,0.042c-0.731,2.253-0.228,4.83,1.547,6.604l0.406,0.406c1.746,1.748,4.287,2.26,6.535,1.554
		c1.332,3.184,1.645,6.772,0.816,10.143C50.644,39.895,50.353,40.71,50.011,41.509z M13.521,60.162
		c-0.778,0.776-2.041,0.776-2.819-0.001l-0.407-0.408c-0.777-0.776-0.777-2.042-0.004-2.821L20.973,46.26l0.012-0.012
		c0.778-0.757,2.035-0.748,2.799,0.016l0.408,0.408c0.771,0.771,0.781,1.996,0.057,2.754l-4.652,4.659L13.521,60.162z M51.648,9.227
		l-7.419,7.42c-5.688-2.783-12.335-2.796-18.038-0.033l-7.428-7.428C28.768,2.868,41.659,2.882,51.648,9.227z M10.294,10.702
		l0.407-0.408c0.778-0.777,2.044-0.777,2.824,0.001l6.104,6.104l4.562,4.563c0.775,0.778,0.775,2.044-0.001,2.82l-0.408,0.408
		c-0.775,0.775-2.041,0.777-2.816,0.006l-0.01-0.011l-10.661-10.66C9.518,12.748,9.518,11.481,10.294,10.702z M9.188,18.766
		l7.425,7.425c-2.762,5.704-2.75,12.349,0.035,18.039l-7.421,7.419C2.883,41.659,2.869,28.771,9.188,18.766z M18.828,61.209
		l7.431-7.431c4.284,2.042,9.248,2.567,13.875,1.43c1.388-0.34,2.738-0.83,4.035-1.461l7.422,7.422
		c-2.774,1.756-5.801,3.043-9.023,3.836C34.368,67.022,25.855,65.634,18.828,61.209z M60.161,59.753l-0.408,0.408
		c-0.778,0.777-2.044,0.777-2.824-0.001L46.351,49.583l-0.123-0.142c-0.739-0.792-0.725-2.01,0.036-2.77l0.407-0.408
		c0.707-0.708,1.795-0.741,2.578-0.157l10.932,10.854C60.931,57.743,60.929,58.985,60.161,59.753z M65.005,42.568
		c-0.792,3.223-2.079,6.249-3.836,9.022l-7.424-7.422c0.632-1.297,1.121-2.649,1.463-4.037c1.139-4.627,0.61-9.59-1.433-13.874
		l7.433-7.433C65.633,25.855,67.021,34.369,65.005,42.568z"/>
</g>
<g>
</g>
<g>
</g>
<g>
</g>
<g>
</g>
<g>
</g>
<g>
</g>
<g>
</g>
<g>
</g>
<g>
</g>
<g>
</g>
<g>
</g>
<g>
</g>
<g>
</g>
<g>
</g>
<g>
</g>
</svg>
