<?xml version="1.0" encoding="UTF-8" standalone="no"?>
<!-- Generator: Adobe Illustrator 16.0.0, SVG Export Plug-In . SVG Version: 6.00 Build 0)  -->

<svg
   xmlns:dc="http://purl.org/dc/elements/1.1/"
   xmlns:cc="http://creativecommons.org/ns#"
   xmlns:rdf="http://www.w3.org/1999/02/22-rdf-syntax-ns#"
   xmlns:svg="http://www.w3.org/2000/svg"
   xmlns="http://www.w3.org/2000/svg"
   xmlns:sodipodi="http://sodipodi.sourceforge.net/DTD/sodipodi-0.dtd"
   xmlns:inkscape="http://www.inkscape.org/namespaces/inkscape"
   version="1.1"
   id="Capa_1"
   x="0px"
   y="0px"
   width="535.5px"
   height="535.5px"
   viewBox="0 0 535.5 535.5"
   style="enable-background:new 0 0 535.5 535.5;"
   xml:space="preserve"
   inkscape:version="0.91 r13725"
   sodipodi:docname="flag.svg"><metadata
   id="metadata45"><rdf:RDF><cc:Work
       rdf:about=""><dc:format>image/svg+xml</dc:format><dc:type
         rdf:resource="http://purl.org/dc/dcmitype/StillImage" /></cc:Work></rdf:RDF></metadata><defs
   id="defs43" /><sodipodi:namedview
   pagecolor="#ffffff"
   bordercolor="#666666"
   borderopacity="1"
   objecttolerance="10"
   gridtolerance="10"
   guidetolerance="10"
   inkscape:pageopacity="0"
   inkscape:pageshadow="2"
   inkscape:window-width="1366"
   inkscape:window-height="706"
   id="namedview41"
   showgrid="false"
   inkscape:zoom="0.88141923"
   inkscape:cx="168.42671"
   inkscape:cy="254.14422"
   inkscape:window-x="-8"
   inkscape:window-y="-8"
   inkscape:window-maximized="1"
   inkscape:current-layer="Capa_1" />
<g
   id="g3">
	<g
   id="g5">
		<polygon
   points="200.812,221.85 449.438,114.75 181.688,0 181.688,124.312 181.688,459 200.812,459   "
   id="polygon7" />
		<path
   d="M267.75,363.375c-17.212,0-32.513,0-47.812,1.912v61.2c11.475,5.737,19.125,13.388,19.125,22.95    c0,15.3-21.038,28.688-47.812,28.688s-47.812-13.388-47.812-28.688c0-9.562,7.65-17.213,19.125-22.95v-53.55    c-68.85,15.3-114.75,42.075-114.75,76.5c0,47.812,97.538,86.062,219.938,86.062c122.4,0,219.938-38.25,219.938-86.062    S390.15,363.375,267.75,363.375z M344.25,459c-15.3,0-28.688-7.65-28.688-19.125s13.388-19.125,28.688-19.125    s28.688,7.65,28.688,19.125S359.55,459,344.25,459z"
   id="path9" />
	</g>
</g>
<g
   id="g11">
</g>
<g
   id="g13">
</g>
<g
   id="g15">
</g>
<g
   id="g17">
</g>
<g
   id="g19">
</g>
<g
   id="g21">
</g>
<g
   id="g23">
</g>
<g
   id="g25">
</g>
<g
   id="g27">
</g>
<g
   id="g29">
</g>
<g
   id="g31">
</g>
<g
   id="g33">
</g>
<g
   id="g35">
</g>
<g
   id="g37">
</g>
<g
   id="g39">
</g>
<ellipse
   style="fill:#000000"
   id="path3373"
   cx="346.03284"
   cy="448.70816"
   rx="32.901482"
   ry="33.46875" /><text
   xml:space="preserve"
   style="font-style:normal;font-variant:normal;font-weight:normal;font-stretch:normal;font-size:70px;line-height:1000%;font-family:sans-serif;-inkscape-font-specification:'sans-serif, Normal';text-align:start;letter-spacing:0px;word-spacing:0px;writing-mode:lr-tb;text-anchor:start;fill:#ffffff;fill-opacity:1;stroke:none;stroke-width:1px;stroke-linecap:butt;stroke-linejoin:miter;stroke-opacity:1;"
   x="225.77225"
   y="138.41315"
   id="text3375"
   sodipodi:linespacing="1000%"><tspan
     sodipodi:role="line"
     id="tspan3377"
     x="225.77225"
     y="138.41315" /></text>
<path
   style="fill:#ffff00;fill-rule:evenodd;stroke:#000000;stroke-width:1px;stroke-linecap:butt;stroke-linejoin:miter;stroke-opacity:1"
   d="M 209.88877,181.52542 208.75424,39.708686 388.01059,114.58792 Z"
   id="path3379"
   inkscape:connector-curvature="0" /><path
   style="fill:#ffff00"
   d="m 210.18541,110.5517 c -0.19151,-37.907614 -0.34166,-69.014572 -0.33366,-69.126574 0.0237,-0.332254 173.32332,72.189804 173.91175,72.778244 0.29664,0.29664 -0.93544,1.10153 -2.73797,1.78864 -36.63816,13.96624 -168.90495,63.48262 -169.57301,63.48262 -0.50539,0 -1.07559,-31.01532 -1.26711,-68.92293 z"
   id="path3381"
   inkscape:connector-curvature="0" /><text
   xml:space="preserve"
   style="font-style:normal;font-variant:normal;font-weight:normal;font-stretch:normal;font-size:70px;line-height:1000%;font-family:sans-serif;-inkscape-font-specification:'sans-serif, Normal';text-align:start;letter-spacing:0px;word-spacing:0px;writing-mode:lr-tb;text-anchor:start;fill:#000000;fill-opacity:1;stroke:none;stroke-width:1px;stroke-linecap:butt;stroke-linejoin:miter;stroke-opacity:1"
   x="232.57945"
   y="142.95126"
   id="text3383"
   sodipodi:linespacing="1000%"><tspan
     sodipodi:role="line"
     id="tspan3385"
     x="232.57945"
     y="142.95126"></tspan></text>
<text
   xml:space="preserve"
   style="font-style:normal;font-variant:normal;font-weight:normal;font-stretch:normal;font-size:70px;line-height:1000%;font-family:sans-serif;-inkscape-font-specification:'sans-serif, Normal';text-align:start;letter-spacing:0px;word-spacing:0px;writing-mode:lr-tb;text-anchor:start;fill:#000000;fill-opacity:1;stroke:none;stroke-width:1px;stroke-linecap:butt;stroke-linejoin:miter;stroke-opacity:1"
   x="231.44492"
   y="139.54767"
   id="text3387"
   sodipodi:linespacing="1000%"><tspan
     sodipodi:role="line"
     id="tspan3389"
     x="231.44492"
     y="139.54767">лю</tspan></text>
</svg>