<?xml version="1.0" encoding="iso-8859-1"?>
<!-- Generator: Adobe Illustrator 16.0.0, SVG Export Plug-In . SVG Version: 6.00 Build 0)  -->
<!DOCTYPE svg PUBLIC "-//W3C//DTD SVG 1.1//EN" "http://www.w3.org/Graphics/SVG/1.1/DTD/svg11.dtd">
<svg version="1.1" id="Capa_1" xmlns="http://www.w3.org/2000/svg" xmlns:xlink="http://www.w3.org/1999/xlink" x="0px" y="0px"
	 width="194.285px" height="194.285px" viewBox="0 0 194.285 194.285" style="enable-background:new 0 0 194.285 194.285;"
	 xml:space="preserve">
<g>
	<path d="M193.133,144.76c0.456-0.8,0.565-1.803,0.042-2.686c-9.451-15.954-32.292-10.041-44.648-0.655
		c-3.812-4.417-7.77-8.804-11.789-13.169c1.523-0.938,3.087-1.81,4.66-2.623c2.649-1.371,5.82-1.64,8.198-3.428
		c2.316-1.743,2.422-5.686-0.854-6.526c-5.717-1.469-12.413,2.729-17.536,6.627c-5.653-5.96-11.499-11.818-17.464-17.557
		c8.095-5.714,16.812-7.789,27.522-10.228c3.567-0.812,3.308-5.986,0-6.938c-11.918-3.435-24.468,3.686-33.747,11.265
		c-7.94-7.391-16.108-14.482-24.401-21.227c9.102-8.606,19.734-10.518,30.729-15.633c3.168-1.474,1.199-5.656-1.607-5.932
		c-12.688-1.243-26.083,8.5-34.849,16.968c-2.582-2.027-5.167-4.046-7.77-5.991C80.64,55.281,88.117,39.795,92.073,22.954
		c0.789-3.361-2.067-5.511-4.685-5.366c-0.069-0.379-0.2-0.759-0.473-1.131C80.071,7.152,62.978,3.222,52.172,1.853
		C36.599-0.12,21.344,1.906,10.057,13.633C-7.121,31.482-2.137,81.271,23.806,89.038c0.652,0.194,1.272-0.053,1.707-0.487
		c0.213,0.025,0.403,0.09,0.642,0.064c16.006-1.702,29.205-8.204,39.644-17.823c2.467,2.214,4.886,4.504,7.298,6.805
		c-8.293,9.888-13.574,22.78-15.339,35.331c-0.378,2.683,3.327,3.886,4.164,1.148c3.619-11.85,8.592-22.144,16.423-31.372
		c7.469,7.38,14.77,15.025,22.086,22.673c-9.213,9.82-15.574,22.628-18.613,35.547c-0.605,2.571,3.324,4.509,4.452,1.877
		c4.874-11.376,11.247-21.952,19.627-31.091c0.104-0.114,0.21-0.214,0.314-0.327c5.715,5.914,11.478,11.764,17.41,17.378
		c-5.501,5.491-9.68,12.15-12.184,19.56c-0.999,2.957,3.708,4.971,5.059,2.134c3.042-6.392,7.549-11.774,12.744-16.493
		c5.004,4.517,10.141,8.847,15.472,12.896c-8.089,6.29-12.274,15.852-10.976,26.247c1.122,8.987,9.418,21.043,19.668,19.916
		c0.773-0.085,1.396-0.417,1.863-0.868c1.317,1.117,3.751,0.967,4.521-1.198c3.8-10.674,5.79-21.603,4.963-32.845
		c9.708-0.455,19.799-2.392,27.854-7.89C194.901,148.654,194.608,146.135,193.133,144.76z M25.309,82.361
		c-0.942,0.242-1.546,0.871-1.893,1.628C7.222,67.92,1.936,33.949,18.009,16.948c9.002-9.522,24.777-8.941,36.485-6.784
		c10.438,1.923,18.903,8.634,28.827,10.968c0.093,0.021,0.188,0.007,0.282,0.019C75.268,52.302,57.192,74.158,25.309,82.361z
		 M160.892,151.119c-2.512,0.066-3.769,2.202-3.426,4.496c1.624,10.856,0.205,21.74-2.55,32.287
		c-0.038-0.027-0.059-0.062-0.099-0.091c-7.007-4.754-11.877-6.521-13.881-15.681c-1.895-8.66,2.635-17.364,8.362-23.439
		c0.311-0.329,0.448-0.708,0.511-1.092c0.252-0.291,0.461-0.631,0.618-0.997c5.773-3.868,11.794-6.551,18.886-7.018
		c7.099-0.467,11.965,2.963,17.821,5.38C178.513,148.6,170.5,150.86,160.892,151.119z"/>
	<path d="M60.715,31.729c-3.102-0.856-6.305-0.319-9.513-0.314c-0.512,0.001-1.022-0.055-1.534-0.064
		c-1.404-2.628-3.156-5.231-5.262-7.211c-1.914-1.799-4.396,0.854-2.818,2.818c1,1.245,1.767,2.633,2.376,4.104
		c-1.954-0.177-3.906-0.397-5.845-0.696c-3.456-0.532-4.956,4.252-1.472,5.338c3.012,0.938,6.028,1.509,9.118,1.929
		c0.432,2.418,0.715,4.854,1.069,7.125c0.659,4.228,7.561,3.183,7.392-1c-0.071-1.748-0.579-3.537-1.25-5.28
		c2.658,0.23,5.351,0.264,7.739-0.395C63.864,37.215,63.859,32.599,60.715,31.729z"/>
</g>
<g>
</g>
<g>
</g>
<g>
</g>
<g>
</g>
<g>
</g>
<g>
</g>
<g>
</g>
<g>
</g>
<g>
</g>
<g>
</g>
<g>
</g>
<g>
</g>
<g>
</g>
<g>
</g>
<g>
</g>
</svg>
