<?xml version="1.0" encoding="iso-8859-1"?>
<!-- Generator: Adobe Illustrator 19.0.0, SVG Export Plug-In . SVG Version: 6.00 Build 0)  -->
<svg version="1.1" id="Capa_1" xmlns="http://www.w3.org/2000/svg" xmlns:xlink="http://www.w3.org/1999/xlink" x="0px" y="0px"
	 viewBox="0 0 117.293 117.293" style="enable-background:new 0 0 117.293 117.293;" xml:space="preserve">
<g id="_x30_204-spooky-werewolf">
	<g>
		<path style="fill-rule:evenodd;clip-rule:evenodd;" d="M50.566,28.613c2.698,0.256,5.641,0.996,7.993,2.368
			c0.413,0.241,0.841,0.406,1.26,0.678c0.686,0.446,1.191,1.146,1.761,1.72c0.679,0.685,1.399,1.338,1.954,2.133
			c1.099,1.567,2.085,3.21,3.181,4.779c1.807,2.586,4.474,5.098,5.442,8.155c-0.878-0.566-2.25-0.865-3.272-0.622
			c-1.244,0.296-1.312,1.688-0.269,2.339c1.362,0.85,2.662,2.183,4.149,2.772c0.508,0.202,1.019,0.436,1.535,0.612
			c1.011,0.344,2.034,0.4,2.996,0.856c1.634,0.775,3.304,1.636,5.032,2.126c1.908,0.541,3.407,1.836,5.231,2.559
			c3.562,1.411,7.356,2.239,10.799,3.952c-2.222,2.324-4.875,4.115-8.053,4.806c-3.83,0.833-8.446,0.168-12.369,0.168
			c-2.168,0-3.436-0.406-4.216,1.896c-0.364,1.072-0.527,2.341-0.83,3.481c-0.417,1.566,2.52,1.611,3.407,1.643
			c0.878,0.031,1.752,0.027,2.611-0.114c7.823-1.276,15.596-3.259,22.415-7.421c0.492-0.301,0.987-0.652,1.501-0.923
			c0.411-0.216,0.831-0.5,1.174-0.817c0.544-0.5,0.761-1.222,0.869-1.934c0.422-2.781-1.477-5.081-4.062-5.764
			c-0.761-0.201-1.532-0.406-2.21-0.816c-0.213-0.129-0.977-0.64-0.87-0.944c0.083-0.237,0.949-0.164,1.152-0.213
			c1.343-0.32,2.587-1.314,3.774-1.979c1.45-0.813,0.225-4.117-0.546-5.384c-0.815-1.339-4.102-1.969-5.569-2.687
			c-1.618-0.792-3.213-1.637-4.874-2.34c-3.915-1.657-8.314-1.795-12.508-1.272c-1.173,0.146-2.34,0.379-3.463,0.752
			c-1.129,0.375-1.305,1.043-1.986-0.149c-0.882-1.544-1.767-3.086-2.691-4.605c-2.106-3.462-4.435-6.838-7.378-9.647
			c-1.384-1.32-3.067-3.058-4.995-3.297c-1.551-0.192-3.46-0.295-4.873-0.846c-1.247-0.486-3.176-0.006-4.163-1.061
			c0.127-1.582-0.071-3.183-0.789-4.613c-0.495-0.987-1.205-1.839-1.942-2.653c-0.613-0.677-0.949-1.234-1.965-1.228
			c-0.512,0.003-1.357,0.409-1.657-0.101c-0.024-0.039-0.044-0.085-0.06-0.137c-0.171-0.542-0.017-1.095-0.172-1.639
			c-0.153-0.534-0.398-1.046-0.675-1.525c-0.595-1.027-1.398-1.916-2.251-2.735c-1.681-1.615-3.631-2.946-5.206-4.67
			c-1.782-1.952-3.15-3.831-5.907-4.185c-2.751-0.353-4.077,0.309-5.281,2.821c-1.893,3.949-4.757,7.559-6.364,11.712
			c-0.947,2.448-1.981,4.97-1.228,7.627c1.785,0.923,4.057-0.362,5.97,0c-0.38,1.503-4.083,11.424,1.194,8.655
			c0.717-0.376,4.314-1.745,3.469,0.025c-0.792,1.661-1.898,3.139-2.231,4.991c-0.678,3.77,7.756,0.018,7.195,4.468
			c-0.204,1.62-0.383,3.822-1.866,4.628c-1.252,0.68-1.831,1.886-3.449,1.774c0.734-2.044,1.281-3.612,0.508-5.683
			c-0.575-1.543-4.296-1.53-5.814-1.613c0.32-1.207,1.938-5.735,0.721-6.601c-1.138-0.808-2.839-0.006-4.094-0.489
			c-1.522-0.585-0.32-2.471,0.095-3.485c0.527-1.286,1.151-4.003,0.292-5.345c-1.875-0.721-4.461,1.13-5.779,0.247
			c-1.369-0.918-3.336-0.541-4.831-0.224c-1.824,0.387-2.988,1.937-3.743,3.643c-0.912,2.06-0.305,3.295,0.51,5.201
			c0.78,1.822,1.914,3.463,3.168,4.902c1.423,1.634,2.225,3.604,3.377,5.466c2.364,4.121,4.207,8.526,5.698,13.031
			c1.359,4.111-0.149,8.379-1.817,12.219c-0.354,0.813-1.038,2.141-0.035,2.66c0.694,0.358,1.943,0.812,2.702,0.486
			c0.712-0.306,1.108-1.2,1.349-1.866c0.237-0.656,0.538-1.226,1.003-1.773c0.53,0.626,0.021,2.407-0.126,3.126
			c-0.277,1.351-0.833,2.622-1.338,3.898c-0.425,1.073-1.031,1.986-1.592,2.991c-0.612,1.099-1.965,2.439-1.543,3.82
			c0.409,1.338,2.094,1.057,3.04,0.533c0.478-0.265,0.933-0.571,1.375-0.892c0.268-0.195,0.394-0.514,0.621-0.748
			c0.184-0.191,0.477-0.601,0.761-0.608c0.559-0.014-2.154,8.473-2.467,9.295c-0.516,1.357-3.16,5.526-2.324,6.895
			c0.693,2.474,4.224,0.479,5.664,0.527c0.029,0.001,0.041,0.023,0.053,0.045c0.145,0.242-0.107,0.864-0.17,1.099
			c-0.183,0.689-0.41,1.366-0.643,2.038c-0.536,1.539-1.092,3.125-1.815,4.582c-0.361,0.727-0.626,1.519-1.11,2.176
			c-0.49,0.666-1.015,1.311-1.51,1.975c-0.773,1.035-2.148,2.718-0.701,3.77c0.547,0.398,1.249,0.115,1.855,0.301
			c0.632,0.194,0.963,0.368,1.69,0.197c2.429-0.57,5.801,0.244,7.962-1.094c0.405-0.252,1.013-0.664,0.969-1.218
			c-0.034-0.446-0.485-0.755-0.832-0.964c-0.997-0.601-2.268-1.027-3.398-1.274c-0.423-0.093-0.51-0.255-0.195-0.604
			c0.278-0.308,0.483-0.635,0.687-1c0.468-0.84,0.854-1.727,1.158-2.64c0.605-1.818,0.896-3.755,0.792-5.671
			c-0.019-0.335-0.049-0.67-0.093-1.002c-0.228-1.737-0.388-3.934-1.741-5.224c-1.166-0.234-1.856,0.799-2.985,0.663
			c2.425-5.41,3.98-10.967,3.98-16.915c0-0.852-0.065-5.845-2.292-3.618c-0.436,0.437-0.432,1.236-0.587,1.798
			c-0.073,0.263-0.164,0.585-0.392,0.759c-0.186,0.141-0.693,0.259-0.765-0.017c-0.034-0.132,0.047-0.251,0.104-0.361
			c0.203-0.397,0.466-0.783,0.591-1.209c0.138-0.47,0.238-0.951,0.314-1.434c0.155-0.988,0.201-1.992,0.19-2.993
			c-0.021-2.026-0.277-4.04-0.419-6.06c-0.039-0.554-0.068-1.11-0.079-1.665c-0.039-2.069-0.946-3.832-1.005-5.878
			c-0.037-1.353-0.622-1.453-1.325-2.512c-0.482-0.727-0.665-1.756-0.973-2.564c-1.591-4.173-3.742-7.751-5.957-11.524
			c-0.957-1.629-2.308-3.005-3.373-4.562c-0.823-1.204-1.812-2.706-1.631-4.241c0.113-0.97,0.862-0.607,1.605-0.388
			c0.814,0.24,1.587,0.602,2.337,0.995c1.334,0.701,1.417,0.995,2.056,2.351c0.974,2.064,2.341,3.911,3.307,5.979
			c1.681,3.594,2.452,6.854,5.102,9.988c0.643,0.759,2.078,1.392,3.101,1.614c0.758,0.165,1.222-0.244,1.754,0.396
			c0.348,0.419,0.719,0.799,1.278,0.911c2.492,0.502,5.432-1.557,5.955-3.998c0.738-3.427,1.57-7.187,0.442-10.625
			c-1.054-3.211-1.175-6.606-3.116-9.487c-1.609-2.387-2.635-5.119-4.495-7.371c-1.921-2.327-4.381-3.88-4.05-7.299
			c0.725-1.923,4.554-5.805,6.13-2.908c1.075,1.976,1.342,2.43,3.347,3.38c1.529,0.725,3.129,0.524,4.784,0.524
			c1.423,0,1.566-0.217,1.712,1.669c0.135,1.748-0.374,3.455-0.626,5.168c-0.2,1.355,1.806,2.454,3.049,1.61
			c0.896-0.608,0.539-2.031,1.144-2.836c0.587-0.779,2.342,1.299,2.652,1.905c0.743,1.454,0.088,2.757-0.603,4.062
			c-0.655,1.239-1.358,3.683,0.823,3.601C47.46,28.741,48.896,28.453,50.566,28.613z M97.277,50.452
			c0.413-0.112,0.569,0.142,0.894,0.302c0.46,0.225,1.001,0.363,1.514,0.347c0.05-0.002-0.268,0.597-0.313,0.649
			c-0.2,0.223-0.473,0.33-0.74,0.45c-0.314,0.143-0.909,0.424-1.253,0.202c-0.067-0.043-0.125-0.106-0.169-0.193
			C96.973,51.742,97.186,50.933,97.277,50.452z M94.985,50.383c0.036,0.496,0.083,1.112,0.279,1.569
			c0.221,0.516,0.624,0.907,0.772,1.471c-0.683-0.046-2.057,0.633-2.571,0.232c-0.152-0.118-0.229-0.331-0.191-0.685
			c0.069-0.644-0.207-1.26-0.467-1.842c-0.274-0.615-0.609-1.2-0.879-1.817c-0.089-0.204-0.471-1.832-0.536-1.858
			C92.588,47.939,94.877,48.891,94.985,50.383z M88.782,47.232c0.172,1.127-0.116,2.267,0.259,3.338
			c0.416,1.186,0.97,2.32,1.357,3.517c0.013,0.041-1.228-0.449-1.336-0.503c-0.331-0.163-0.79-0.182-1.06-0.402
			c-0.06-0.049-0.112-0.105-0.156-0.165c-0.267-0.366-0.257-0.911-0.285-1.337c-0.042-0.643-0.285-1.152-0.516-1.759
			c-0.134-0.352-1.603-4.127-1.622-4.125C86.584,45.652,88.556,45.746,88.782,47.232z M81.444,45.463
			c1.687,0,1.643,1.222,1.99,2.654c0.522,1.082,1.126,2.112,1.326,3.316c-0.587-0.275-1.555-0.486-2.004-0.982
			c-0.091-0.1-0.16-0.213-0.201-0.339c-0.252-0.785-0.05-1.524-0.407-2.271C82.065,47.671,81.242,45.463,81.444,45.463z
			 M78.459,46.126c0.112,1.043,0.373,2.12,0.994,2.985c0.144,0.2-1.097,0.321-1.289,0.222c-0.414-0.214-0.666-0.715-0.915-1.082
			c-0.129-0.189-0.252-0.45-0.427-0.599c-0.186-0.158-0.572-0.19-0.699-0.391c-0.023-0.038-0.043-0.074-0.058-0.108
			C75.606,46.132,78.473,46.268,78.459,46.126z M19.503,19.727c-0.332,0.019-1.05,0.321-1.342,0.122
			c-0.016-0.011-0.031-0.024-0.045-0.038c-0.391-0.417,0.329-1.847,0.479-2.264c0.153-0.428,0.285-0.871,0.453-1.292
			c0.386-0.97,1.001-0.006,1.224,0.53c0.341,0.821,0.403,1.883,1.143,2.478C20.873,19.703,20.161,19.69,19.503,19.727z
			 M15.776,28.549c0.026-0.085-0.965-1.558-1.064-1.791c-0.155-0.362-0.287-0.526-0.118-0.753c0.026-0.034,0.056-0.068,0.094-0.105
			c0.326-0.314,1.349-0.432,1.753-0.336C16.149,26.543,16.066,27.569,15.776,28.549z M19.752,36.838
			c-0.155,0.344-0.401,0.361-0.808-0.42c-0.306-0.585-0.242-1.303-0.515-1.899c0.553,0,1.105,0,1.658,0
			C20.007,34.519,20.03,36.215,19.752,36.838z M24.122,45.196c-0.046,0.034-0.093,0.063-0.138,0.085
			c-1.078,0.527-1.757-1.812-1.972-2.455c-0.19-0.566-0.614-1.056,0.188-1.104c0.547-0.032,0.98,0.273,1.483,0.411
			c0.46,0.126,0.949,0.081,1.379,0.346C25.278,42.612,24.383,45.004,24.122,45.196z M28.111,33.26
			c0.114-0.248,0.942-2.239,1.38-2.01c0.687,0.363,1.374,3.804,1.541,4.595c-0.913-0.397-1.93-0.264-2.887-0.44
			c-0.336-0.063-0.535-0.171-0.641-0.31C27.157,34.634,27.849,33.834,28.111,33.26z M23.523,26.065
			c0.064-0.203,0.583-2.474,0.544-2.491c1.368,0.604,1.657,2.333,2.985,2.984c-1.072,0.952-2.651,1.024-3.97,1.375
			c0-0.016-0.001-0.033-0.002-0.049C23.048,27.135,23.307,26.74,23.523,26.065z M61.807,40.376c-0.5-0.505-1.048-0.956-1.59-1.413
			c-1.66-1.403-3.087-3.154-4.45-4.836c-0.828-1.021-1.575-2.397-2.826-2.961c-1.024-0.463-2.8,0.126-3.378,1.089
			c-0.673,1.119-0.917,2.315-0.955,3.594c-0.044,1.466-0.464,2.972-0.209,4.434c0.209,1.199,1.186,2.22,1.923,3.133
			c0.453,0.561,0.737,0.853,1.369,1.177c0.695,0.357,1.197,0.854,1.957,1.097c0.508,0.163,1.016,0.309,1.541,0.414
			c1.176,0.235,2.396,0.329,3.593,0.231c1.302-0.107,2.764-0.49,3.668-1.5c0.453-0.506,0.724-1.279,0.746-2.025
			c0.012-0.41-0.052-0.813-0.203-1.158C62.766,41.133,62.202,40.773,61.807,40.376z M52.916,41.823
			c-0.012-0.008-0.023-0.015-0.035-0.022c-1.128-0.732-1.234-2.151-1.345-3.368c-0.093-1.02-0.016-2.033,0.01-3.054
			c0.007-0.274-0.342-1.285,0.072-1.372c0.384-0.081,0.838,0.931,0.963,1.181c0.256,0.518,0.435,1.07,0.684,1.59
			c0.204,0.427,0.876,0.999,0.984,1.387c0.439,1.585,1.944,2.697,2.3,4.289C55.362,42.08,54.024,42.516,52.916,41.823z
			 M42.432,61.019c-0.1-0.604-0.168-1.222-0.479-1.758c-0.025-0.042-0.051-0.083-0.078-0.124c-0.489-0.725-2.167-1.441-2.628-0.316
			c-0.499,1.219-0.737,1.901-0.414,3.342c0.466,2.086,0.95,4.16,1.429,6.242c0.187,0.815,0.548,1.657,1.444,1.873
			c1.568,0.376,1.809-0.852,1.888-2.117c0.102-1.65-0.027-3.66-0.557-5.238C42.817,62.272,42.549,61.723,42.432,61.019z
			 M33.081,81.306c0.8-0.776,0.98-1.99,1.015-3.05c0.04-1.243-0.127-2.477-0.314-3.703c-0.146-0.961-0.042-2.034-0.607-2.875
			c-0.026-0.04-0.055-0.078-0.087-0.115c-0.654-0.778-2.281-1.007-2.926-0.107c-0.464,0.647-0.501,1.983-0.519,2.736
			c-0.051,2.112,0.22,4.072,0.727,6.094C30.64,81.372,32.182,82.179,33.081,81.306z M106.318,95.211
			c1.179-0.584,2.301-1.565,3.149-2.559c0.542-0.636,0.642-1.04,0.793-1.822c0.167-0.874,0.709-1.681,0.594-2.602
			c-0.315-2.521-4.167-2.867-6.015-3.478c-0.555-0.183-1.172-0.316-1.663-0.646c-0.163-0.109-1.107-1.193-1.169-1.164
			c1.706-0.514,4.118-1.07,4.955-2.855c1.356-2.894-1.679-3.16-3.729-3.125c-2.439,0.043-4.78-0.566-6.871-1.84
			c-1.24-0.755-2.516-2.568-4.013-2.806c-0.365-0.058-0.621,0.021-0.791,0.186c-0.557,0.54-0.184,1.996,0.306,2.506
			c0.723,0.752,1.206,1.188,2.064,1.987c0.887,0.825,2.231,1.802,3.39,2.122c0.953,0.262,2.436,0.222,3.03,1.171
			c-1.553,0.414-3.434,0.924-4.104,2.571c-0.713,1.755,1.276,2.595,2.658,2.855c0.953,0.179,1.8,0.644,2.634,1.118
			c0.412,0.234,0.824,0.469,1.255,0.666c0.447,0.204,0.91,0.328,1.351,0.543c0.279,0.134,0.475,0.375,0.744,0.512
			c0.344,0.174,0.754,0.252,1.127,0.34c0.369,0.088,0.817,0.124,1.167,0.266c0.036,0.015,0.839,0.328,0.454,0.516
			c-0.68,0.333-1.406,0.937-1.965,1.458c-0.796,0.742-1.702,1.406-2.556,2.061c-0.747,0.573-1.511,1.328-1.439,2.351
			c0.395,3.482,4.508,3.314,6.301,5.638c-0.77,0.446-1.745,0.685-2.306,1.425c-0.7,0.923-0.583,2.336,0.736,2.511
			c2.37,0.316,4.033-1.114,5.959-2.197C117.83,99.844,108.028,96.624,106.318,95.211z M54.438,84.951
			c0.2-1.217,0.336-2.452,0.364-3.687c0.01-0.468,0.181-1.187,0.126-1.605c-0.11-0.825-1-0.489-1.43-0.074
			c-1.018,0.982-1.171,1.901-1.449,3.244c-0.137,0.66-0.434,2.444-0.953,2.826c-0.636-0.666-0.331-2.005-0.476-2.828
			c-0.235-1.345-0.494-2.695-0.975-3.979c-0.287-0.769-0.849-2.121-1.634-2.525c-0.286-0.147-0.468-0.088-0.585,0.082
			c-0.278,0.407-0.168,1.457-0.15,1.866c0.045,0.994,0.182,1.98,0.399,2.95c0.319,1.419,0.748,2.81,1.085,4.222
			c0.405,1.695-0.077,4.603,1.538,5.757c0.582,0.416,1.21,0.414,1.771-0.027C53.708,89.885,54.126,86.85,54.438,84.951z
			 M40.871,110.823c-1.451-0.333-1.874,0.873-2.932,1.413c-0.215,0.11-0.818,0.475-1.036,0.21c-0.3-0.366,1.121-1.941,1.279-2.333
			c0.39-0.966,0.651-2.011,0.899-3.022c0.492-2.001,0.805-4.042,0.996-6.093c0.159-1.7,0.388-3.726-0.081-5.397
			c-0.173-0.615-0.566-1.573-1.104-1.887c-0.327-0.191-0.708-0.143-1.126,0.366c-0.282,0.344-0.498,2.217-1.096,2.125
			c-1.152-0.178-1.121,3.702-1.178,4.262c-0.24,2.405-0.706,4.776-1.167,7.146c-0.229,1.17-0.452,2.34-0.64,3.517
			c-0.494,0.774-1.072,1.498-1.384,2.375c-0.618,1.736,1.246,4.529,3.135,3.605c1.332-0.651,2.921-1.276,3.848-2.445
			C39.686,114.161,42.64,111.227,40.871,110.823z M78.89,96.026c-0.943-0.614-3.323-0.685-4.149,0.165
			c-0.787,0.811-1.523,2.363-1.888,3.447c-0.689,2.047-0.981,4.27-2.023,6.186c-1.404-2.095-2.718-4.454-3.844-6.709
			c-0.408-0.818-0.885-1.675-1.677-2.18c-0.584-0.373-1.611-0.508-1.916,0.327c-0.146,0.397-0.001,1.052,0.073,1.454
			c0.187,1.014,0.615,1.972,1.092,2.879c0.938,1.787,2.209,3.396,3.065,5.226c1.621,3.466,5.333,4.594,6.824,0.392
			c0.729-2.055,1.742-4.329,3.026-6.1c0.678-0.935,2.914-3.665,1.647-4.905C79.053,96.143,78.977,96.082,78.89,96.026z
			 M90.257,104.24c-0.906-1.502-2.047-5.179-4.127-3.845c-2.182,1.401,0.872,4.934,1.283,6.756c0.873,0.976,1.256,2.758,2.372,3.457
			c0.501,0.314,1.209,0.482,1.799,0.313c0.071-0.021,0.139-0.045,0.206-0.075c0.799-0.361,0.698-1.141,0.596-1.891
			C92.153,107.237,91.135,105.695,90.257,104.24z M108.021,108.809c-1.414-0.991-2.927-1.836-4.218-3.049
			c-1.021-0.959-2.418-3.077-3.676-1.815c-1.568,1.574,0.062,3.786,1.26,5c1.862,1.886,4.32,3.37,6.842,4.174
			c0.641,0.204,1.379,0.442,2.058,0.44c0.52-0.001,1.448-0.266,1.783-0.787c0.051-0.08,0.089-0.167,0.109-0.259
			C112.636,110.373,109.27,109.684,108.021,108.809z M52.456,107.159c-0.18,0.003-0.314,0.051-0.412,0.134
			c-0.572,0.486,0.138,2.144,0.368,2.589c0.562,1.085,1.385,2.018,2.175,2.94c0.49,0.571,3.473,3.876,3.831,1.415
			c0.156-1.068-2.02-3.197-2.697-3.917C54.986,109.535,53.691,107.14,52.456,107.159z"/>
	</g>
</g>
<g>
</g>
<g>
</g>
<g>
</g>
<g>
</g>
<g>
</g>
<g>
</g>
<g>
</g>
<g>
</g>
<g>
</g>
<g>
</g>
<g>
</g>
<g>
</g>
<g>
</g>
<g>
</g>
<g>
</g>
</svg>
