<?xml version="1.0" encoding="UTF-8" standalone="no"?>
<!-- Generator: Adobe Illustrator 16.0.0, SVG Export Plug-In . SVG Version: 6.00 Build 0)  -->

<svg
   xmlns:dc="http://purl.org/dc/elements/1.1/"
   xmlns:cc="http://creativecommons.org/ns#"
   xmlns:rdf="http://www.w3.org/1999/02/22-rdf-syntax-ns#"
   xmlns:svg="http://www.w3.org/2000/svg"
   xmlns="http://www.w3.org/2000/svg"
   xmlns:sodipodi="http://sodipodi.sourceforge.net/DTD/sodipodi-0.dtd"
   xmlns:inkscape="http://www.inkscape.org/namespaces/inkscape"
   version="1.1"
   id="Capa_1"
   x="0px"
   y="0px"
   width="430px"
   height="430px"
   viewBox="0 0 430 430"
   style="enable-background:new 0 0 430 430;"
   xml:space="preserve"
   inkscape:version="0.91 r13725"
   sodipodi:docname="oil.svg"><metadata
   id="metadata49"><rdf:RDF><cc:Work
       rdf:about=""><dc:format>image/svg+xml</dc:format><dc:type
         rdf:resource="http://purl.org/dc/dcmitype/StillImage" /></cc:Work></rdf:RDF></metadata><defs
   id="defs47" /><sodipodi:namedview
   pagecolor="#ffffff"
   bordercolor="#666666"
   borderopacity="1"
   objecttolerance="10"
   gridtolerance="10"
   guidetolerance="10"
   inkscape:pageopacity="0"
   inkscape:pageshadow="2"
   inkscape:window-width="1366"
   inkscape:window-height="706"
   id="namedview45"
   showgrid="false"
   inkscape:zoom="1.0976744"
   inkscape:cx="128.63191"
   inkscape:cy="241.30492"
   inkscape:window-x="-8"
   inkscape:window-y="-8"
   inkscape:window-maximized="1"
   inkscape:current-layer="Capa_1" />
<g
   id="g3">
	<g
   id="g5">
		<path
   d="M290.819,142.003h-32.65v-40.27h-32.494V77.154c15.978-0.313,31.964-1.315,47.998-3.03    c17.703-10.063,17.701-17.105,0-27.167c-16.034-1.716-32.021-2.716-47.998-3.029v-7.547h-21.35v7.547    c-15.977,0.313-31.964,1.313-47.998,3.029c-17.702,10.062-17.702,17.104,0,27.167c16.034,1.715,32.021,2.718,47.998,3.03v24.579    h-32.494v40.27h-32.65v23.383h151.638V142.003L290.819,142.003z M192.216,122.119h45.567v19.885h-45.567V122.119L192.216,122.119z    "
   id="path7" />
		<path
   d="M357.962,276.374h-67.535c-10.01-0.209-18.092-8.402-18.092-18.462V231.61c0-10.195,8.291-18.486,18.483-18.486v-2.967    v-9.021v-14.362H139.181v14.362v9.021v2.967c10.192,0,18.483,8.291,18.483,18.486v26.302c0,10.06-8.082,18.253-18.092,18.462    H72.037V260.52h-25.3v133.098h25.3v-16.186h285.925v16.186h25.3V260.52h-25.3V276.374L357.962,276.374z"
   id="path9" />
		<rect
   x="404.7"
   y="260.52"
   width="25.3"
   height="133.099"
   id="rect11" />
		<rect
   y="260.52"
   width="25.3"
   height="133.099"
   id="rect13" />
	</g>
</g>
<g
   id="g15">
</g>
<g
   id="g17">
</g>
<g
   id="g19">
</g>
<g
   id="g21">
</g>
<g
   id="g23">
</g>
<g
   id="g25">
</g>
<g
   id="g27">
</g>
<g
   id="g29">
</g>
<g
   id="g31">
</g>
<g
   id="g33">
</g>
<g
   id="g35">
</g>
<g
   id="g37">
</g>
<g
   id="g39">
</g>
<g
   id="g41">
</g>
<g
   id="g43">
</g>
<path
   style="fill:#ffffff"
   d="m 263.28269,307.20227 c 0.51004,22.02725 -20.17392,39.89517 -45.05972,39.89517 -24.88581,0 -49.56618,-18.35513 -45.05973,-39.89517 4.20715,-20.1095 55.68055,-103.16884 44.01182,-87.33808 -10.85753,14.73025 45.60787,65.75454 46.10763,87.33808 z"
   id="path3379"
   inkscape:connector-curvature="0"
   sodipodi:nodetypes="sssss" /><path
   style="fill:#000000"
   id="path3382"
   d="m 219.83686,220.31921 c -2.19078,-0.20498 -3.88866,-1.40668 -5.33415,-2.98017 -0.75672,-0.58621 -1.81238,-2.67764 -2.89784,-1.67933 32.59373,-8.46177 9.84912,-6.45583 12.12908,-1.19642 0.58409,1.15067 1.79922,1.90154 2.85565,2.59328 1.40756,0.4286 2.61675,1.18758 3.87272,1.92252 0.18161,0.16537 0.36321,0.33074 0.54481,0.49611 0,0 -12.82704,4.32536 -12.82704,4.32536 l 0,0 c -0.16032,-0.10813 -0.32064,-0.21626 -0.48096,-0.32439 -1.25594,-0.76837 -2.66045,-1.2231 -3.89277,-2.02859 -1.23252,-0.94316 -2.55138,-1.85292 -3.12341,-3.36459 -2.36308,-7.1525 8.02781,-6.29188 13.44107,-7.68538 1.31807,0.64841 2.22229,1.72931 3.22161,2.77666 1.42631,1.31978 2.97598,2.08703 4.97832,1.97262 0,0 -12.48709,5.17232 -12.48709,5.17232 z"
   inkscape:connector-curvature="0" /></svg>