<?xml version="1.0" encoding="UTF-8" standalone="no"?>
<!-- Generator: Adobe Illustrator 16.0.0, SVG Export Plug-In . SVG Version: 6.00 Build 0)  -->

<svg
   xmlns:dc="http://purl.org/dc/elements/1.1/"
   xmlns:cc="http://creativecommons.org/ns#"
   xmlns:rdf="http://www.w3.org/1999/02/22-rdf-syntax-ns#"
   xmlns:svg="http://www.w3.org/2000/svg"
   xmlns="http://www.w3.org/2000/svg"
   xmlns:sodipodi="http://sodipodi.sourceforge.net/DTD/sodipodi-0.dtd"
   xmlns:inkscape="http://www.inkscape.org/namespaces/inkscape"
   version="1.1"
   id="Capa_1"
   x="0px"
   y="0px"
   width="123.588px"
   height="123.588px"
   viewBox="0 0 123.588 123.588"
   style="enable-background:new 0 0 123.588 123.588;"
   xml:space="preserve"
   inkscape:version="0.91 r13725"
   sodipodi:docname="people.svg"><metadata
   id="metadata79"><rdf:RDF><cc:Work
       rdf:about=""><dc:format>image/svg+xml</dc:format><dc:type
         rdf:resource="http://purl.org/dc/dcmitype/StillImage" /></cc:Work></rdf:RDF></metadata><defs
   id="defs77" /><sodipodi:namedview
   pagecolor="#ffffff"
   bordercolor="#666666"
   borderopacity="1"
   objecttolerance="10"
   gridtolerance="10"
   guidetolerance="10"
   inkscape:pageopacity="0"
   inkscape:pageshadow="2"
   inkscape:window-width="1366"
   inkscape:window-height="706"
   id="namedview75"
   showgrid="false"
   inkscape:snap-text-baseline="true"
   inkscape:zoom="3.8191411"
   inkscape:cx="111.19278"
   inkscape:cy="75.219997"
   inkscape:window-x="-8"
   inkscape:window-y="-8"
   inkscape:window-maximized="1"
   inkscape:current-layer="Capa_1" />
<g
   id="g3">
	<g
   id="g5">
		<g
   id="g7">
			<g
   id="g9">
				<path
   d="M103.604,25.648c-0.146-0.09-0.301-0.148-0.453-0.218c-1.236-0.812-2.623-1.41-4.033-1.757l-2.814,2.831l-2.728-2.863      c-0.009,0.003-0.019,0.003-0.028,0.006c-1.352,0.323-2.679,0.883-3.88,1.639c-0.3,0.091-0.597,0.209-0.88,0.37      c-1.749,0.982-3.413,1.174-5.232,0.607c-6.029-1.879-11.646-11.08-13.3-14.462c-0.44-0.909-1.162-1.579-2.001-1.996l-1.202-0.4      c-0.872-0.15-1.797-0.049-2.655,0.369c-2.179,1.057-3.085,3.681-2.028,5.858c0.257,0.529,1.214,2.436,2.765,4.866l1.034,1.563      c3.235,4.71,8.349,10.561,14.758,12.567c1.271,0.397,2.548,0.618,3.82,0.685v23.104c0,1.193,0.235,2.304,0.646,3.325      c-0.029,0.219-0.068,0.435-0.068,0.66l0.004,41.983c0.001,2.863,2.32,5.183,5.182,5.183c2.862-0.002,5.182-2.32,5.182-5.183      l-0.002-36.03c0.205,0.01,0.41,0.024,0.617,0.024c0.04,0,0.08-0.004,0.121-0.005l-0.001,36.01c0,2.861,2.319,5.182,5.181,5.182      l0,0c2.861,0,5.182-2.319,5.182-5.182l0.001-41.187c0.272,0.26,0.571,0.5,0.916,0.688c0.666,0.362,1.384,0.533,2.091,0.533      c1.555,0,3.061-0.828,3.855-2.29C126.022,39.397,109.149,29.049,103.604,25.648z M96.331,48.856h-0.053l-2.723-3.727      l2.723-18.204h0.053l2.725,18.204L96.331,48.856z M107.864,53.828V41.29C109.538,44.457,109.913,48.467,107.864,53.828z"
   id="path11" />
			</g>
			<g
   id="g13">
				<circle
   cx="96.303"
   cy="11.725"
   r="11.293"
   id="circle15" />
			</g>
		</g>
		<g
   id="g17">
			<path
   d="M71.368,63.464H16.036c-3.514,0-6.374-2.859-6.374-6.374V6.374C9.662,2.86,12.521,0,16.036,0h55.332     c3.515,0,6.375,2.86,6.375,6.374v50.717C77.742,60.606,74.881,63.464,71.368,63.464z M16.036,4.249     c-1.172,0-2.124,0.953-2.124,2.125v50.717c0,1.171,0.952,2.125,2.124,2.125h55.332c1.172,0,2.125-0.953,2.125-2.125V6.374     c0-1.172-0.953-2.125-2.125-2.125H16.036z"
   id="path19" />
		</g>
		<g
   id="g21">
			<circle
   cx="26.303"
   cy="78.717"
   r="8.942"
   id="circle23" />
		</g>
		<g
   id="g25">
			<path
   d="M15.944,108.062c-0.266-2.451,0.231-4.461,1.208-6.158v6.158h9.092l-2.117-2.896l2.157-14.415h0.042l2.155,14.415     l-2.117,2.896h9.092v-6.142c0.97,1.692,1.462,3.699,1.197,6.142h6.999c0.804-10.729-7.994-16.138-11.4-18.228     c-0.151-0.091-0.308-0.158-0.466-0.226c-0.996-0.664-2.114-1.152-3.254-1.433l-2.228,2.242l-2.159-2.267     c-0.008,0.002-0.015,0.002-0.022,0.004c-1.163,0.279-2.303,0.777-3.316,1.457c-0.155,0.065-0.312,0.131-0.459,0.222     c-3.406,2.09-12.205,7.498-11.4,18.228H15.944z"
   id="path27" />
		</g>
		<g
   id="g29">
			<circle
   cx="61.113"
   cy="78.717"
   r="8.942"
   id="circle31" />
		</g>
		<g
   id="g33">
			<path
   d="M50.753,108.062c-0.267-2.451,0.231-4.461,1.208-6.158v6.158h9.09l-2.116-2.896l2.156-14.415h0.042l2.157,14.415     l-2.117,2.896h9.091v-6.142c0.971,1.692,1.463,3.699,1.198,6.142h6.998c0.804-10.729-7.993-16.138-11.399-18.228     c-0.15-0.091-0.31-0.158-0.467-0.226c-0.994-0.664-2.113-1.152-3.253-1.433l-2.228,2.242l-2.159-2.267     c-0.008,0.002-0.015,0.002-0.022,0.004c-1.164,0.279-2.305,0.777-3.318,1.457c-0.154,0.065-0.311,0.131-0.458,0.222     c-3.407,2.09-12.204,7.498-11.4,18.228H50.753z"
   id="path35" />
		</g>
		<g
   id="g37">
			<rect
   x="5.504"
   y="110.845"
   width="102.236"
   height="12.743"
   id="rect39" />
		</g>
		<g
   id="g41">
			<path
   d="M59.05,33.828l-1.782-0.657c0.14-1.299,0.093-2.623-0.151-3.94l1.721-0.793c1.074-0.493,1.544-1.771,1.049-2.845     l-1.003-2.179c-0.494-1.075-1.77-1.547-2.844-1.052l-1.722,0.794c-0.841-1.043-1.818-1.938-2.895-2.676l0.657-1.779     c0.409-1.109-0.16-2.346-1.269-2.755l-2.252-0.832c-1.075-0.396-2.358,0.195-2.755,1.269l-0.657,1.781     c-1.298-0.14-2.623-0.094-3.938,0.149l-0.794-1.719c-0.494-1.074-1.771-1.546-2.845-1.052l-2.181,1.004     c-1.074,0.495-1.545,1.772-1.05,2.846l0.793,1.72c-1.042,0.843-1.938,1.82-2.676,2.896l-1.778-0.656     c-1.072-0.399-2.358,0.191-2.756,1.267l-0.832,2.253c-0.198,0.538-0.175,1.121,0.063,1.64c0.242,0.521,0.67,0.917,1.206,1.113     l1.781,0.659c-0.141,1.298-0.095,2.623,0.15,3.938l-1.721,0.792c-1.075,0.495-1.545,1.771-1.05,2.844l1.004,2.183     c0.496,1.073,1.771,1.544,2.844,1.049l1.722-0.792c0.841,1.041,1.818,1.938,2.896,2.673l-0.656,1.78     c-0.2,0.538-0.178,1.119,0.063,1.639c0.238,0.521,0.667,0.918,1.205,1.117l2.251,0.832c0.537,0.198,1.12,0.175,1.64-0.063     c0.521-0.24,0.916-0.669,1.115-1.205l0.656-1.781c1.3,0.141,2.624,0.095,3.939-0.15l0.793,1.721     c0.494,1.073,1.771,1.544,2.845,1.049l2.18-1.004c1.075-0.494,1.545-1.771,1.05-2.845l-0.793-1.721     c1.042-0.842,1.938-1.817,2.675-2.895l1.781,0.658c0.538,0.199,1.121,0.175,1.642-0.065c0.519-0.239,0.915-0.667,1.113-1.204     l0.831-2.253C60.727,35.473,60.157,34.238,59.05,33.828z M47.252,39.43c-1.124,0.518-2.315,0.779-3.544,0.779     c-3.302,0-6.326-1.937-7.708-4.934c-1.956-4.248-0.092-9.295,4.156-11.251c1.123-0.518,2.315-0.779,3.543-0.779     c3.301,0,6.327,1.936,7.708,4.932C53.362,32.426,51.5,37.473,47.252,39.43z"
   id="path43" />
		</g>
	</g>
</g>
<g
   id="g45">
</g>
<g
   id="g47">
</g>
<g
   id="g49">
</g>
<g
   id="g51">
</g>
<g
   id="g53">
</g>
<g
   id="g55">
</g>
<g
   id="g57">
</g>
<g
   id="g59">
</g>
<g
   id="g61">
</g>
<g
   id="g63">
</g>
<g
   id="g65">
</g>
<g
   id="g67">
</g>
<g
   id="g69">
</g>
<g
   id="g71">
</g>
<g
   id="g73">
</g>
<rect
   style="fill:#ffffff"
   id="rect3407"
   width="39.275848"
   height="35.871941"
   x="22.518152"
   y="14.401143" /><text
   xml:space="preserve"
   style="font-style:normal;font-variant:normal;font-weight:normal;font-stretch:normal;font-size:70px;line-height:1000%;font-family:sans-serif;-inkscape-font-specification:'sans-serif, Normal';text-align:start;letter-spacing:0px;word-spacing:0px;writing-mode:lr-tb;text-anchor:start;fill:#000000;fill-opacity:1;stroke:none;stroke-width:1px;stroke-linecap:butt;stroke-linejoin:miter;stroke-opacity:1"
   x="14.924822"
   y="21.994474"
   id="text3409"
   sodipodi:linespacing="1000%"><tspan
     sodipodi:role="line"
     x="14.924822"
     y="21.994474"
     style="font-style:normal;font-variant:normal;font-weight:normal;font-stretch:normal;font-size:20px;line-height:1000%;font-family:sans-serif;-inkscape-font-specification:'sans-serif, Normal';text-align:start;writing-mode:lr-tb;text-anchor:start"
     id="tspan3417">101</tspan></text>
<text
   xml:space="preserve"
   style="font-style:normal;font-variant:normal;font-weight:normal;font-stretch:normal;font-size:20px;line-height:1000%;font-family:sans-serif;-inkscape-font-specification:'sans-serif, Normal';text-align:start;letter-spacing:0px;word-spacing:0px;writing-mode:lr-tb;text-anchor:start;fill:#000000;fill-opacity:1;stroke:none;stroke-width:1px;stroke-linecap:butt;stroke-linejoin:miter;stroke-opacity:1"
   x="14.401143"
   y="39.537685"
   id="text3421"
   sodipodi:linespacing="1000%"><tspan
     sodipodi:role="line"
     id="tspan3423"
     x="14.401143"
     y="39.537685">102</tspan></text>
<text
   xml:space="preserve"
   style="font-style:normal;font-variant:normal;font-weight:normal;font-stretch:normal;font-size:20px;line-height:1000%;font-family:sans-serif;-inkscape-font-specification:'sans-serif, Normal';text-align:start;letter-spacing:0px;word-spacing:0px;writing-mode:lr-tb;text-anchor:start;fill:#000000;fill-opacity:1;stroke:none;stroke-width:1px;stroke-linecap:butt;stroke-linejoin:miter;stroke-opacity:1"
   x="14.139304"
   y="56.29538"
   id="text3425"
   sodipodi:linespacing="1000%"><tspan
     sodipodi:role="line"
     id="tspan3427"
     x="14.139304"
     y="56.29538">103</tspan></text>
</svg>