<?xml version="1.0"?><svg width="640" height="480" xmlns="http://www.w3.org/2000/svg">
 <title>Brown Splat</title>
 <metadata id="metadata7">image/svg+xml</metadata>
 <g>
  <title>Layer 1</title>
  <g id="layer1">
   <path fill="#000000" fill-rule="evenodd" stroke="#000000" stroke-width="0.999849" stroke-miterlimit="4" stroke-dashoffset="0" id="path2529" d="m190.17807,419.058899c-3.055389,-3.884338 -4.503342,-12.34137 -3.26239,-19.054321c1.234909,-6.680328 1.655243,-7.527832 14.456818,-29.150269c18.922028,-31.960052 25.661621,-49.127106 38.810211,-98.856964c0.576416,-2.180206 -2.21907,-4.904663 -5.032562,-4.904663c-3.657104,0 -6.456223,2.729431 -8.208145,8.003998c-1.976212,5.949707 -3.271271,7.166107 -8.355865,7.848083c-4.851364,0.650757 -10.630402,-1.665985 -12.936874,-5.186096c-1.631134,-2.489441 -1.625931,-3.129059 0.094955,-11.606079c1.719391,-8.469635 1.7258,-9.221344 0.114578,-13.440277c-4.788071,-12.537415 -16.608231,-14.029205 -23.389038,-2.951904c-4.560867,7.450714 -14.497131,20.243591 -20.251114,26.073181c-10.186676,10.320435 -16.84523,10.64978 -23.710312,1.172791c-2.27063,-3.134491 -3.010544,-5.264496 -3.010544,-8.666351c0,-3.919678 0.496109,-4.966339 3.788071,-7.991669c4.849869,-4.457031 11.691895,-8.260193 22.47583,-12.493073c14.682846,-5.763306 21.149399,-10.883301 24.809525,-19.64325c2.722122,-6.514893 1.456161,-14.514191 -2.644241,-16.708649c-6.024002,-3.223969 -13.114838,2.184937 -25.188614,19.213837c-11.201355,15.798462 -17.261642,19.674622 -29.772842,19.042847c-8.648895,-0.436768 -12.751396,-2.753082 -17.477165,-9.867798c-4.309593,-6.48819 -5.554741,-11.253479 -5.122177,-19.603333c0.318665,-6.151306 0.859528,-7.94046 3.598846,-11.904694c3.83326,-5.547455 10.78997,-10.219879 18.523308,-12.441162c3.156662,-0.906738 12.891876,-2.017487 22.223312,-2.535583c20.640274,-1.146057 26.993851,-2.400208 49.677948,-9.80603c11.46846,-3.744141 14.910049,-6.316071 14.910049,-11.142303c0,-2.92572 -4.17041,-7.051331 -7.908478,-7.823517c-2.745789,-0.5672 -23.531113,-2.596191 -26.611664,-2.597717c-2.805435,-0.001404 -7.782608,-4.948059 -8.843124,-8.788925c-1.527191,-5.531067 0.713806,-9.994812 5.690628,-11.33493c5.298386,-1.426697 9.21907,-0.188354 18.995712,5.999832c4.438675,2.809509 11.164185,6.05217 14.945526,7.205917c6.602402,2.014465 7.053284,2.029663 11.365845,0.38269c8.676422,-3.313538 9.721771,-9.158798 3.729736,-20.855148c-4.943832,-9.650291 -14.03923,-19.368912 -21.787125,-23.28006c-11.69632,-5.904266 -19.315842,-15.281479 -24.081909,-29.637161c-1.897354,-5.715019 -2.34198,-9.201981 -2.318359,-18.182697c0.025864,-9.84967 0.332718,-11.768353 2.701797,-16.894093c5.906982,-12.780037 17.622742,-13.135139 25.222794,-0.764477c2.436188,3.965347 3.173248,7.344788 5.944458,27.254986c3.629562,26.077095 5.018051,30.371346 13.055664,40.377312c8.321579,10.359489 15.644379,13.678658 20.177292,9.145752c2.97113,-2.9711 3.393219,-6.227982 1.590561,-12.271614c-0.891098,-2.98745 -1.881393,-8.613686 -2.200638,-12.502769c-0.502182,-6.116539 -0.157532,-8.380554 2.552994,-16.77195c5.080276,-15.72773 4.084122,-22.527519 -5.569458,-38.016018c-5.614883,-9.008759 -6.159164,-12.932619 -2.358154,-17.00102c4.731186,-5.063999 11.524551,-7.06539 13.972046,-4.11631c0.7771,0.93638 1.060471,7.58288 0.893631,20.960611c-0.27005,21.643341 -0.633255,20.006508 7.821564,35.246758c2.907623,5.241219 5.503479,16.39949 5.528961,23.766319c0.009979,2.906441 0.681396,6.026329 1.569702,7.294601c2.809631,4.011269 12.398285,5.151421 16.445038,1.955383c0.731415,-0.577621 3.321838,-4.129616 5.7565,-7.89328c2.532532,-3.914833 6.172699,-7.998436 8.506927,-9.543152c3.49707,-2.31424 4.866852,-2.634872 9.585022,-2.243622c4.586182,0.380318 6.190247,1.075691 9.611664,4.16671c3.227997,2.916321 4.936676,3.71019 7.985504,3.71019c8.077637,0 17.328522,-7.674019 17.328522,-14.374687c0,-1.630394 -1.368835,-6.083183 -3.041962,-9.895142c-4.492096,-10.234909 -4.746124,-14.142429 -1.542419,-23.727238c5.524628,-16.528381 10.473328,-21.120571 22.76709,-21.126802c10.223755,-0.005178 17.242767,4.875059 19.02417,13.22727c1.191772,5.5881 0.325531,9.737492 -4.604858,22.05658c-10.721313,26.788528 -11.384674,35.092018 -3.438171,43.038574c2.043793,2.043777 5.621674,4.286896 7.950928,4.984764c6.842163,2.049965 11.715668,-0.423378 21.01355,-10.664864c9.291748,-10.234604 14.07547,-12.691086 19.941528,-10.240097c3.095612,1.293427 3.859467,2.295273 5.205383,6.827484c0.867554,2.921387 1.577362,6.426422 1.577362,7.788986c0,10.741623 -9.873566,21.390778 -22.728363,24.513641c-2.777924,0.67485 -7.226349,2.311783 -9.885406,3.637604c-15.250824,7.604202 -8.7854,23.45993 9.59494,23.530594c8.147003,0.031342 15.197021,-2.964615 24.028992,-10.211243c16.075653,-13.190094 35.880157,-27.303505 43.776703,-31.196907c12.67984,-6.251808 29.98761,-8.648079 42.163452,-5.837547c12.562256,2.899719 17.425964,15.565308 10.953735,28.52478c-3.388245,6.784164 -4.381592,7.084885 -16.412628,4.968262c-19.296722,-3.394836 -36.134003,-1.87326 -52.935455,4.783691c-14.104919,5.588593 -29.300201,13.825653 -31.908051,17.296814c-5.372772,7.151398 -4.074768,14.696533 3.386993,19.687439c9.005829,6.023621 11.238037,8.611725 11.810822,13.693573c0.760925,6.750183 -0.987244,10.017426 -7.986755,14.927277c-9.234833,6.477844 -11.898499,12.414276 -8.500641,18.944916c2.109253,4.053955 5.513824,6.863281 11.715668,9.667328c8.114807,3.668976 13.704681,4.191223 22.918976,2.141235c11.027344,-2.4534 18.682281,-1.688416 26.237122,2.621857c12.352386,7.047424 18.89679,15.598297 23.127838,30.218567c1.467743,5.071899 1.892181,9.784027 1.865051,20.708069c-0.039642,15.966949 -1.292328,20.919983 -6.70285,26.502136c-12.258789,12.64801 -31.041321,-4.719482 -37.610504,-34.776947c-2.834076,-12.967621 -6.042053,-20.002625 -11.558289,-25.347382c-7.220612,-6.996124 -25.113586,-14.187744 -32.058197,-12.884949c-4.433289,0.831726 -11.065948,7.493835 -12.461029,12.516418c-2.350708,8.463257 -0.759277,13.711151 7.566711,24.951599c15.840118,21.384918 20.411743,30.160217 21.442993,41.159973c0.661346,7.054718 -0.559662,9.77597 -5.650421,12.592163c-5.16272,2.856079 -9.436066,3.566772 -14.021606,2.332031c-5.423584,-1.46048 -8.500214,-5.016968 -8.965698,-10.364227c-2.438507,-28.012482 -4.168549,-35.157898 -10.22525,-42.233795c-6.320648,-7.384216 -16.644287,-10.134308 -24.975739,-6.653229c-6.460815,2.699554 -7.59845,6.492371 -6.107208,20.360657c0.536957,4.993591 0.400085,7.832306 -0.454712,9.429382c-1.285492,2.401947 -6.661407,5.144531 -10.084106,5.144531c-5.492889,0 -13.709167,-12.64325 -18.209778,-28.021545c-2.745361,-9.380798 -5.407471,-12.586487 -10.452423,-12.586487c-5.723724,0 -8.474854,2.373962 -10.391479,8.966553c-2.632996,9.057526 -1.581116,17.463623 4.401917,35.177002c5.833954,17.27182 6.572266,19.051605 15.924164,38.385712c5.258698,10.871948 6.948608,15.460449 7.308105,19.843414c0.614685,7.495178 -1.143829,12.627869 -5.167145,15.081177c-6.092102,3.714752 -9.789795,2.073883 -14.622223,-6.488708c-4.69519,-8.319519 -6.103058,-14.819641 -7.184174,-33.168793c-1.536438,-26.076843 -6.807465,-48.921631 -15.757202,-68.292175c-4.364166,-9.445618 -5.996338,-11.322449 -9.846619,-11.322449c-8.030823,0 -14.173431,8.270111 -14.255432,19.192871c-0.044373,5.914032 0.372101,7.298065 4.194183,13.938812c2.334015,4.055084 4.935883,9.41214 5.782104,11.904602c1.554504,4.578827 1.914307,15.97348 0.651123,20.623474c-1.05835,3.895844 -6.435516,6.057495 -15.072662,6.059357c-9.206726,0.001923 -12.541077,-1.594818 -14.724304,-7.051147c-2.634735,-6.584839 -2.057831,-12.872864 2.400177,-26.160431c4.731293,-14.102203 5.396393,-23.807953 2.125031,-31.010803c-2.011414,-4.428528 -6.394806,-8.506866 -9.143311,-8.506866c-5.925125,0 -15.029556,19.969879 -21.764832,47.739441c-3.590515,14.804077 -4.813568,21.874695 -9.040359,52.265411c-2.81781,20.260254 -4.424469,25.96701 -9.139938,32.464813c-6.619339,9.121277 -21.936752,13.360657 -26.645355,7.374756l0,0z"/>
  </g>
 </g>
</svg>