<?xml version="1.0" encoding="UTF-8" standalone="no"?>
<!-- Generator: Adobe Illustrator 16.0.0, SVG Export Plug-In . SVG Version: 6.00 Build 0)  -->

<svg
   xmlns:dc="http://purl.org/dc/elements/1.1/"
   xmlns:cc="http://creativecommons.org/ns#"
   xmlns:rdf="http://www.w3.org/1999/02/22-rdf-syntax-ns#"
   xmlns:svg="http://www.w3.org/2000/svg"
   xmlns="http://www.w3.org/2000/svg"
   xmlns:sodipodi="http://sodipodi.sourceforge.net/DTD/sodipodi-0.dtd"
   xmlns:inkscape="http://www.inkscape.org/namespaces/inkscape"
   version="1.1"
   id="Capa_1"
   x="0px"
   y="0px"
   width="471.418px"
   height="471.418px"
   viewBox="0 0 471.418 471.418"
   style="enable-background:new 0 0 471.418 471.418;"
   xml:space="preserve"
   inkscape:version="0.91 r13725"
   sodipodi:docname="building.svg"><metadata
   id="metadata51"><rdf:RDF><cc:Work
       rdf:about=""><dc:format>image/svg+xml</dc:format><dc:type
         rdf:resource="http://purl.org/dc/dcmitype/StillImage" /></cc:Work></rdf:RDF></metadata><defs
   id="defs49" /><sodipodi:namedview
   pagecolor="#ffffff"
   bordercolor="#666666"
   borderopacity="1"
   objecttolerance="10"
   gridtolerance="10"
   guidetolerance="10"
   inkscape:pageopacity="0"
   inkscape:pageshadow="2"
   inkscape:window-width="1366"
   inkscape:window-height="706"
   id="namedview47"
   showgrid="false"
   inkscape:zoom="0.35398988"
   inkscape:cx="695.83983"
   inkscape:cy="261.32046"
   inkscape:window-x="-8"
   inkscape:window-y="-8"
   inkscape:window-maximized="1"
   inkscape:current-layer="Capa_1" />
<g
   id="g3">
	<g
   id="g5">
		<polygon
   points="60.343,0 60.343,471.418 94.343,471.418 94.343,34 423.777,34 423.777,471.418 457.777,471.418 457.777,0   "
   id="polygon7" />
		<g
   id="g9">
			<rect
   x="104.194"
   y="43.906"
   width="149.255"
   height="400.604"
   id="rect11" />
			<rect
   x="264.672"
   y="43.906"
   width="149.254"
   height="400.604"
   id="rect13" />
		</g>
		<path
   d="M13.641,281.419h36.811v-91.362H13.641V281.419z M32.044,201.635l11.34,19.123h-22.68L32.044,201.635z M43.384,250.718    l-11.34,19.123l-11.34-19.123H43.384z"
   id="path15" />
	</g>
</g>
<g
   id="g17">
</g>
<g
   id="g19">
</g>
<g
   id="g21">
</g>
<g
   id="g23">
</g>
<g
   id="g25">
</g>
<g
   id="g27">
</g>
<g
   id="g29">
</g>
<g
   id="g31">
</g>
<g
   id="g33">
</g>
<g
   id="g35">
</g>
<g
   id="g37">
</g>
<g
   id="g39">
</g>
<g
   id="g41">
</g>
<g
   id="g43">
</g>
<g
   id="g45">
</g>
<path
   style="fill:#ffffff"
   d="m 312.61404,200.25276 a 54.932182,54.4328 0 0 1 -54.93219,54.4328 54.932182,54.4328 0 0 1 -54.93218,-54.4328 54.932182,54.4328 0 0 1 54.93218,-54.4328 54.932182,54.4328 0 0 1 54.93219,54.4328 z"
   id="path3379" /><ellipse
   style="fill:#000000"
   id="path3382"
   cx="238.70531"
   cy="189.26634"
   rx="9.9876699"
   ry="8.4895191"
   inkscape:transform-center-x="-9.9876694"
   inkscape:transform-center-y="9.9876694" /><ellipse
   style="fill:#000000"
   id="path3384"
   cx="278.15659"
   cy="189.26634"
   rx="9.488286"
   ry="8.4895191" /><path
   style="fill:#000000;fill-rule:evenodd;stroke:#000000;stroke-width:1px;stroke-linecap:butt;stroke-linejoin:miter;stroke-opacity:1"
   d="m 233.71147,232.7127 0,-2.9963 c 15.64735,-20.64119 32.62638,-20.64118 50.93711,0 l 0,2.9963 c -18.31073,-21.97287 -35.28976,-21.97288 -50.93711,0 z"
   id="path3394"
   inkscape:connector-curvature="0"
   sodipodi:nodetypes="ccccc" /></svg>