<?xml version="1.0" encoding="UTF-8" standalone="no"?>
<!-- Generator: Adobe Illustrator 16.0.0, SVG Export Plug-In . SVG Version: 6.00 Build 0)  -->

<svg
   xmlns:dc="http://purl.org/dc/elements/1.1/"
   xmlns:cc="http://creativecommons.org/ns#"
   xmlns:rdf="http://www.w3.org/1999/02/22-rdf-syntax-ns#"
   xmlns:svg="http://www.w3.org/2000/svg"
   xmlns="http://www.w3.org/2000/svg"
   xmlns:sodipodi="http://sodipodi.sourceforge.net/DTD/sodipodi-0.dtd"
   xmlns:inkscape="http://www.inkscape.org/namespaces/inkscape"
   version="1.1"
   id="Capa_1"
   x="0px"
   y="0px"
   width="82.470703"
   height="79.022537"
   viewBox="0 0 82.470702 79.022537"
   xml:space="preserve"
   inkscape:version="0.91 r13725"
   sodipodi:docname="1017 скоєня суєциду.svg"><metadata
     id="metadata57"><rdf:RDF><cc:Work
         rdf:about=""><dc:format>image/svg+xml</dc:format><dc:type
           rdf:resource="http://purl.org/dc/dcmitype/StillImage" /><dc:title></dc:title></cc:Work></rdf:RDF></metadata><defs
     id="defs55" /><sodipodi:namedview
     pagecolor="#ffffff"
     bordercolor="#666666"
     borderopacity="1"
     objecttolerance="10"
     gridtolerance="10"
     guidetolerance="10"
     inkscape:pageopacity="0"
     inkscape:pageshadow="2"
     inkscape:window-width="1920"
     inkscape:window-height="1137"
     id="namedview53"
     showgrid="false"
     inkscape:zoom="4.2699475"
     inkscape:cx="7.6838387"
     inkscape:cy="46.342095"
     inkscape:window-x="-8"
     inkscape:window-y="-8"
     inkscape:window-maximized="1"
     inkscape:current-layer="Capa_1"
     fit-margin-top="0"
     fit-margin-left="0"
     fit-margin-right="0"
     fit-margin-bottom="0" /><path
     d="m 41.238281,0.00691361 c -15.199,0 -28.629375,9.00509399 -34.4843748,22.74609439 l -3.9589843,0 L 0,33.129961 l 4.6796875,0 c -0.63,2.729 -0.9550781,5.527859 -0.9550781,8.380859 0,20.684 16.8257656,37.511714 37.5097656,37.511714 20.684,0 37.511719,-16.827714 37.511719,-37.511714 0,-2.853 -0.324078,-5.651859 -0.955078,-8.380859 l 4.679687,0 -3.191406,-9.976563 -3.558594,0 C 74.056421,21.0165 66.681823,-0.44099439 41.238281,0.00691361 Z M 11.257812,33.129961 l 59.955079,0 c 0.762,2.711 1.148437,5.514859 1.148437,8.380859 0,17.164 -13.963953,31.125 -31.126953,31.125 -17.163,0 -31.125,-13.962 -31.125,-31.125 0,-2.866 0.386437,-5.669859 1.148437,-8.380859 z m 42.25586,0.427734 8.197266,5.503907 -8.197266,-5.503907 z m -25.644531,0.117188 -7.962891,4.800781 7.962891,-4.800781 z m 2.908203,4.404297 -2.748047,2.878906 -2.703125,-2.808594 -1.525391,0.9375 3.021485,3.134766 -3.183594,3.332031 1.53125,0.931641 2.867187,-3.001954 2.941407,3.052735 1.523437,-0.935547 -3.257812,-3.382812 3.064453,-3.205079 -1.53125,-0.933593 z m 26.625,0 -2.748047,2.878906 -2.703125,-2.808594 -1.523438,0.9375 3.019532,3.134766 -3.181641,3.332031 1.529297,0.931641 2.867187,-3.001954 2.941407,3.052735 1.523437,-0.935547 -3.257812,-3.382812 3.064453,-3.205079 -1.53125,-0.933593 z M 41.234375,52.88582 c -6.083,0 -11.03125,3.860422 -11.03125,8.607422 l 2,0 c 0,-3.645 4.05125,-6.607422 9.03125,-6.607422 4.98,0 9.033203,2.964422 9.033203,6.607422 l 2,0 c 0,-4.744 -4.950203,-8.607422 -11.033203,-8.607422 z"
     id="polygon7"
     inkscape:connector-curvature="0" /><g
     id="g23"
     transform="translate(0,-23.118086)" /><g
     id="g25"
     transform="translate(0,-23.118086)" /><g
     id="g27"
     transform="translate(0,-23.118086)" /><g
     id="g29"
     transform="translate(0,-23.118086)" /><g
     id="g31"
     transform="translate(0,-23.118086)" /><g
     id="g33"
     transform="translate(0,-23.118086)" /><g
     id="g35"
     transform="translate(0,-23.118086)" /><g
     id="g37"
     transform="translate(0,-23.118086)" /><g
     id="g39"
     transform="translate(0,-23.118086)" /><g
     id="g41"
     transform="translate(0,-23.118086)" /><g
     id="g43"
     transform="translate(0,-23.118086)" /><g
     id="g45"
     transform="translate(0,-23.118086)" /><g
     id="g47"
     transform="translate(0,-23.118086)" /><g
     id="g49"
     transform="translate(0,-23.118086)" /><g
     id="g51"
     transform="translate(0,-23.118086)" /></svg>