<?xml version="1.0" encoding="iso-8859-1"?>
<!-- Generator: Adobe Illustrator 16.0.0, SVG Export Plug-In . SVG Version: 6.00 Build 0)  -->
<!DOCTYPE svg PUBLIC "-//W3C//DTD SVG 1.1//EN" "http://www.w3.org/Graphics/SVG/1.1/DTD/svg11.dtd">
<svg version="1.1" id="Capa_1" xmlns="http://www.w3.org/2000/svg" xmlns:xlink="http://www.w3.org/1999/xlink" x="0px" y="0px"
	 width="585.072px" height="585.072px" viewBox="0 0 585.072 585.072" style="enable-background:new 0 0 585.072 585.072;"
	 xml:space="preserve">
<g>
	<path d="M516.956,266.312L342.23,104.866c1.958-5.508,2.999-11.383,2.999-17.564c0-29.07-23.623-52.693-52.693-52.693
		c-29.07,0-52.693,23.624-52.693,52.693c0,6.181,1.102,12.057,2.999,17.564L68.116,266.312H0v284.152h585.072V266.312H516.956z
		 M285.009,79.162c1.958-1.836,4.59-2.938,7.527-2.938c2.876,0,5.508,1.102,7.527,2.938c2.203,2.02,3.55,4.896,3.55,8.14
		s-1.407,6.12-3.55,8.14c-1.958,1.836-4.59,2.938-7.527,2.938c-2.876,0-5.508-1.102-7.527-2.938c-2.204-2.02-3.55-4.896-3.55-8.14
		S282.805,81.182,285.009,79.162z M271.116,135.405c6.548,2.938,13.77,4.59,21.42,4.59c7.65,0,14.871-1.652,21.42-4.59
		l141.678,130.907H129.438L271.116,135.405z M545.292,510.683H39.78V306.092h505.512V510.683z M470.261,373.841h-44.614V334.06
		h84.395v147.738h-39.78V373.841z M232.438,428.003h-56.916v-93.576h39.78v53.795h17.136v-53.795h39.78v147.371h-39.78V428.003z
		 M118.606,374.392H78.214V334.61h80.172v93.637h-40.147v14.076h40.392v39.779H78.458v-93.635h40.147V374.392z M331.582,489.142
		l-36.965-14.689l58.445-147.43l36.965,14.688L331.582,489.142z"/>
</g>
<g>
</g>
<g>
</g>
<g>
</g>
<g>
</g>
<g>
</g>
<g>
</g>
<g>
</g>
<g>
</g>
<g>
</g>
<g>
</g>
<g>
</g>
<g>
</g>
<g>
</g>
<g>
</g>
<g>
</g>
</svg>
