<?xml version="1.0" encoding="UTF-8" standalone="no"?>
<!-- Created with Inkscape (http://www.inkscape.org/) -->

<svg
   xmlns:dc="http://purl.org/dc/elements/1.1/"
   xmlns:cc="http://creativecommons.org/ns#"
   xmlns:rdf="http://www.w3.org/1999/02/22-rdf-syntax-ns#"
   xmlns:svg="http://www.w3.org/2000/svg"
   xmlns="http://www.w3.org/2000/svg"
   xmlns:sodipodi="http://sodipodi.sourceforge.net/DTD/sodipodi-0.dtd"
   xmlns:inkscape="http://www.inkscape.org/namespaces/inkscape"
   width="5.0818067"
   height="5.0809102"
   viewBox="0 0 5.0818065 5.0809102"
   id="svg2"
   version="1.1"
   inkscape:version="0.91 r13725"
   sodipodi:docname="nearby.svg"
   inkscape:export-filename="/home/panda/Робочий стіл/Civil Society app/ЛМР/1_1002.png"
   inkscape:export-xdpi="90.68"
   inkscape:export-ydpi="90.68">
  <defs
     id="defs4">
    <inkscape:perspective
       sodipodi:type="inkscape:persp3d"
       inkscape:vp_x="0 : 526.18109 : 1"
       inkscape:vp_y="0 : 999.99998 : 0"
       inkscape:vp_z="744.09446 : 526.18109 : 1"
       inkscape:persp3d-origin="372.04722 : 350.78739 : 1"
       id="perspective4218" />
  </defs>
  <sodipodi:namedview
     id="base"
     pagecolor="#ffffff"
     bordercolor="#666666"
     borderopacity="1.0"
     inkscape:pageopacity="0.0"
     inkscape:pageshadow="2"
     inkscape:zoom="45.254834"
     inkscape:cx="-1.2481618"
     inkscape:cy="0.94143673"
     inkscape:document-units="px"
     inkscape:current-layer="layer2"
     showgrid="false"
     showguides="true"
     inkscape:guide-bbox="true"
     inkscape:window-width="1920"
     inkscape:window-height="1137"
     inkscape:window-x="-8"
     inkscape:window-y="-8"
     inkscape:window-maximized="1"
     units="px"
     fit-margin-top="0"
     fit-margin-left="0"
     fit-margin-right="0"
     fit-margin-bottom="0" />
  <metadata
     id="metadata7">
    <rdf:RDF>
      <cc:Work
         rdf:about="">
        <dc:format>image/svg+xml</dc:format>
        <dc:type
           rdf:resource="http://purl.org/dc/dcmitype/StillImage" />
        <dc:title></dc:title>
      </cc:Work>
    </rdf:RDF>
  </metadata>
  <g
     inkscape:label="Layer 1"
     inkscape:groupmode="layer"
     id="layer1"
     style="display:inline"
     transform="translate(-0.04335422,-936.37627)" />
  <g
     inkscape:groupmode="layer"
     id="layer2"
     inkscape:label="Layer 2"
     style="display:inline"
     transform="translate(-0.04335422,-936.37627)">
    <path
       style="display:inline;opacity:0.98000004;fill:#333333;fill-opacity:1;stroke:none;stroke-width:0;stroke-linecap:round;stroke-linejoin:round;stroke-miterlimit:4;stroke-dasharray:none;stroke-opacity:0.99668872"
       d="m 2.5789486,936.37628 a 0.40359461,0.43439039 0 0 0 -0.4031625,0.4347 0.40359461,0.43439039 0 0 0 0.4036608,0.43416 0.40359461,0.43439039 0 0 0 0.4034947,-0.43452 l 0,-5.4e-4 a 0.40359461,0.43439039 0 0 0 -0.403993,-0.43381 z m 1.728266,0.55488 c -0.3294806,0 -0.5965209,0.28273 -0.5965209,0.63112 0,0.34868 0.5965209,1.29863 0.5965209,1.29863 0,0 0.5965209,-0.94995 0.5965209,-1.29863 0,-0.34839 -0.2670405,-0.63112 -0.5965209,-0.63112 z m 0.00199,0.0856 0,1.8e-4 a 0.51545223,0.5347918 0 0 1 0.5156226,0.53449 0.51545223,0.5347918 0 0 1 -0.5154565,0.53467 0.51545223,0.5347918 0 0 1 -0.5154565,-0.53467 0.51545223,0.5347918 0 0 1 0.5152904,-0.53466 z m -3.62297988,0.0183 c -0.3294806,0 -0.596687,0.28274 -0.596687,0.63113 0,0.34868 0.596687,1.29863 0.596687,1.29863 0,0 0.59652078,-0.94995 0.59652078,-1.29863 0,-0.34839 -0.2670404,-0.63113 -0.59652078,-0.63113 z m 0.00199,0.0856 0,1.8e-4 a 0.51545223,0.5347918 0 0 1 0.51562258,0.53449 0.51545223,0.5347918 0 0 1 -0.51545648,0.53467 0.51545223,0.5347918 0 0 1 -0.5154565,-0.53467 0.51545223,0.5347918 0 0 1 0.5152904,-0.53467 z m 1.97660868,0.1251 c -0.1362644,-0.006 -0.2736357,0.0148 -0.4048234,0.0597 -0.1332834,0.051 -0.289737,0.13259 -0.3383775,0.31926 -0.026625,0.19548 -0.018093,0.39616 -0.021761,0.59405 3.658e-4,0.16123 0.035419,0.23701 0.078573,0.29379 a 2.5409255,1.4948737 0 0 0 -1.93508028,1.45078 2.5409255,1.4948737 0 0 0 2.54173378,1.49384 2.5409255,1.4948737 0 0 0 2.5400728,-1.49489 l 0,-0.001 a 2.5409255,1.4948737 0 0 0 -1.9068403,-1.44464 c 0.046136,-0.0476 0.082618,-0.12042 0.080732,-0.3001 l 0.00216,-0.51042 c -0.00595,-0.17477 -0.120751,-0.29922 -0.2375452,-0.35738 -0.1274206,-0.063 -0.2625788,-0.0961 -0.3988434,-0.10226 z m -0.5553176,1.45551 c 0.017749,0.0482 0.030182,0.11028 0.031894,0.19942 0.00276,0.11616 -0.0071,1.0973 0.1215966,1.10342 0.1665685,-0.004 0.4503622,0.008 0.6079829,0.004 0.141756,-0.003 0.1561365,-0.90414 0.165285,-1.11044 0.00161,-0.0857 0.011669,-0.14678 0.026578,-0.19293 a 2.3003646,1.2722329 0 0 1 1.8068387,1.24012 l 0,0.001 a 2.3003646,1.2722329 0 0 1 -0.9707793,1.03631 c 0.012989,-0.0208 0.5925342,-0.94698 0.5925342,-1.29178 0,-0.34839 -0.2672066,-0.63113 -0.5966871,-0.63113 -0.3294805,0 -0.5965209,0.28274 -0.5965209,0.63113 0,0.34631 0.5860241,1.28165 0.5940292,1.29441 a 2.3003646,1.2722329 0 0 1 -1.3222793,0.23374 2.3003646,1.2722329 0 0 1 -1.3761011,-0.25443 c 0.00638,-0.0101 0.5946937,-0.94849 0.5946937,-1.29529 0,-0.34838 -0.2672066,-0.63095 -0.5966871,-0.63095 -0.32948058,0 -0.59652078,0.28257 -0.59652078,0.63095 0,0.34548 0.58225848,1.27583 0.59303228,1.29301 a 2.3003646,1.2722329 0 0 1 -0.91944968,-1.01487 2.3003646,1.2722329 0 0 1 1.84055998,-1.24591 z m -0.9154626,0.42221 0,1.8e-4 a 0.51545223,0.5347918 0 0 1 0.5154565,0.5345 0.51545223,0.5347918 0 0 1 -0.5154565,0.53466 0.51545223,0.5347918 0 0 1 -0.51545648,-0.53466 0.51545223,0.5347918 0 0 1 0.51545648,-0.53467 z m 2.702866,0.0218 0,1.8e-4 a 0.51545223,0.5347918 0 0 1 0.5154564,0.53466 0.51545223,0.5347918 0 0 1 -0.5154564,0.53467 0.51545223,0.5347918 0 0 1 -0.5154566,-0.53467 0.51545223,0.5347918 0 0 1 0.5154566,-0.53484 z"
       id="path4136-8-3-0"
       inkscape:connector-curvature="0" />
  </g>
</svg>
