<?xml version="1.0" encoding="UTF-8" standalone="no"?>
<!-- Generator: Adobe Illustrator 16.0.0, SVG Export Plug-In . SVG Version: 6.00 Build 0)  -->

<svg
   xmlns:dc="http://purl.org/dc/elements/1.1/"
   xmlns:cc="http://creativecommons.org/ns#"
   xmlns:rdf="http://www.w3.org/1999/02/22-rdf-syntax-ns#"
   xmlns:svg="http://www.w3.org/2000/svg"
   xmlns="http://www.w3.org/2000/svg"
   xmlns:sodipodi="http://sodipodi.sourceforge.net/DTD/sodipodi-0.dtd"
   xmlns:inkscape="http://www.inkscape.org/namespaces/inkscape"
   version="1.1"
   id="Capa_1"
   x="0px"
   y="0px"
   width="552.506px"
   height="552.506px"
   viewBox="0 0 552.506 552.506"
   style="enable-background:new 0 0 552.506 552.506;"
   xml:space="preserve"
   inkscape:version="0.91 r13725"
   sodipodi:docname="transport.svg"><metadata
     id="metadata41"><rdf:RDF><cc:Work
         rdf:about=""><dc:format>image/svg+xml</dc:format><dc:type
           rdf:resource="http://purl.org/dc/dcmitype/StillImage" /></cc:Work></rdf:RDF></metadata><defs
     id="defs39" /><sodipodi:namedview
     pagecolor="#ffffff"
     bordercolor="#666666"
     borderopacity="1"
     objecttolerance="10"
     gridtolerance="10"
     guidetolerance="10"
     inkscape:pageopacity="0"
     inkscape:pageshadow="2"
     inkscape:window-width="1600"
     inkscape:window-height="850"
     id="namedview37"
     showgrid="false"
     inkscape:zoom="0.60407382"
     inkscape:cx="245.16572"
     inkscape:cy="254.60481"
     inkscape:window-x="-4"
     inkscape:window-y="-4"
     inkscape:window-maximized="1"
     inkscape:current-layer="Capa_1" /><g
     id="g3"><path
       d="m 103.918,334.136 c -23.793,0 -43.172,19.376 -43.172,43.185 0,23.809 19.373,43.173 43.172,43.173 23.817,0 43.172,-19.364 43.172,-43.173 0,-23.797 -19.348,-43.185 -43.172,-43.185 z m 0,70.318 c -14.952,0 -27.125,-12.179 -27.125,-27.134 0,-14.954 12.167,-27.133 27.125,-27.133 14.964,0 27.136,12.166 27.136,27.133 0,14.955 -12.166,27.134 -27.136,27.134 z m 346.271,-70.318 c -23.809,0 -43.178,19.376 -43.178,43.185 0,23.809 19.363,43.173 43.178,43.173 23.815,0 43.172,-19.364 43.172,-43.173 -0.006,-23.797 -19.369,-43.185 -43.172,-43.185 z m 0,70.318 c -14.961,0 -27.139,-12.179 -27.139,-27.134 0,-14.954 12.166,-27.133 27.139,-27.133 14.949,0 27.127,12.166 27.127,27.133 -0.011,14.955 -12.177,27.134 -27.127,27.134 z m 86.272,-83.678 16.033,0 0,-142.918 c 0,-25.325 -20.521,-45.846 -45.84,-45.846 l -88.76282,0 L 275.66771,55.047448 260.83315,55.44311 401.64173,132.21893 45.842,132.012 C 20.508,132.013 0,152.533 0,177.858 l 0,162.008 c 0,25.337 20.508,45.857 45.842,45.857 l 11.959,0 c -0.292,-2.137 -0.487,-4.293 -0.487,-6.503 0,-26.585 21.556,-48.147 48.144,-48.147 26.588,0 48.144,21.562 48.144,48.147 0,2.21 -0.207,4.366 -0.487,6.503 l 250.857,0 c -0.292,-2.137 -0.486,-4.293 -0.486,-6.503 0,-26.585 21.555,-48.147 48.158,-48.147 26.586,0 48.129,21.562 48.129,48.147 0,2.21 -0.194,4.366 -0.486,6.503 l 53.219,0 0,-19.107 -16.039,0 c -2.533,0 -4.591,-2.053 -4.591,-4.579 l 0,-36.682 c -0.013,-2.539 2.046,-4.579 4.585,-4.579 z m -230.797,-165.07 0,110.034 -84.049,0 0,-110.034 z M 89.401,265.74 l -16.815,0 c -38.584,0 -37.811,-22.914 -37.811,-25.441 l 0,-80.011 c 0,-2.53 2.046,-4.582 4.576,-4.582 l 50.05,0 38.97,0 0,110.034 z m 43.556,0 0,-110.034 84.063,0 0,110.034 z m 269.768,0 -92.482,0 0,-110.034 92.482,0 z m 40.871,-4.589 c 0,2.542 -2.059,4.589 -4.573,4.589 l -32.011,0 0,-110.034 32.011,0 c 2.515,0 4.573,2.052 4.573,4.582 z m 82.209,29.813 c 0,0 -20.6,1.869 -42.983,-3.27 -22.371,-5.133 -25.465,-25.383 -25.465,-25.383 l 0,-83.385 0,-23.602 44.841,0 c 13.031,0 23.602,10.568 23.602,23.602 l 0,112.037 0.005,0 z"
       id="path5"
       inkscape:connector-curvature="0"
       sodipodi:nodetypes="ssssssssssssscsssscsscsscccccssscsssccssscccsscsccccccssssccccccccccccccssccssscccccssccc" /></g><g
     id="g7" /><g
     id="g9" /><g
     id="g11" /><g
     id="g13" /><g
     id="g15" /><g
     id="g17" /><g
     id="g19" /><g
     id="g21" /><g
     id="g23" /><g
     id="g25" /><g
     id="g27" /><g
     id="g29" /><g
     id="g31" /><g
     id="g33" /><g
     id="g35" /></svg>