<?xml version="1.0" encoding="UTF-8" standalone="no"?>
<!-- Created with Inkscape (http://www.inkscape.org/) -->

<svg
   xmlns:dc="http://purl.org/dc/elements/1.1/"
   xmlns:cc="http://creativecommons.org/ns#"
   xmlns:rdf="http://www.w3.org/1999/02/22-rdf-syntax-ns#"
   xmlns:svg="http://www.w3.org/2000/svg"
   xmlns="http://www.w3.org/2000/svg"
   xmlns:sodipodi="http://sodipodi.sourceforge.net/DTD/sodipodi-0.dtd"
   xmlns:inkscape="http://www.inkscape.org/namespaces/inkscape"
   id="svg2"
   version="1.1"
   inkscape:version="0.91 r13725"
   width="305"
   height="305"
   viewBox="0 0 305 305"
   sodipodi:docname="trust-icon-community_.svg">
  <metadata
     id="metadata8">
    <rdf:RDF>
      <cc:Work
         rdf:about="">
        <dc:format>image/svg+xml</dc:format>
        <dc:type
           rdf:resource="http://purl.org/dc/dcmitype/StillImage" />
        <dc:title />
      </cc:Work>
    </rdf:RDF>
  </metadata>
  <defs
     id="defs6" />
  <sodipodi:namedview
     pagecolor="#ffffff"
     bordercolor="#666666"
     borderopacity="1"
     objecttolerance="10"
     gridtolerance="10"
     guidetolerance="10"
     inkscape:pageopacity="0"
     inkscape:pageshadow="2"
     inkscape:window-width="1920"
     inkscape:window-height="1137"
     id="namedview4"
     showgrid="false"
     inkscape:zoom="2"
     inkscape:cx="63.28711"
     inkscape:cy="89.110169"
     inkscape:window-x="-8"
     inkscape:window-y="-8"
     inkscape:window-maximized="1"
     inkscape:current-layer="svg2" />
  <path
     style="fill:#000000"
     d="m 31.70668,206.7723 c -14.82456,0.44164 -6.06194,-22.04404 4.38752,-22.98845 8.55681,-3.45646 24.11343,-2.47514 25.52629,-14.16361 -4.57206,-12.11766 -10.93603,-23.95162 -12.1197,-37.07701 1.84935,-9.15876 5.72717,-19.57945 15.22069,-23.15257 13.75215,-7.71807 32.34933,0.68338 36.70213,15.57468 4.19858,10.1458 0.15193,21.1791 -2.51597,31.17697 -4.6959,11.13788 -17.8124,16.8135 -20.39887,28.96675 -3.84505,8.0428 2.10821,24.40346 -12.30969,22.05512 -11.49507,0.15704 -23.0039,0.0336 -34.4924,-0.39188 z m 62.72866,-25.39018 c 10.00272,-6.58265 23.32359,-4.52781 33.00185,-12.02487 11.67913,-5.44349 3.37835,-16.92731 -0.0599,-24.96932 C 122.0066,130.32518 115.15719,113.64719 123.356,99.26814 127.35328,87.29512 140.12746,79.79208 152.5,81 c 13.7115,-1.49461 26.52393,8.45109 30.60677,21.24961 6.42498,14.7179 -0.74824,30.21931 -6.26475,43.93744 -4.59173,8.07313 -10.54771,19.35136 2.02519,23.90469 10.01488,7.14373 23.80818,4.35325 33.21094,12.57915 4.43602,5.599 11.19962,21.50651 0.67152,23.97042 -40.43417,1.4457 -80.91679,0.60345 -121.37331,0.82596 -7.30851,-6.93996 -2.96178,-22.02251 3.05898,-26.08515 z m 137.44046,25.02366 c -8.56962,-5.57445 -1.1536,-19.10765 -7.84543,-26.7824 -6.564,-11.04584 -19.94554,-18.80169 -20.14284,-33.01516 -0.98363,-11.07059 -3.3791,-24.86364 6.50457,-32.86638 10.9734,-10.69822 31.17612,-9.37641 39.44051,4.00242 8.09711,10.00438 4.79002,24.11539 0.80834,35.13591 -3.30981,7.97485 -13.06332,21.28539 -0.0685,25.86419 9.38311,3.87091 22.2341,3.09442 28.08862,12.90392 3.08402,7.34488 1.69816,17.92473 -8.77344,15.05775 -12.63521,0.39098 -25.42983,1.13015 -38.01185,-0.30025 z"
     id="path3333"
     inkscape:connector-curvature="0"
     sodipodi:nodetypes="ccccccccccccccccccccccccccccccccc" />
</svg>
