<?xml version="1.0" encoding="iso-8859-1"?>
<!-- Generator: Adobe Illustrator 16.0.0, SVG Export Plug-In . SVG Version: 6.00 Build 0)  -->
<!DOCTYPE svg PUBLIC "-//W3C//DTD SVG 1.1//EN" "http://www.w3.org/Graphics/SVG/1.1/DTD/svg11.dtd">
<svg version="1.1" id="Capa_1" xmlns="http://www.w3.org/2000/svg" xmlns:xlink="http://www.w3.org/1999/xlink" x="0px" y="0px"
	 width="443.313px" height="443.313px" viewBox="0 0 443.313 443.313" style="enable-background:new 0 0 443.313 443.313;"
	 xml:space="preserve">
<g>
	<path d="M332.352,133.063V243.95h7.572l-11.357,19.627l-11.359-19.627h7.572V133.063h-7.572l11.359-19.627l11.357,19.627H332.352z
		 M250.985,302.909v7.572h-95.973v-7.572l-19.627,11.358l19.627,11.359v-7.572h96.204v7.572l19.629-11.359l-19.629-11.358H250.985z
		 M385.129,358.854c-0.85,1.159-1.699,2.24-2.627,3.322c-22.795,27.277-46.672,54.014-69.855,81.137H51.698V0h339.768
		c0,4.713,0,9.427,0,14.141c0,24.109,0,48.218,0,72.327c0,34.232,0,68.464,0,102.696c0,32.532,0,65.141,0,97.672
		c0,11.978,0,23.955,0,35.932C391.465,335.595,393.167,347.805,385.129,358.854z M354.53,354.913h-44.199v49.146L354.53,354.913z
		 M369.444,22.177H73.875v399.114h214.2v-77.505c0-6.182,4.945-11.127,11.127-11.127h70.242l0,0V22.177z M205.084,103.313
		c0.464,0,1.159,0.232,1.623,0.232h125.645c2.164,0,3.787-1.623,3.787-3.787s-1.623-3.786-3.787-3.786H206.784
		c-1.854,0-3.555,1.623-3.555,4.018c0,0.927,0.464,1.854,0.928,2.396L205.084,103.313z M118.539,177.341H90.18l110.423-75.65
		l110.423,75.65h-30.291v95.973h52.004c2.164,0,3.787,1.623,3.787,3.786c0,2.164-1.623,3.786-3.787,3.786h-52.004v36.859
		c0,2.164-1.623,3.786-3.787,3.786s-3.787-1.622-3.787-3.786v-36.859h-14.682v-73.795h-36.858v73.795h-95.51v52.005
		c0,2.164-1.623,3.786-3.786,3.786s-3.786-1.622-3.786-3.786L118.539,177.341z M155.012,244.027h44.432v-36.937h-44.432V244.027z"/>
</g>
<g>
</g>
<g>
</g>
<g>
</g>
<g>
</g>
<g>
</g>
<g>
</g>
<g>
</g>
<g>
</g>
<g>
</g>
<g>
</g>
<g>
</g>
<g>
</g>
<g>
</g>
<g>
</g>
<g>
</g>
</svg>
