<?xml version="1.0" encoding="utf-8"?>
<!-- Generated by IcoMoon.io -->
<!DOCTYPE svg PUBLIC "-//W3C//DTD SVG 1.1//EN" "http://www.w3.org/Graphics/SVG/1.1/DTD/svg11.dtd">
<svg version="1.1" xmlns="http://www.w3.org/2000/svg" xmlns:xlink="http://www.w3.org/1999/xlink" width="14" height="14" viewBox="0 0 14 14">
<path fill="#fff" d="M1.723 3.906c-0.512 0.333-1.267 2.136-1.332 2.32-0.059 0.168-0.124 0.225-0.171 0.266-0.015 0.013-0.028 0.025-0.039 0.038-0.052 0.063-0.198 0.442-0.18 0.543 0.003 0.016 0.010 0.027 0.021 0.033l0.008 0.004h0.006c0.025 0 0.032-0.021 0.052-0.078 0.033-0.093 0.094-0.265 0.244-0.413 0.123-0.121 0.275-0.351 0.462-0.702 0.107-0.2 0.657-1.103 0.933-1.393l0.044-0.047c0.109-0.117 0.155-0.166 0.268-0.166 0.043 0 0.098 0.007 0.173 0.023-0.151 0.288-0.347 0.715-0.424 1.015-0.085 0.334-0.229 1.141-0.123 1.187l0.013 0.003c0.039 0 0.052-0.054 0.092-0.231 0.043-0.191 0.108-0.479 0.24-0.83 0.142-0.379 0.379-0.754 0.555-1.032 0.152 0.054 0.331 0.12 0.503 0.184 0.278 0.103 0.566 0.21 0.748 0.266 0.324 0.098 1.223 0.377 1.426 0.45 0.047 0.017 0.089 0.039 0.125 0.066-0.283 0.13-0.503 0.317-0.705 0.599-0.181-0.089-0.457-0.18-0.653-0.214-0.058-0.009-0.126-0.014-0.202-0.014-0.346 0-0.816 0.1-1.085 0.32-0.341 0.178-0.501 0.748-0.542 0.918-0.057 0.241-0.106 0.544-0.056 0.608 0.008 0.011 0.020 0.017 0.033 0.017 0.043-0.001 0.061-0.063 0.102-0.201 0.040-0.136 0.095-0.322 0.193-0.504 0.058-0.107 0.116-0.204 0.172-0.297 0.077-0.129 0.15-0.251 0.209-0.377 0.061 0.011 0.143-0 0.254-0.017 0.1-0.015 0.226-0.034 0.386-0.042 0.051-0.002 0.102-0.001 0.151 0.001 0.030 0.001 0.061 0.002 0.090 0.002 0.081 0 0.176-0.007 0.269-0.055 0.064 0.039 0.221 0.098 0.478 0.179-0.067 0.124-0.13 0.256-0.191 0.402-0.108 0.258-0.173 0.528-0.195 0.804-0.003-0.001-0.006-0.002-0.009-0.003-0.084-0.026-0.205-0.041-0.334-0.041-0.13 0-0.327 0.015-0.527 0.087-0.142 0.018-0.82 0.562-0.888 0.669-0.064 0.101-0.035 0.211-0.025 0.242-0.013 0.045-0.065 0.263 0.025 0.593 0.055 0.203 0.39 0.989 0.506 0.989 0 0 0 0 0 0 0.012-0.001 0.022-0.008 0.030-0.018 0.034-0.049-0.001-0.209-0.068-0.487-0.025-0.103-0.050-0.21-0.068-0.304-0.024-0.124-0.027-0.24-0.030-0.343-0.005-0.152-0.008-0.274-0.073-0.362 0.169-0.3 0.647-0.641 0.711-0.686 0.027 0.003 0.11 0.010 0.211 0.010 0.067 0 0.129-0.003 0.183-0.010 0.106 0.087 0.269 0.183 0.277 0.188l0.118 0.062c0.064 0.631 0.327 1.144 0.906 1.768 0.891 0.959 1.415 1.418 1.979 1.43h0.001c0.565-0.012 1.088-0.471 1.979-1.43 0.579-0.624 0.842-1.137 0.906-1.768l0.119-0.062c0.007-0.004 0.17-0.1 0.276-0.187 0.055 0.006 0.117 0.010 0.183 0.010 0.101 0 0.184-0.007 0.211-0.010 0.064 0.045 0.543 0.386 0.711 0.686-0.065 0.088-0.068 0.21-0.073 0.362-0.003 0.102-0.007 0.219-0.030 0.343-0.018 0.094-0.044 0.201-0.068 0.304-0.066 0.278-0.102 0.438-0.068 0.487 0.007 0.010 0.018 0.017 0.034 0.018 0.111 0 0.446-0.786 0.501-0.989 0.090-0.33 0.038-0.548 0.025-0.593 0.010-0.031 0.039-0.141-0.025-0.242-0.068-0.107-0.746-0.651-0.888-0.669-0.201-0.072-0.397-0.087-0.527-0.087-0.128 0-0.25 0.015-0.334 0.041-0.003 0.001-0.005 0.002-0.008 0.003-0.021-0.276-0.087-0.546-0.195-0.804-0.062-0.147-0.125-0.279-0.191-0.402 0.258-0.081 0.415-0.139 0.478-0.179 0.093 0.048 0.187 0.055 0.269 0.055 0.030 0 0.060-0.001 0.090-0.002 0.049-0.002 0.099-0.003 0.151-0.001 0.16 0.008 0.285 0.026 0.386 0.042 0.111 0.017 0.192 0.028 0.254 0.017 0.059 0.125 0.132 0.248 0.209 0.377 0.056 0.094 0.114 0.191 0.172 0.297 0.098 0.182 0.153 0.368 0.193 0.504 0.041 0.137 0.059 0.2 0.102 0.201 0.013 0 0.024-0.006 0.033-0.017 0.051-0.064 0.002-0.368-0.056-0.608-0.041-0.17-0.201-0.74-0.538-0.915-0.273-0.223-0.744-0.323-1.089-0.323-0.077 0-0.144 0.005-0.202 0.014-0.196 0.034-0.472 0.125-0.653 0.214-0.202-0.283-0.422-0.469-0.705-0.599 0.036-0.027 0.078-0.049 0.125-0.066 0.204-0.073 1.103-0.352 1.426-0.45 0.182-0.056 0.47-0.163 0.748-0.266 0.172-0.064 0.351-0.13 0.503-0.184 0.176 0.278 0.412 0.653 0.555 1.032 0.132 0.351 0.197 0.639 0.24 0.83 0.040 0.177 0.052 0.231 0.092 0.231l0.013-0.003c0.107-0.047-0.038-0.853-0.123-1.187-0.076-0.3-0.273-0.727-0.424-1.015 0.075-0.016 0.13-0.023 0.173-0.023 0.113 0 0.159 0.048 0.268 0.166l0.044 0.047c0.276 0.291 0.826 1.193 0.933 1.393 0.187 0.352 0.339 0.582 0.462 0.702 0.15 0.147 0.211 0.32 0.244 0.413 0.020 0.057 0.028 0.078 0.052 0.078l0.008-0.001 0.006-0.003c0.011-0.006 0.018-0.018 0.021-0.033 0.018-0.1-0.128-0.479-0.18-0.543-0.011-0.013-0.024-0.025-0.039-0.038-0.047-0.041-0.111-0.098-0.171-0.266-0.065-0.184-0.82-1.987-1.332-2.32-0.022-0.014-0.053-0.021-0.095-0.021-0.089 0-0.22 0.032-0.359 0.067-0.072 0.018-0.146 0.036-0.218 0.051-0.055-0.223-0.368-1.014-0.781-1.014-0.098 0-0.194 0.044-0.287 0.131-0.35 0.050-0.867 0.289-1.459 0.675-0.093 0.061-0.179 0.119-0.257 0.172-0.291 0.197-0.494 0.335-0.655 0.314l-0.022-0.011c-0.021-0.032-0.032-0.046-0.040-0.054 0.075-0.027 0.178-0.076 0.243-0.154 0.145-0.169 0.067-0.612-0.016-0.851-0.014-0.040-0.027-0.080-0.039-0.118-0.057-0.178-0.106-0.331-0.24-0.396-0.026-0.013-0.065-0.019-0.115-0.019-0.118 0-0.287 0.037-0.335 0.087-0.011 0.012-0.017 0.024-0.017 0.037 0.001 0.053 0.049 0.082 0.105 0.114 0.062 0.037 0.139 0.083 0.2 0.179 0.044 0.070 0.091 0.191 0.133 0.298 0.020 0.051 0.038 0.099 0.055 0.137 0.032 0.072 0.088 0.28 0.038 0.368-0.030 0.050-0.094 0.077-0.147 0.091-0.030-0.040-0.070-0.074-0.123-0.103s-0.109-0.043-0.167-0.043c-0.073 0-0.13 0.022-0.157 0.035-0.049-0.042-0.231-0.183-0.479-0.183-0.011 0-0.020 0.001-0.030 0.002l-0.012 0.001-0.014-0.001c-0.010-0.001-0.019-0.002-0.030-0.002-0.248 0-0.43 0.141-0.479 0.183-0.027-0.013-0.084-0.035-0.157-0.035-0.058 0-0.115 0.014-0.167 0.043s-0.093 0.062-0.123 0.103c-0.053-0.014-0.117-0.041-0.147-0.091-0.051-0.088 0.005-0.296 0.038-0.368 0.016-0.037 0.035-0.085 0.055-0.136 0.041-0.107 0.088-0.228 0.133-0.298 0.061-0.096 0.138-0.142 0.2-0.179 0.055-0.033 0.103-0.061 0.105-0.115 0-0.013-0.005-0.026-0.017-0.037-0.048-0.050-0.217-0.087-0.335-0.087-0.050 0-0.089 0.006-0.115 0.019-0.134 0.065-0.183 0.219-0.24 0.396-0.012 0.038-0.025 0.078-0.039 0.118-0.083 0.239-0.162 0.682-0.017 0.85 0.065 0.077 0.169 0.127 0.243 0.154-0.008 0.008-0.018 0.022-0.040 0.054l-0.022 0.011c-0.162 0.020-0.364-0.117-0.654-0.314-0.079-0.053-0.164-0.111-0.257-0.172-0.591-0.386-1.109-0.625-1.459-0.675-0.092-0.087-0.189-0.131-0.287-0.131-0.413 0-0.726 0.791-0.781 1.014-0.072-0.015-0.146-0.033-0.218-0.051-0.139-0.034-0.269-0.067-0.359-0.067-0.042-0-0.073 0.007-0.096 0.021zM3.338 3.429c0.46 0.426 1.038 0.748 1.294 0.852 0.138 0.056 0.327 0.119 0.494 0.175 0.154 0.052 0.312 0.105 0.336 0.122 0.037 0.027 0.1 0.108 0.128 0.145-0.034 0.080-0.061 0.156-0.081 0.232-0.016-0.004-0.033-0.010-0.051-0.016-0.085-0.029-0.189-0.078-0.332-0.146-0.123-0.059-0.276-0.132-0.47-0.217-0.073-0.032-0.156-0.065-0.244-0.097-0.445-0.163-1.055-0.323-1.578-0.411-0.013-0.002-0.026-0.005-0.039-0.007 0.117-0.206 0.355-0.608 0.527-0.631 0.005-0.001 0.011-0.002 0.016-0.002zM8.594 4.559c0.052-0.038 0.554-0.187 0.835-0.3s0.85-0.441 1.294-0.853c0.186-0.015 0.435 0.402 0.591 0.675-0.617 0.097-1.423 0.315-1.89 0.519-0.491 0.215-0.716 0.351-0.88 0.385-0.024-0.095-0.056-0.183-0.091-0.265 0.021-0.028 0.097-0.129 0.142-0.161z"></path>
</svg>
