<?xml version="1.0" encoding="utf-8"?>
<!-- Generated by IcoMoon.io -->
<!DOCTYPE svg PUBLIC "-//W3C//DTD SVG 1.1//EN" "http://www.w3.org/Graphics/SVG/1.1/DTD/svg11.dtd">
<svg version="1.1" xmlns="http://www.w3.org/2000/svg" xmlns:xlink="http://www.w3.org/1999/xlink" width="14" height="14" viewBox="0 0 14 14">
<path fill="#fff" d="M13.358 12.724h-12.722c-0.351 0-0.636 0.285-0.636 0.637s0.285 0.636 0.636 0.636h12.721c0.351 0 0.636-0.285 0.636-0.636s-0.285-0.637-0.636-0.637z"></path>
<path fill="#fff" d="M1.431 11.070c-0.351 0-0.636 0.285-0.636 0.636s0.285 0.637 0.636 0.637h11.131c0.351 0 0.636-0.285 0.636-0.637s-0.285-0.636-0.636-0.636h-0.159v-5.725h0.159c0.176 0 0.318-0.142 0.318-0.318s-0.142-0.318-0.318-0.318h-11.131c-0.176 0-0.318 0.142-0.318 0.318s0.142 0.318 0.318 0.318h0.159v5.725h-0.159zM11.131 5.345v5.725h-1.908v-5.725h1.908zM7.951 5.345v5.725h-1.908v-5.725h1.908zM2.862 5.345h1.908v5.725h-1.908v-5.725z"></path>
<path fill="#fff" d="M0.636 4.138h12.721c0.002 0 0.004 0 0.006 0 0.352 0 0.636-0.285 0.636-0.636 0-0.279-0.18-0.516-0.43-0.602l-6.312-2.84c-0.166-0.074-0.356-0.074-0.522 0l-6.361 2.862c-0.274 0.123-0.424 0.421-0.361 0.714s0.322 0.502 0.622 0.502z"></path>
</svg>
