<?xml version="1.0" encoding="utf-8"?>
<!-- Generated by IcoMoon.io -->
<!DOCTYPE svg PUBLIC "-//W3C//DTD SVG 1.1//EN" "http://www.w3.org/Graphics/SVG/1.1/DTD/svg11.dtd">
<svg version="1.1" xmlns="http://www.w3.org/2000/svg" xmlns:xlink="http://www.w3.org/1999/xlink" width="14" height="14" viewBox="0 0 14 14">
<path fill="#fff" d="M5.25 5.8l6.5-2.8-7-3v12h0.5z"></path>
<path fill="#fff" d="M7 9.5c-0.45 0-0.85 0-1.25 0.050v1.6c0.3 0.15 0.5 0.35 0.5 0.6 0 0.4-0.55 0.75-1.25 0.75s-1.25-0.35-1.25-0.75c0-0.25 0.2-0.45 0.5-0.6v-1.4c-1.8 0.4-3 1.1-3 2 0 1.25 2.55 2.25 5.75 2.25s5.75-1 5.75-2.25-2.55-2.25-5.75-2.25zM9 12c-0.4 0-0.75-0.2-0.75-0.5s0.35-0.5 0.75-0.5 0.75 0.2 0.75 0.5-0.35 0.5-0.75 0.5z"></path>
<path fill="#fff" d="M9.907 11.731c0 0.483-0.385 0.875-0.86 0.875s-0.86-0.392-0.86-0.875c0-0.483 0.385-0.875 0.86-0.875s0.86 0.392 0.86 0.875z"></path>
<path fill="#fff" d="M5.487 4.746l-0.030-3.708 4.686 1.958z"></path>
<path fill="#fff" d="M5.495 2.89c-0.005-0.991-0.009-1.804-0.009-1.807 0.001-0.009 4.531 1.887 4.547 1.903 0.008 0.008-0.024 0.029-0.072 0.047-0.958 0.365-4.416 1.66-4.433 1.66-0.013 0-0.028-0.811-0.033-1.802z"></path>
</svg>
