<?xml version="1.0" encoding="utf-8"?>
<!-- Generated by IcoMoon.io -->
<!DOCTYPE svg PUBLIC "-//W3C//DTD SVG 1.1//EN" "http://www.w3.org/Graphics/SVG/1.1/DTD/svg11.dtd">
<svg version="1.1" xmlns="http://www.w3.org/2000/svg" xmlns:xlink="http://www.w3.org/1999/xlink" width="14" height="14" viewBox="0 0 14 14">
<path fill="#fff" d="M10.821 7.439c-0.018-1.773 1.446-2.623 1.511-2.666-0.822-1.203-2.103-1.368-2.56-1.387-1.090-0.11-2.127 0.642-2.681 0.642-0.552 0-1.406-0.626-2.31-0.609-1.188 0.018-2.284 0.691-2.896 1.755-1.235 2.142-0.316 5.316 0.887 7.054 0.588 0.85 1.289 1.806 2.21 1.772 0.887-0.035 1.222-0.574 2.294-0.574s1.373 0.574 2.311 0.556c0.954-0.018 1.558-0.867 2.142-1.72 0.675-0.987 0.953-1.942 0.97-1.991-0.021-0.010-1.86-0.714-1.879-2.832zM9.058 2.236c0.489-0.593 0.818-1.415 0.728-2.236-0.704 0.029-1.557 0.469-2.062 1.060-0.453 0.525-0.85 1.362-0.743 2.166 0.786 0.061 1.588-0.399 2.077-0.991z"></path>
</svg>
