<?xml version="1.0" encoding="utf-8"?>
<!-- Generated by IcoMoon.io -->
<!DOCTYPE svg PUBLIC "-//W3C//DTD SVG 1.1//EN" "http://www.w3.org/Graphics/SVG/1.1/DTD/svg11.dtd">
<svg version="1.1" xmlns="http://www.w3.org/2000/svg" xmlns:xlink="http://www.w3.org/1999/xlink" width="14" height="14" viewBox="0 0 14 14">
<path fill="#fff" d="M9.926 5.25v-1.176h-5.852v1.176h5.852zM9.926 7.574v-1.148h-5.852v1.148h5.852zM8.176 9.926v-1.176h-4.102v1.176h4.102zM7 1.75c-0.328 0-0.574 0.246-0.574 0.574s0.246 0.602 0.574 0.602 0.574-0.273 0.574-0.602-0.246-0.574-0.574-0.574zM11.074 1.75c0.629 0 1.176 0.547 1.176 1.176v8.148c0 0.629-0.547 1.176-1.176 1.176h-8.148c-0.629 0-1.176-0.547-1.176-1.176v-8.148c0-0.629 0.547-1.176 1.176-1.176h2.434c0.246-0.684 0.875-1.176 1.641-1.176s1.395 0.492 1.641 1.176h2.434z"></path>
</svg>
