<?xml version="1.0" encoding="utf-8"?>
<!-- Generated by IcoMoon.io -->
<!DOCTYPE svg PUBLIC "-//W3C//DTD SVG 1.1//EN" "http://www.w3.org/Graphics/SVG/1.1/DTD/svg11.dtd">
<svg version="1.1" xmlns="http://www.w3.org/2000/svg" xmlns:xlink="http://www.w3.org/1999/xlink" width="14" height="14" viewBox="0 0 14 14">
<path fill="#fff" d="M5.912 12.88h2.176c-0.043 0.32-0.165 0.587-0.368 0.8s-0.443 0.32-0.72 0.32c-0.277 0-0.517-0.107-0.72-0.32s-0.325-0.48-0.368-0.8zM5.384 12.448h3.232l0.144-1.184h-3.536l0.16 1.184zM11.48 4.448c0 1.163-0.395 2.171-1.184 3.024-0.011 0.011-0.032 0.037-0.064 0.080-0.053 0.085-0.107 0.176-0.16 0.272-0.128 0.224-0.251 0.475-0.368 0.752s-0.219 0.555-0.304 0.832c-0.021 0.027-0.037 0.075-0.048 0.144s-0.021 0.115-0.032 0.136c-0.011 0.021-0.019 0.056-0.024 0.104s-0.008 0.072-0.008 0.072v0.952h-4.576v-0.928l-0.008-0.056c-0.005-0.037-0.019-0.099-0.040-0.184s-0.043-0.165-0.064-0.24c-0.085-0.277-0.187-0.555-0.304-0.832-0.117-0.256-0.251-0.517-0.4-0.784-0.064-0.107-0.123-0.197-0.176-0.272-0.011-0.021-0.027-0.048-0.048-0.080v-0.016c-0.768-0.843-1.152-1.835-1.152-2.976 0-1.227 0.44-2.275 1.32-3.144s1.933-1.304 3.16-1.304 2.28 0.435 3.16 1.304 1.32 1.917 1.32 3.144zM10.456 4.448c0-0.949-0.339-1.757-1.016-2.424s-1.491-1-2.44-1-1.763 0.333-2.44 1-1.016 1.475-1.016 2.424c0 0.875 0.293 1.637 0.88 2.288 0.043 0.053 0.101 0.128 0.176 0.224 0.053 0.096 0.112 0.203 0.176 0.32 0.171 0.299 0.32 0.592 0.448 0.88 0.139 0.309 0.261 0.624 0.368 0.944 0.085 0.299 0.133 0.528 0.144 0.688h2.528c0.011-0.16 0.059-0.389 0.144-0.688 0.096-0.32 0.213-0.635 0.352-0.944s0.277-0.592 0.416-0.848c0.064-0.107 0.133-0.213 0.208-0.32 0.064-0.107 0.117-0.181 0.16-0.224 0.608-0.651 0.912-1.424 0.912-2.32zM7.816 5.68l-0.448-0.896-0.368-0.72-0.368 0.72-0.448 0.896-0.448-0.896-0.72 0.368 0.816 1.616 0.352 0.736 0.816-1.632 0.816 1.632 0.352-0.736 0.816-1.616-0.72-0.368-0.448 0.896z"></path>
<path fill="#fff" d="M9.165 5.309c0 1.442-0.976 2.61-2.18 2.61s-2.18-1.169-2.18-2.61c0 0 0 0 0 0 0-1.442 0.976-2.61 2.18-2.61s2.18 1.169 2.18 2.61c0 0 0 0 0 0z"></path>
<path fill="#fff" d="M5.854 9.692c-0-0.045-0.033-0.21-0.073-0.368-0.209-0.82-0.81-2.074-1.271-2.65-0.307-0.384-0.423-0.566-0.556-0.875-0.209-0.483-0.25-0.71-0.248-1.364 0.002-0.528 0.008-0.603 0.080-0.866 0.344-1.272 1.459-2.278 2.756-2.486 0.37-0.059 1.133-0.024 1.479 0.068 0.95 0.252 1.781 0.946 2.213 1.846 0.583 1.216 0.388 2.635-0.507 3.678-0.522 0.608-1.166 2.014-1.321 2.885l-0.038 0.215h-2.512l-0-0.082z"></path>
<path fill="#fff" d="M5.873 4.123c0 0.229-0.186 0.415-0.415 0.415s-0.415-0.186-0.415-0.415c0-0.229 0.186-0.415 0.415-0.415s0.415 0.186 0.415 0.415z"></path>
<path fill="#fff" d="M8.602 4.093c0 0.229-0.186 0.415-0.415 0.415s-0.415-0.186-0.415-0.415c0-0.229 0.186-0.415 0.415-0.415s0.415 0.186 0.415 0.415z"></path>
<path fill="#fff" d="M4.924 6.318c1.044-1.116 2.66-1.376 3.767 0v0.208c-1.424-1.678-2.682-1.078-3.737-0.030z"></path>
</svg>
