<?xml version="1.0" encoding="utf-8"?>
<!-- Generated by IcoMoon.io -->
<!DOCTYPE svg PUBLIC "-//W3C//DTD SVG 1.1//EN" "http://www.w3.org/Graphics/SVG/1.1/DTD/svg11.dtd">
<svg version="1.1" xmlns="http://www.w3.org/2000/svg" xmlns:xlink="http://www.w3.org/1999/xlink" width="14" height="14" viewBox="0 0 14 14">
<path fill="#fff" d="M13.001 4.837c-0.057-0.426-0.065-1.159 0.331-1.405 0.007-0.005 0.012-0.011 0.019-0.017 0.323-0.103 0.547-0.248 0.371-0.444l-4.767-1.436-7.719 1.073c0 0-0.884 0.126-0.805 1.5 0.043 0.747 0.277 1.115 0.482 1.295l-0.633 0.191c-0.176 0.195 0.048 0.34 0.371 0.444 0.006 0.006 0.011 0.012 0.019 0.017 0.395 0.246 0.387 0.979 0.331 1.405-1.419 0.403-0.91 0.534-0.91 0.534l0.311 0.075c-0.219 0.198-0.436 0.573-0.396 1.285 0.079 1.373 0.805 1.468 0.805 1.468l5.052 1.642 7.625-1.847c0 0 0.51-0.132-0.91-0.535-0.057-0.425-0.065-1.158 0.331-1.405 0.007-0.004 0.013-0.011 0.018-0.017 0.323-0.103 0.547-0.248 0.371-0.444l-0.331-0.1c0.221-0.133 0.553-0.482 0.605-1.386 0.036-0.622-0.126-0.987-0.314-1.201l0.655-0.159c0 0 0.51-0.131-0.91-0.534zM6.624 4.82l6.261-1.287c-0.206 0.378-0.198 0.894-0.163 1.226 0.007 0.075 0.016 0.144 0.024 0.196l-6.176 1.536 0.054-1.672zM1.116 6.156l6.26 1.287 0.054 1.672-6.175-1.536c0.008-0.052 0.017-0.121 0.025-0.196 0.034-0.332 0.043-0.849-0.164-1.226zM0.865 4.043c-0.008-0.365 0.057-0.629 0.189-0.764 0.084-0.086 0.183-0.104 0.25-0.104 0.036 0 0.062 0.005 0.063 0.005l4.986 1.625-0.054 1.683-4.901-1.374c-0.009-0.003-0.021-0.004-0.031-0.005-0.019-0.001-0.479-0.044-0.502-1.068zM5.874 11.735l-4.901-1.374c-0.009-0.003-0.021-0.004-0.031-0.005-0.020-0.001-0.48-0.044-0.502-1.067-0.008-0.366 0.057-0.63 0.189-0.764 0.084-0.086 0.183-0.104 0.25-0.104 0.036 0 0.062 0.005 0.063 0.005 0 0 0 0 0 0l4.985 1.626-0.054 1.683zM12.296 10.005c0.008 0.075 0.016 0.144 0.025 0.196l-6.176 1.536 0.054-1.672 1.32-0.271 0.195 0.047 0.731-0.238 4.015-0.825c-0.206 0.377-0.198 0.894-0.164 1.226zM12.636 7.733c-0.011 0-0.022 0.002-0.033 0.005l-4.901 1.374-0.054-1.683 4.978-1.624c0-0 0.185-0.041 0.321 0.097 0.131 0.134 0.197 0.398 0.189 0.764-0.023 1.024-0.483 1.066-0.5 1.067z"></path>
</svg>
