<?xml version="1.0" encoding="utf-8"?>
<!-- Generated by IcoMoon.io -->
<!DOCTYPE svg PUBLIC "-//W3C//DTD SVG 1.1//EN" "http://www.w3.org/Graphics/SVG/1.1/DTD/svg11.dtd">
<svg version="1.1" xmlns="http://www.w3.org/2000/svg" xmlns:xlink="http://www.w3.org/1999/xlink" width="14" height="14" viewBox="0 0 14 14">
<path fill="#fff" d="M7 11.676c2.57 0 4.676-2.105 4.676-4.676 0-0.465-0.082-0.902-0.191-1.313-0.41 0.109-0.848 0.137-1.313 0.137-1.969 0-3.691-0.957-4.758-2.461-0.574 1.395-1.695 2.543-3.063 3.145-0.027 0.164-0.027 0.328-0.027 0.492 0 2.57 2.105 4.676 4.676 4.676zM7 1.176c3.227 0 5.824 2.598 5.824 5.824s-2.598 5.824-5.824 5.824-5.824-2.598-5.824-5.824 2.598-5.824 5.824-5.824zM8.75 6.863c0.41 0 0.738 0.301 0.738 0.711s-0.328 0.738-0.738 0.738-0.738-0.328-0.738-0.738 0.328-0.711 0.738-0.711zM5.25 6.863c0.41 0 0.738 0.301 0.738 0.711s-0.328 0.738-0.738 0.738-0.738-0.328-0.738-0.738 0.328-0.711 0.738-0.711z"></path>
</svg>
