<?xml version="1.0" encoding="utf-8"?>
<!-- Generated by IcoMoon.io -->
<!DOCTYPE svg PUBLIC "-//W3C//DTD SVG 1.1//EN" "http://www.w3.org/Graphics/SVG/1.1/DTD/svg11.dtd">
<svg version="1.1" xmlns="http://www.w3.org/2000/svg" xmlns:xlink="http://www.w3.org/1999/xlink" width="14" height="14" viewBox="0 0 14 14">
<path fill="#fff" d="M7.055 10.828c2.789-2.516 4.621-4.184 4.621-5.879 0-1.176-0.875-2.023-2.051-2.023-0.902 0-1.777 0.574-2.078 1.367h-1.094c-0.301-0.793-1.176-1.367-2.078-1.367-1.176 0-2.051 0.848-2.051 2.023 0 1.695 1.832 3.363 4.621 5.879l0.055 0.055zM9.625 1.75c1.805 0 3.199 1.395 3.199 3.199 0 2.215-1.969 3.992-4.977 6.727l-0.848 0.766-0.848-0.738c-3.008-2.734-4.977-4.539-4.977-6.754 0-1.805 1.395-3.199 3.199-3.199 1.012 0 1.996 0.492 2.625 1.23 0.629-0.738 1.613-1.23 2.625-1.23z"></path>
</svg>
