<?xml version="1.0" encoding="utf-8"?>
<!-- Generated by IcoMoon.io -->
<!DOCTYPE svg PUBLIC "-//W3C//DTD SVG 1.1//EN" "http://www.w3.org/Graphics/SVG/1.1/DTD/svg11.dtd">
<svg version="1.1" xmlns="http://www.w3.org/2000/svg" xmlns:xlink="http://www.w3.org/1999/xlink" width="14" height="14" viewBox="0 0 14 14">
<path fill="#fff" d="M9.863 1.563c-0.798-0.575-1.8-0.863-3.007-0.863-0.918 0-1.693 0.202-2.322 0.608-0.999 0.634-1.53 1.712-1.594 3.231h2.315c0-0.443 0.129-0.868 0.387-1.28 0.258-0.41 0.696-0.615 1.315-0.615 0.629 0 1.062 0.167 1.298 0.499 0.237 0.334 0.356 0.703 0.356 1.107 0 0.353-0.176 0.676-0.39 0.968-0.117 0.171-0.271 0.328-0.463 0.472 0 0-1.255 0.805-1.806 1.452-0.319 0.375-0.348 0.937-0.377 1.742-0.001 0.057 0.020 0.176 0.221 0.176s1.621 0 1.8 0c0.179 0 0.216-0.132 0.218-0.192 0.013-0.293 0.045-0.443 0.099-0.612 0.101-0.32 0.377-0.599 0.685-0.839l0.637-0.439c0.575-0.449 1.034-0.816 1.237-1.105 0.346-0.473 0.589-1.057 0.589-1.75-0.001-1.13-0.4-1.982-1.198-2.559zM6.819 10.447c-0.797-0.024-1.455 0.528-1.481 1.393-0.024 0.864 0.601 1.436 1.399 1.459 0.832 0.025 1.473-0.509 1.499-1.374 0.024-0.865-0.584-1.453-1.417-1.478z"></path>
</svg>
