<?xml version="1.0" encoding="utf-8"?>
<!-- Generated by IcoMoon.io -->
<!DOCTYPE svg PUBLIC "-//W3C//DTD SVG 1.1//EN" "http://www.w3.org/Graphics/SVG/1.1/DTD/svg11.dtd">
<svg version="1.1" xmlns="http://www.w3.org/2000/svg" xmlns:xlink="http://www.w3.org/1999/xlink" width="14" height="14" viewBox="0 0 14 14">
<path fill="#fff" d="M6.036 3.415c0.322 0.031 0.673 0.119 0.954 0.283 0.049 0.029 0.1 0.048 0.15 0.081 0.082 0.053 0.142 0.137 0.21 0.205 0.081 0.082 0.167 0.16 0.233 0.255 0.131 0.187 0.249 0.383 0.38 0.57 0.216 0.309 0.534 0.608 0.65 0.973-0.105-0.068-0.269-0.103-0.391-0.074-0.148 0.035-0.157 0.201-0.032 0.279 0.163 0.101 0.318 0.261 0.495 0.331 0.061 0.024 0.122 0.052 0.183 0.073 0.121 0.041 0.243 0.048 0.358 0.102 0.195 0.093 0.394 0.195 0.601 0.254 0.228 0.065 0.407 0.219 0.624 0.305 0.425 0.168 0.878 0.267 1.289 0.472-0.265 0.277-0.582 0.491-0.961 0.574-0.457 0.099-1.008 0.020-1.476 0.020-0.259 0-0.41-0.048-0.503 0.226-0.043 0.128-0.063 0.279-0.099 0.415-0.050 0.187 0.301 0.192 0.407 0.196 0.105 0.004 0.209 0.003 0.312-0.014 0.934-0.152 1.862-0.389 2.675-0.886 0.059-0.036 0.118-0.078 0.179-0.11 0.049-0.026 0.099-0.060 0.14-0.098 0.065-0.060 0.091-0.146 0.104-0.231 0.050-0.332-0.176-0.606-0.485-0.688-0.091-0.024-0.183-0.048-0.264-0.097-0.025-0.015-0.117-0.076-0.104-0.113 0.010-0.028 0.113-0.020 0.137-0.025 0.16-0.038 0.309-0.157 0.45-0.236 0.173-0.097 0.027-0.491-0.065-0.643-0.097-0.16-0.49-0.235-0.665-0.321-0.193-0.095-0.383-0.195-0.582-0.279-0.467-0.198-0.992-0.214-1.493-0.152-0.14 0.017-0.279 0.045-0.413 0.090s-0.156 0.124-0.237-0.018c-0.105-0.184-0.211-0.368-0.321-0.55-0.251-0.413-0.529-0.816-0.881-1.151-0.165-0.158-0.366-0.365-0.596-0.394-0.185-0.023-0.413-0.035-0.582-0.101-0.149-0.058-0.379-0.001-0.497-0.127 0.015-0.189-0.008-0.38-0.094-0.551-0.059-0.118-0.144-0.22-0.232-0.317-0.073-0.081-0.113-0.147-0.235-0.147-0.061 0-0.162 0.049-0.198-0.012-0.003-0.005-0.005-0.010-0.007-0.016-0.020-0.065-0.002-0.131-0.021-0.196-0.018-0.064-0.048-0.125-0.081-0.182-0.071-0.123-0.167-0.229-0.269-0.326-0.201-0.193-0.433-0.352-0.621-0.557-0.213-0.233-0.376-0.457-0.705-0.5s-0.487 0.037-0.63 0.337c-0.226 0.471-0.568 0.902-0.76 1.398-0.113 0.292-0.236 0.593-0.147 0.91 0.213 0.11 0.484-0.043 0.713 0-0.045 0.179-0.487 1.364 0.143 1.033 0.086-0.045 0.515-0.208 0.414 0.003-0.095 0.198-0.227 0.375-0.266 0.596-0.081 0.45 0.926 0.002 0.859 0.533-0.024 0.193-0.046 0.456-0.223 0.552-0.149 0.081-0.219 0.225-0.412 0.212 0.088-0.244 0.153-0.431 0.061-0.678-0.069-0.184-0.513-0.183-0.694-0.193 0.038-0.144 0.231-0.685 0.086-0.788-0.136-0.096-0.339-0.001-0.489-0.058-0.182-0.070-0.038-0.295 0.011-0.416 0.063-0.153 0.137-0.478 0.035-0.638-0.224-0.086-0.532 0.135-0.69 0.029-0.163-0.11-0.398-0.065-0.577-0.027-0.218 0.046-0.357 0.231-0.447 0.435-0.109 0.246-0.036 0.393 0.061 0.621 0.093 0.217 0.228 0.413 0.378 0.585 0.17 0.195 0.266 0.43 0.403 0.652 0.282 0.492 0.502 1.018 0.68 1.555 0.162 0.491-0.018 1-0.217 1.458-0.042 0.097-0.124 0.256-0.004 0.318 0.083 0.043 0.232 0.097 0.323 0.058 0.085-0.037 0.132-0.143 0.161-0.223 0.028-0.078 0.064-0.146 0.12-0.212 0.063 0.075 0.003 0.287-0.015 0.373-0.033 0.161-0.099 0.313-0.16 0.465-0.051 0.128-0.123 0.237-0.19 0.357-0.073 0.131-0.235 0.291-0.184 0.456 0.049 0.16 0.25 0.126 0.363 0.064 0.057-0.032 0.111-0.068 0.164-0.106 0.032-0.023 0.047-0.061 0.074-0.089 0.022-0.023 0.057-0.072 0.091-0.073 0.067-0.002-0.257 1.011-0.294 1.109-0.062 0.162-0.377 0.66-0.277 0.823 0.083 0.295 0.504 0.057 0.676 0.063 0.003 0 0.005 0.003 0.006 0.005 0.017 0.029-0.013 0.103-0.020 0.131-0.022 0.082-0.049 0.163-0.077 0.243-0.064 0.184-0.13 0.373-0.217 0.547-0.043 0.087-0.075 0.181-0.132 0.26-0.058 0.079-0.121 0.156-0.18 0.236-0.092 0.124-0.256 0.324-0.084 0.45 0.065 0.048 0.149 0.014 0.221 0.036 0.075 0.023 0.115 0.044 0.202 0.024 0.29-0.068 0.692 0.029 0.95-0.131 0.048-0.030 0.121-0.079 0.116-0.145-0.004-0.053-0.058-0.090-0.099-0.115-0.119-0.072-0.271-0.123-0.406-0.152-0.050-0.011-0.061-0.030-0.023-0.072 0.033-0.037 0.058-0.076 0.082-0.119 0.056-0.1 0.102-0.206 0.138-0.315 0.072-0.217 0.107-0.448 0.095-0.677-0.002-0.040-0.006-0.080-0.011-0.12-0.027-0.207-0.046-0.47-0.208-0.624-0.139-0.028-0.222 0.095-0.356 0.079 0.289-0.646 0.475-1.309 0.475-2.019 0-0.102-0.008-0.698-0.274-0.432-0.052 0.052-0.052 0.148-0.070 0.215-0.009 0.031-0.020 0.070-0.047 0.091-0.022 0.017-0.083 0.031-0.091-0.002-0.004-0.016 0.006-0.030 0.012-0.043 0.024-0.047 0.056-0.093 0.071-0.144 0.016-0.056 0.028-0.114 0.037-0.171 0.018-0.118 0.024-0.238 0.023-0.357-0.003-0.242-0.033-0.482-0.050-0.723-0.005-0.066-0.008-0.132-0.009-0.199-0.005-0.247-0.113-0.457-0.12-0.702-0.004-0.161-0.074-0.173-0.158-0.3-0.058-0.087-0.079-0.21-0.116-0.306-0.19-0.498-0.447-0.925-0.711-1.375-0.114-0.194-0.275-0.359-0.403-0.545-0.098-0.144-0.216-0.323-0.195-0.506 0.013-0.116 0.103-0.072 0.192-0.046 0.097 0.029 0.189 0.072 0.279 0.119 0.159 0.084 0.169 0.119 0.245 0.281 0.116 0.246 0.279 0.467 0.395 0.714 0.201 0.429 0.293 0.818 0.609 1.192 0.077 0.091 0.248 0.166 0.37 0.193 0.090 0.020 0.146-0.029 0.209 0.047 0.042 0.050 0.086 0.095 0.153 0.109 0.297 0.060 0.648-0.186 0.711-0.477 0.088-0.409 0.187-0.858 0.053-1.268-0.126-0.383-0.14-0.788-0.372-1.132-0.192-0.285-0.315-0.611-0.537-0.88-0.229-0.278-0.523-0.463-0.483-0.871 0.087-0.23 0.544-0.693 0.732-0.347 0.128 0.236 0.16 0.29 0.399 0.403 0.183 0.087 0.373 0.063 0.571 0.063 0.17 0 0.187-0.026 0.204 0.199 0.016 0.209-0.045 0.412-0.075 0.617-0.024 0.162 0.216 0.293 0.364 0.192 0.107-0.073 0.064-0.242 0.137-0.339 0.070-0.093 0.28 0.155 0.317 0.227 0.089 0.174 0.010 0.329-0.072 0.485-0.078 0.148-0.162 0.44 0.098 0.43 0.197-0.007 0.368-0.042 0.567-0.022zM11.611 6.022c0.049-0.013 0.068 0.017 0.107 0.036 0.055 0.027 0.119 0.043 0.181 0.041 0.006-0-0.032 0.071-0.037 0.077-0.024 0.027-0.056 0.039-0.088 0.054-0.037 0.017-0.108 0.051-0.15 0.024-0.008-0.005-0.015-0.013-0.020-0.023-0.028-0.056-0.003-0.152 0.008-0.21zM11.337 6.014c0.004 0.059 0.010 0.133 0.033 0.187 0.026 0.062 0.074 0.108 0.092 0.176-0.082-0.005-0.246 0.076-0.307 0.028-0.018-0.014-0.027-0.040-0.023-0.082 0.008-0.077-0.025-0.15-0.056-0.22-0.033-0.073-0.073-0.143-0.105-0.217-0.011-0.024-0.056-0.219-0.064-0.222 0.143 0.058 0.416 0.172 0.429 0.35zM10.597 5.638c0.021 0.135-0.014 0.271 0.031 0.398 0.050 0.142 0.116 0.277 0.162 0.42 0.002 0.005-0.147-0.054-0.159-0.060-0.040-0.019-0.094-0.022-0.127-0.048-0.007-0.006-0.013-0.013-0.019-0.020-0.032-0.044-0.031-0.109-0.034-0.16-0.005-0.077-0.034-0.137-0.062-0.21-0.016-0.042-0.191-0.493-0.194-0.492 0.139-0.017 0.374-0.006 0.401 0.171zM9.721 5.426c0.201 0 0.196 0.146 0.238 0.317 0.062 0.129 0.134 0.252 0.158 0.396-0.070-0.033-0.186-0.058-0.239-0.117-0.011-0.012-0.019-0.025-0.024-0.040-0.030-0.094-0.006-0.182-0.049-0.271-0.010-0.020-0.108-0.284-0.084-0.284zM9.365 5.506c0.013 0.124 0.045 0.253 0.119 0.356 0.017 0.024-0.131 0.038-0.154 0.026-0.049-0.026-0.079-0.085-0.109-0.129-0.015-0.023-0.030-0.054-0.051-0.071-0.022-0.019-0.068-0.023-0.083-0.047-0.003-0.005-0.005-0.009-0.007-0.013-0.055-0.122 0.287-0.106 0.286-0.123zM2.328 2.355c-0.040 0.002-0.125 0.038-0.16 0.015-0.002-0.001-0.004-0.003-0.005-0.005-0.047-0.050 0.039-0.22 0.057-0.27 0.018-0.051 0.034-0.104 0.054-0.154 0.046-0.116 0.119-0.001 0.146 0.063 0.041 0.098 0.048 0.225 0.136 0.296-0.065 0.053-0.15 0.051-0.228 0.055zM1.883 3.408c0.003-0.010-0.115-0.186-0.127-0.214-0.018-0.043-0.034-0.063-0.014-0.090 0.003-0.004 0.007-0.008 0.011-0.013 0.039-0.037 0.161-0.052 0.209-0.040-0.035 0.117-0.045 0.239-0.079 0.356zM2.358 4.397c-0.018 0.041-0.048 0.043-0.096-0.050-0.037-0.070-0.029-0.156-0.061-0.227 0.066 0 0.132 0 0.198 0-0.010 0-0.007 0.202-0.040 0.277zM2.879 5.395c-0.005 0.004-0.011 0.008-0.016 0.010-0.129 0.063-0.21-0.216-0.235-0.293-0.023-0.068-0.073-0.126 0.022-0.132 0.065-0.004 0.117 0.033 0.177 0.049 0.055 0.015 0.113 0.010 0.165 0.041 0.026 0.016-0.081 0.301-0.112 0.324zM3.355 3.97c0.014-0.030 0.112-0.267 0.165-0.24 0.082 0.043 0.164 0.454 0.184 0.548-0.109-0.047-0.23-0.032-0.345-0.053-0.040-0.008-0.064-0.020-0.077-0.037-0.041-0.055 0.041-0.151 0.072-0.219zM2.808 3.111c0.008-0.024 0.070-0.295 0.065-0.297 0.163 0.072 0.198 0.278 0.356 0.356-0.128 0.114-0.316 0.122-0.474 0.164 0-0.002-0-0.004-0-0.006-0.004-0.089 0.027-0.137 0.053-0.217zM7.377 4.819c-0.060-0.060-0.125-0.114-0.19-0.169-0.198-0.167-0.368-0.376-0.531-0.577-0.099-0.122-0.188-0.286-0.337-0.353-0.122-0.055-0.334 0.015-0.403 0.13-0.080 0.134-0.109 0.276-0.114 0.429-0.005 0.175-0.055 0.355-0.025 0.529 0.025 0.143 0.142 0.265 0.23 0.374 0.054 0.067 0.088 0.102 0.163 0.14 0.083 0.043 0.143 0.102 0.234 0.131 0.061 0.019 0.121 0.037 0.184 0.049 0.14 0.028 0.286 0.039 0.429 0.028 0.155-0.013 0.33-0.058 0.438-0.179 0.054-0.060 0.086-0.153 0.089-0.242 0.001-0.049-0.006-0.097-0.024-0.138-0.027-0.062-0.094-0.105-0.142-0.152zM6.316 4.992c-0.001-0.001-0.003-0.002-0.004-0.003-0.135-0.087-0.147-0.257-0.161-0.402-0.011-0.122-0.002-0.243 0.001-0.365 0.001-0.033-0.041-0.153 0.009-0.164 0.046-0.010 0.1 0.111 0.115 0.141 0.031 0.062 0.052 0.128 0.082 0.19 0.024 0.051 0.105 0.119 0.117 0.166 0.052 0.189 0.232 0.322 0.275 0.512-0.142-0.045-0.301 0.007-0.434-0.075zM5.065 7.283c-0.012-0.072-0.020-0.146-0.057-0.21-0.003-0.005-0.006-0.010-0.009-0.015-0.058-0.087-0.259-0.172-0.314-0.038-0.060 0.145-0.088 0.227-0.049 0.399 0.056 0.249 0.113 0.497 0.171 0.745 0.022 0.097 0.065 0.198 0.172 0.224 0.187 0.045 0.216-0.102 0.225-0.253 0.012-0.197-0.003-0.437-0.066-0.625-0.026-0.078-0.058-0.143-0.072-0.227zM3.949 9.705c0.095-0.093 0.117-0.238 0.121-0.364 0.005-0.148-0.015-0.296-0.037-0.442-0.017-0.115-0.005-0.243-0.072-0.343-0.003-0.005-0.007-0.009-0.010-0.014-0.078-0.093-0.272-0.12-0.349-0.013-0.055 0.077-0.060 0.237-0.062 0.327-0.006 0.252 0.026 0.486 0.087 0.727 0.032 0.13 0.216 0.226 0.324 0.122zM12.69 11.364c0.141-0.070 0.275-0.187 0.376-0.305 0.065-0.076 0.077-0.124 0.095-0.217 0.020-0.104 0.085-0.201 0.071-0.311-0.038-0.301-0.497-0.342-0.718-0.415-0.066-0.022-0.14-0.038-0.198-0.077-0.019-0.013-0.132-0.142-0.14-0.139 0.204-0.061 0.492-0.128 0.591-0.341 0.162-0.345-0.2-0.377-0.445-0.373-0.291 0.005-0.571-0.068-0.82-0.22-0.148-0.090-0.3-0.307-0.479-0.335-0.044-0.007-0.074 0.003-0.094 0.022-0.066 0.064-0.022 0.238 0.037 0.299 0.086 0.090 0.144 0.142 0.246 0.237 0.106 0.098 0.266 0.215 0.405 0.253 0.114 0.031 0.291 0.026 0.362 0.14-0.185 0.049-0.41 0.11-0.49 0.307-0.085 0.209 0.152 0.31 0.317 0.341 0.114 0.021 0.215 0.077 0.314 0.133 0.049 0.028 0.098 0.056 0.15 0.079 0.053 0.024 0.109 0.039 0.161 0.065 0.033 0.016 0.057 0.045 0.089 0.061 0.041 0.021 0.090 0.030 0.135 0.041s0.098 0.015 0.139 0.032c0.004 0.002 0.1 0.039 0.054 0.062-0.081 0.040-0.168 0.112-0.235 0.174-0.095 0.089-0.203 0.168-0.305 0.246-0.089 0.068-0.18 0.159-0.172 0.281 0.047 0.416 0.538 0.396 0.752 0.673-0.092 0.053-0.208 0.082-0.275 0.17-0.084 0.11-0.070 0.279 0.088 0.3 0.283 0.038 0.481-0.133 0.711-0.262 0.652-0.367-0.518-0.751-0.722-0.92zM6.498 10.14c0.024-0.145 0.040-0.293 0.043-0.44 0.001-0.056 0.022-0.142 0.015-0.192-0.013-0.098-0.119-0.058-0.171-0.009-0.122 0.117-0.14 0.227-0.173 0.387-0.016 0.079-0.052 0.292-0.114 0.337-0.076-0.079-0.040-0.239-0.057-0.338-0.028-0.161-0.059-0.322-0.116-0.475-0.034-0.092-0.101-0.253-0.195-0.301-0.034-0.018-0.056-0.011-0.070 0.010-0.033 0.049-0.020 0.174-0.018 0.223 0.005 0.119 0.022 0.236 0.048 0.352 0.038 0.169 0.089 0.335 0.129 0.504 0.048 0.202-0.009 0.549 0.184 0.687 0.069 0.050 0.144 0.049 0.211-0.003 0.196-0.154 0.246-0.516 0.283-0.743zM4.878 13.228c-0.173-0.040-0.224 0.104-0.35 0.169-0.026 0.013-0.098 0.057-0.124 0.025-0.036-0.044 0.134-0.232 0.153-0.278 0.047-0.115 0.078-0.24 0.107-0.361 0.059-0.239 0.096-0.482 0.119-0.727 0.019-0.203 0.046-0.445-0.010-0.644-0.021-0.073-0.068-0.188-0.132-0.225-0.039-0.023-0.085-0.017-0.134 0.044-0.034 0.041-0.059 0.265-0.131 0.254-0.137-0.021-0.134 0.442-0.141 0.509-0.029 0.287-0.084 0.57-0.139 0.853-0.027 0.14-0.054 0.279-0.076 0.42-0.059 0.092-0.128 0.179-0.165 0.283-0.074 0.207 0.149 0.541 0.374 0.43 0.159-0.078 0.349-0.152 0.459-0.292 0.048-0.060 0.401-0.41 0.189-0.459zM9.416 11.462c-0.113-0.073-0.397-0.082-0.495 0.020-0.094 0.097-0.182 0.282-0.225 0.411-0.082 0.244-0.117 0.51-0.241 0.738-0.168-0.25-0.324-0.532-0.459-0.801-0.049-0.098-0.106-0.2-0.2-0.26-0.070-0.045-0.192-0.061-0.229 0.039-0.017 0.047-0 0.126 0.009 0.174 0.022 0.121 0.073 0.235 0.13 0.344 0.112 0.213 0.264 0.405 0.366 0.624 0.193 0.414 0.637 0.548 0.815 0.047 0.087-0.245 0.208-0.517 0.361-0.728 0.081-0.112 0.348-0.437 0.197-0.585-0.008-0.008-0.017-0.015-0.027-0.022zM10.773 12.442c-0.108-0.179-0.244-0.618-0.493-0.459-0.26 0.167 0.104 0.589 0.153 0.806 0.104 0.116 0.15 0.329 0.283 0.413 0.060 0.037 0.144 0.058 0.215 0.037 0.008-0.003 0.017-0.005 0.025-0.009 0.095-0.043 0.083-0.136 0.071-0.226-0.028-0.205-0.149-0.389-0.254-0.563zM12.893 12.987c-0.169-0.118-0.349-0.219-0.503-0.364-0.122-0.114-0.289-0.367-0.439-0.217-0.187 0.188 0.007 0.452 0.15 0.597 0.222 0.225 0.516 0.402 0.817 0.498 0.077 0.024 0.165 0.053 0.246 0.053 0.062-0 0.173-0.032 0.213-0.094 0.006-0.010 0.011-0.020 0.013-0.031 0.055-0.255-0.347-0.338-0.496-0.442zM6.261 12.79c-0.021 0-0.037 0.006-0.049 0.016-0.068 0.058 0.016 0.256 0.044 0.309 0.067 0.13 0.165 0.241 0.26 0.351 0.058 0.068 0.415 0.463 0.457 0.169 0.019-0.127-0.241-0.382-0.322-0.468-0.088-0.094-0.242-0.38-0.39-0.377z"></path>
</svg>
