<?xml version="1.0" encoding="utf-8"?>
<!-- Generated by IcoMoon.io -->
<!DOCTYPE svg PUBLIC "-//W3C//DTD SVG 1.1//EN" "http://www.w3.org/Graphics/SVG/1.1/DTD/svg11.dtd">
<svg version="1.1" xmlns="http://www.w3.org/2000/svg" xmlns:xlink="http://www.w3.org/1999/xlink" width="14" height="14" viewBox="0 0 14 14">
<path fill="#fff" d="M8.5 11.936h-0.929v-8.51h3.913l-1.658 2.63c-0.084 0.133-0.044 0.31 0.089 0.394 0.047 0.030 0.1 0.044 0.152 0.044 0.095 0 0.188-0.047 0.242-0.133l1.438-2.281 1.438 2.281c0.084 0.133 0.26 0.173 0.394 0.089s0.173-0.26 0.089-0.394l-1.658-2.63h0.021c0.244 0 0.442-0.198 0.442-0.442s-0.198-0.442-0.442-0.442h-3.255c-0.184-0.267-0.455-0.47-0.773-0.566-0.045-0.514-0.477-0.918-1.003-0.918s-0.958 0.403-1.003 0.918c-0.318 0.096-0.589 0.299-0.773 0.566h-3.255c-0.244 0-0.443 0.198-0.443 0.442s0.198 0.442 0.443 0.442h0.021l-1.658 2.63c-0.084 0.133-0.044 0.31 0.089 0.394 0.047 0.030 0.1 0.044 0.152 0.044 0.095 0 0.188-0.047 0.242-0.133l1.438-2.281 1.438 2.281c0.084 0.133 0.26 0.173 0.394 0.089s0.173-0.26 0.089-0.394l-1.658-2.63h3.913v8.51h-0.929c-0.556 0-1.006 0.451-1.006 1.006h5.011c0-0.556-0.451-1.006-1.006-1.006z"></path>
<path fill="#fff" d="M4.353 6.798h-4.201c-0.084 0-0.152 0.068-0.152 0.152 0 1.242 1.011 2.253 2.253 2.253s2.253-1.011 2.253-2.253c-0-0.084-0.068-0.152-0.152-0.152z"></path>
<path fill="#fff" d="M13.848 6.798h-4.201c-0.084 0-0.152 0.068-0.152 0.152 0 1.242 1.011 2.253 2.253 2.253s2.253-1.011 2.253-2.253c-0-0.084-0.068-0.152-0.152-0.152z"></path>
</svg>
