<?xml version="1.0" encoding="utf-8"?>
<!-- Generated by IcoMoon.io -->
<!DOCTYPE svg PUBLIC "-//W3C//DTD SVG 1.1//EN" "http://www.w3.org/Graphics/SVG/1.1/DTD/svg11.dtd">
<svg version="1.1" xmlns="http://www.w3.org/2000/svg" xmlns:xlink="http://www.w3.org/1999/xlink" width="14" height="14" viewBox="0 0 14 14">
<path fill="#fff" d="M6.019 8.692c-0.182 0-0.364-0.069-0.503-0.208-1.301-1.301-1.301-3.417 0-4.718l2.625-2.625c0.63-0.63 1.468-0.977 2.359-0.977s1.729 0.347 2.359 0.977c1.301 1.301 1.301 3.417 0 4.718l-1.2 1.2c-0.278 0.278-0.728 0.278-1.005 0s-0.278-0.728 0-1.005l1.2-1.2c0.746-0.746 0.746-1.961 0-2.707-0.362-0.362-0.842-0.561-1.353-0.561s-0.992 0.199-1.353 0.561l-2.625 2.625c-0.746 0.746-0.746 1.961 0 2.707 0.278 0.278 0.278 0.728 0 1.005-0.139 0.139-0.321 0.208-0.503 0.208z"></path>
<path fill="#fff" d="M3.5 13.836c-0.891 0-1.729-0.347-2.359-0.977-1.301-1.301-1.301-3.417 0-4.718l1.2-1.2c0.278-0.278 0.728-0.278 1.005 0s0.278 0.728 0 1.005l-1.2 1.2c-0.746 0.746-0.746 1.961 0 2.707 0.361 0.361 0.842 0.561 1.353 0.561s0.992-0.199 1.353-0.561l2.625-2.625c0.746-0.746 0.746-1.961 0-2.707-0.278-0.278-0.278-0.728 0-1.005s0.728-0.278 1.005 0c1.301 1.301 1.301 3.417 0 4.718l-2.625 2.625c-0.63 0.63-1.468 0.977-2.359 0.977z"></path>
</svg>
