<?xml version="1.0" encoding="utf-8"?>
<!-- Generated by IcoMoon.io -->
<!DOCTYPE svg PUBLIC "-//W3C//DTD SVG 1.1//EN" "http://www.w3.org/Graphics/SVG/1.1/DTD/svg11.dtd">
<svg version="1.1" xmlns="http://www.w3.org/2000/svg" xmlns:xlink="http://www.w3.org/1999/xlink" width="14" height="14" viewBox="0 0 14 14">
<path fill="#fff" d="M9.926 4.074c1.613 0 2.898 1.313 2.898 2.926s-1.285 2.926-2.898 2.926h-2.352v-1.121h2.352c0.984 0 1.805-0.82 1.805-1.805s-0.82-1.805-1.805-1.805h-2.352v-1.121h2.352zM4.676 7.574v-1.148h4.648v1.148h-4.648zM2.27 7c0 0.984 0.82 1.805 1.805 1.805h2.352v1.121h-2.352c-1.613 0-2.898-1.313-2.898-2.926s1.285-2.926 2.898-2.926h2.352v1.121h-2.352c-0.984 0-1.805 0.82-1.805 1.805z"></path>
</svg>
