<?xml version="1.0" encoding="utf-8"?>
<!-- Generated by IcoMoon.io -->
<!DOCTYPE svg PUBLIC "-//W3C//DTD SVG 1.1//EN" "http://www.w3.org/Graphics/SVG/1.1/DTD/svg11.dtd">
<svg version="1.1" xmlns="http://www.w3.org/2000/svg" xmlns:xlink="http://www.w3.org/1999/xlink" width="14" height="14" viewBox="0 0 14 14">
<path fill="#fff" d="M12.688 0h-11.375c-0.722 0-1.313 0.591-1.313 1.313v11.375c0 0.722 0.591 1.313 1.313 1.313h11.375c0.722 0 1.313-0.591 1.313-1.313v-11.375c0-0.722-0.591-1.313-1.313-1.313zM5.25 11.375h-1.75v-6.125h1.75v6.125zM4.375 4.375c-0.484 0-0.875-0.391-0.875-0.875s0.391-0.875 0.875-0.875c0.484 0 0.875 0.391 0.875 0.875s-0.391 0.875-0.875 0.875zM11.375 11.375h-1.75v-3.5c0-0.484-0.391-0.875-0.875-0.875s-0.875 0.391-0.875 0.875v3.5h-1.75v-6.125h1.75v1.086c0.361-0.495 0.913-1.086 1.531-1.086 1.088 0 1.969 0.979 1.969 2.188v3.938z"></path>
</svg>
