<?xml version="1.0" encoding="utf-8"?>
<!-- Generated by IcoMoon.io -->
<!DOCTYPE svg PUBLIC "-//W3C//DTD SVG 1.1//EN" "http://www.w3.org/Graphics/SVG/1.1/DTD/svg11.dtd">
<svg version="1.1" xmlns="http://www.w3.org/2000/svg" xmlns:xlink="http://www.w3.org/1999/xlink" width="14" height="14" viewBox="0 0 14 14">
<path fill="#fff" d="M12.685 12.75l-6.914-0.024c-0.703-0.002-1.266-0.57-1.273-1.273l0.004-1.423h1.273l-0.004 1.435 6.865-0.004v-8.94l-6.867 0.004 0.003 1.439h-1.273l-0.003-1.433c-0.001-0.703 0.57-1.261 1.273-1.26l6.911 0.006c0.703 0.001 1.272 0.56 1.273 1.26l0.004 8.938c0 0.703-0.57 1.273-1.273 1.273zM6.831 4.467l2.27 2.559-2.275 2.547-0-1.943-6.765 0.001v-1.262l6.766 0z"></path>
</svg>
