<?xml version="1.0" encoding="utf-8"?>
<!-- Generated by IcoMoon.io -->
<!DOCTYPE svg PUBLIC "-//W3C//DTD SVG 1.1//EN" "http://www.w3.org/Graphics/SVG/1.1/DTD/svg11.dtd">
<svg version="1.1" xmlns="http://www.w3.org/2000/svg" xmlns:xlink="http://www.w3.org/1999/xlink" width="14" height="14" viewBox="0 0 14 14">
<path fill="#fff" d="M13.217 10.768c0.016-0.049 0.026-0.102 0.026-0.157v-5.756c0-0.273-0.221-0.494-0.494-0.494h-2.751v6.127c0 0.098-0.018 0.192-0.049 0.28h-0.323c0.016-0.049 0.026-0.102 0.026-0.157v-7.906c0-0.273-0.221-0.494-0.494-0.494h-4.315c-0.273 0-0.494 0.221-0.494 0.494v7.906c0 0.055 0.009 0.108 0.026 0.157h-0.323c-0.031-0.088-0.049-0.182-0.049-0.28v-6.127h-2.685c-0.273 0-0.494 0.221-0.494 0.494v5.756c0 0.055 0.009 0.108 0.026 0.157h-0.849v1.021h14v-1.021h-0.783zM2.306 8.75h-0.708v-0.708h0.708v0.708zM2.306 7.506h-0.708v-0.708h0.708v0.708zM2.306 6.304h-0.708v-0.708h0.708v0.708zM3.409 8.75h-0.708v-0.708h0.708v0.708zM3.409 7.506h-0.708v-0.708h0.708v0.708zM3.409 6.304h-0.708v-0.708h0.708v0.708zM8.099 10.735h-2.079v-2.594h2.079v2.594zM7 5.917c-0.962 0-1.742-0.78-1.742-1.742s0.78-1.742 1.742-1.742c0.962 0 1.742 0.78 1.742 1.742s-0.78 1.742-1.742 1.742zM11.496 8.75h-0.708v-0.708h0.708v0.708zM11.496 7.506h-0.708v-0.708h0.708v0.708zM11.496 6.304h-0.708v-0.708h0.708v0.708zM12.6 8.75h-0.708v-0.708h0.708v0.708zM12.6 7.506h-0.708v-0.708h0.708v0.708zM12.6 6.304h-0.708v-0.708h0.708v0.708zM7.432 3.743h0.667v0.865h-0.667v0.667h-0.865v-0.667h-0.667v-0.865h0.667v-0.667h0.865v0.667z"></path>
</svg>
