<?xml version="1.0" encoding="utf-8"?>
<!-- Generated by IcoMoon.io -->
<!DOCTYPE svg PUBLIC "-//W3C//DTD SVG 1.1//EN" "http://www.w3.org/Graphics/SVG/1.1/DTD/svg11.dtd">
<svg version="1.1" xmlns="http://www.w3.org/2000/svg" xmlns:xlink="http://www.w3.org/1999/xlink" width="14" height="14" viewBox="0 0 14 14">
<path fill="#fff" d="M13.775 12.063l-4.712-8.169v-2.873c0.16-0.070 0.258-0.148 0.258-0.232 0-0.285-1.038-0.516-2.32-0.516s-2.32 0.231-2.32 0.516c0 0.083 0.098 0.161 0.258 0.232v2.873l-4.712 8.169c-0.529 0.915-0.097 1.663 0.959 1.663h11.63c1.056 0 1.487-0.748 0.959-1.663zM9.734 10.67c-0.425-0.226-0.992 0.089-1.143 0.258-0.46 0.516 0.323 0.976-0.259 1.303-0.395 0.223-1.049-0.354-1.51-0.48-0.254-0.070-0.562 0.253-0.969 0.322-0.658 0.111-0.39-0.641-0.286-1.129 0.056-0.261-0.836-0.721-1.534-0.749-0.584-0.023-0.779-0.346-0.652-0.618 0.126-0.274 0.538-0.355 0.927 0.069 0.453 0.492 1.318 0.589 1.522 0.363 0.287-0.317-0.501-1.189-1.024-1.602-0.378-0.298-0.312-0.667-0.097-0.823 0.305-0.218 0.715-0.006 0.658 0.393-0.079 0.558 0.908 1.517 1.304 1.416 0.28-0.070 0.638-1.355 0.407-1.92-0.192-0.466 0.151-0.827 0.425-0.849 0.289-0.022 0.682 0.473 0.234 1.029-0.389 0.484-0.571 1.824-0.124 1.983 0.352 0.126 1.088-0.52 1.433-1.183 0.262-0.504 0.62-0.532 0.809-0.317 0.247 0.28 0.122 0.695-0.447 0.808-0.487 0.095-1.198 0.963-1.069 1.227 0.124 0.255 0.645 0.278 1.185 0.041 0.576-0.252 1.040-0.306 1.121 0.063 0.090 0.417-0.283 0.728-0.91 0.394z"></path>
</svg>
