<?xml version="1.0" encoding="utf-8"?>
<!-- Generated by IcoMoon.io -->
<!DOCTYPE svg PUBLIC "-//W3C//DTD SVG 1.1//EN" "http://www.w3.org/Graphics/SVG/1.1/DTD/svg11.dtd">
<svg version="1.1" xmlns="http://www.w3.org/2000/svg" xmlns:xlink="http://www.w3.org/1999/xlink" width="14" height="14" viewBox="0 0 14 14">
<path fill="#fff" d="M7 5.824c0.629 0 1.176 0.547 1.176 1.176s-0.547 1.176-1.176 1.176-1.176-0.547-1.176-1.176 0.547-1.176 1.176-1.176zM10.5 5.824c0.629 0 1.176 0.547 1.176 1.176s-0.547 1.176-1.176 1.176-1.176-0.547-1.176-1.176 0.547-1.176 1.176-1.176zM3.5 5.824c0.629 0 1.176 0.547 1.176 1.176s-0.547 1.176-1.176 1.176-1.176-0.547-1.176-1.176 0.547-1.176 1.176-1.176z"></path>
</svg>
