<?xml version="1.0" encoding="utf-8"?>
<!-- Generated by IcoMoon.io -->
<!DOCTYPE svg PUBLIC "-//W3C//DTD SVG 1.1//EN" "http://www.w3.org/Graphics/SVG/1.1/DTD/svg11.dtd">
<svg version="1.1" xmlns="http://www.w3.org/2000/svg" xmlns:xlink="http://www.w3.org/1999/xlink" width="14" height="14" viewBox="0 0 14 14">
<path fill="#fff" d="M6.987 0c-0.614 0.001-1.111 0.536-1.111 1.197 0 0 0 0.001 0 0.001 0 0.661 0.498 1.196 1.112 1.196 0 0 0 0 0 0 0.614-0 1.112-0.536 1.112-1.197 0-0 0-0 0-0v-0.001c-0.001-0.66-0.498-1.195-1.112-1.195-0 0-0.001 0-0.001 0zM11.749 1.529c-0.908 0-1.644 0.779-1.644 1.739s1.644 3.578 1.644 3.578 1.644-2.618 1.644-3.578c0-0.96-0.736-1.739-1.644-1.739zM11.754 1.765v0c0 0 0 0 0 0 0.784 0 1.42 0.659 1.42 1.473s-0.636 1.473-1.42 1.473c0 0-0 0-0 0s-0 0-0 0c-0.784 0-1.42-0.66-1.42-1.473s0.636-1.473 1.42-1.473zM1.771 1.815c-0.908 0-1.644 0.779-1.644 1.739s1.644 3.578 1.644 3.578 1.644-2.618 1.644-3.578c0-0.96-0.736-1.739-1.644-1.739zM1.777 2.051v0c0 0 0 0 0 0 0.784 0 1.42 0.659 1.42 1.473s-0.636 1.473-1.42 1.473c0 0-0 0-0 0s-0 0-0 0c-0.784 0-1.42-0.66-1.42-1.473s0.636-1.473 1.42-1.473zM7.223 2.396c-0.375-0.017-0.754 0.041-1.115 0.164-0.367 0.141-0.798 0.365-0.932 0.88-0.073 0.539-0.050 1.092-0.060 1.637 0.001 0.444 0.098 0.653 0.217 0.81-3.083 0.456-5.33 2.072-5.332 3.997 0.003 2.274 3.136 4.116 7.001 4.116 0.001 0 0.002 0 0.002 0 3.866-0.001 6.999-1.845 6.999-4.119 0-0 0-0 0-0v-0.003c-0.007-1.906-2.213-3.508-5.205-3.974 0.078-0.138 0.179-0.338 0.174-0.833l0.006-1.406c-0.016-0.482-0.333-0.824-0.655-0.985-0.351-0.174-0.724-0.265-1.099-0.282zM5.693 6.406c0.049 0.133 0.083 0.304 0.088 0.549 0.008 0.32-0.020 3.024 0.335 3.040 0.459-0.011 1.241 0.022 1.675 0.011 0.391-0.008 0.43-2.491 0.455-3.060 0.004-0.236 0.032-0.404 0.073-0.532 2.864 0.357 4.973 1.75 4.979 3.417v0.003c-0.003 1.175-1.050 2.213-2.656 2.848 0.017-0.050 1.613-2.602 1.613-3.552 0-0.96-0.736-1.739-1.644-1.739s-1.644 0.779-1.644 1.739c0 0.954 1.615 3.531 1.637 3.567-1.014 0.401-2.277 0.642-3.642 0.644-1.431-0.001-2.75-0.265-3.809-0.707 0.034-0.021 1.655-2.607 1.655-3.563 0-0.96-0.736-1.739-1.644-1.739s-1.644 0.779-1.644 1.739c0 0.952 1.604 3.515 1.634 3.563-1.542-0.645-2.529-1.657-2.533-2.796 0.002-1.688 2.158-3.096 5.030-3.429zM3.171 7.57v0c0 0 0 0 0 0 0.784 0 1.42 0.659 1.42 1.473s-0.636 1.473-1.42 1.473c0 0-0 0-0 0s-0 0-0 0c-0.784 0-1.42-0.66-1.42-1.473s0.636-1.473 1.42-1.473c0 0 0 0 0 0zM10.618 7.63v0c0 0 0 0 0 0 0.784 0 1.42 0.66 1.42 1.473s-0.636 1.473-1.42 1.473c0 0-0 0-0 0s-0 0-0 0c-0.784 0-1.42-0.66-1.42-1.473 0-0 0-0 0-0 0-0.814 0.636-1.474 1.42-1.474 0 0 0 0 0 0z"></path>
</svg>
