<?xml version="1.0" encoding="utf-8"?>
<!-- Generated by IcoMoon.io -->
<!DOCTYPE svg PUBLIC "-//W3C//DTD SVG 1.1//EN" "http://www.w3.org/Graphics/SVG/1.1/DTD/svg11.dtd">
<svg version="1.1" xmlns="http://www.w3.org/2000/svg" xmlns:xlink="http://www.w3.org/1999/xlink" width="14" height="14" viewBox="0 0 14 14">
<path fill="#fff" d="M10.401 7.432c-0.163-0.333-0.624-0.613-1.237-0.14-0.834 0.665-2.164 0.665-2.164 0.665s-1.33 0-2.164-0.665c-0.612-0.473-1.073-0.192-1.237 0.14-0.292 0.583 0.035 0.869 0.776 1.342 0.636 0.408 1.505 0.56 2.065 0.618l-0.467 0.467c-0.665 0.659-1.307 1.295-1.744 1.738-0.262 0.268-0.262 0.694 0 0.945l0.082 0.093c0.263 0.262 0.694 0.262 0.957 0l1.732-1.738c0.671 0.659 1.307 1.295 1.75 1.738 0.263 0.262 0.688 0.262 0.957 0l0.076-0.093c0.268-0.251 0.268-0.677 0-0.945l-1.738-1.738-0.461-0.473c0.554-0.053 1.412-0.21 2.042-0.612 0.741-0.473 1.068-0.758 0.776-1.342zM7 2.666c0.805 0 1.458 0.653 1.458 1.453 0 0.805-0.653 1.452-1.458 1.452s-1.458-0.647-1.458-1.452c0-0.799 0.653-1.453 1.458-1.453zM7 7.070c1.633 0 2.952-1.318 2.952-2.952 0-1.628-1.318-2.952-2.952-2.952s-2.952 1.324-2.952 2.952c0 1.633 1.318 2.952 2.952 2.952z"></path>
</svg>
