<?xml version="1.0" encoding="utf-8"?>
<!-- Generated by IcoMoon.io -->
<!DOCTYPE svg PUBLIC "-//W3C//DTD SVG 1.1//EN" "http://www.w3.org/Graphics/SVG/1.1/DTD/svg11.dtd">
<svg version="1.1" xmlns="http://www.w3.org/2000/svg" xmlns:xlink="http://www.w3.org/1999/xlink" width="14" height="14" viewBox="0 0 14 14">
<path fill="#fff" d="M4.16 10.917c-0.067-0.085-0.099-0.27-0.071-0.417s0.036-0.165 0.316-0.638c0.414-0.699 0.561-1.075 0.849-2.162 0.013-0.048-0.049-0.107-0.11-0.107-0.080 0-0.141 0.060-0.18 0.175-0.043 0.13-0.072 0.157-0.183 0.172-0.106 0.014-0.233-0.036-0.283-0.113-0.036-0.054-0.036-0.068 0.002-0.254s0.038-0.202 0.003-0.294c-0.105-0.274-0.363-0.307-0.512-0.065-0.1 0.163-0.317 0.443-0.443 0.57-0.223 0.226-0.368 0.233-0.519 0.026-0.050-0.069-0.066-0.115-0.066-0.19 0-0.086 0.011-0.109 0.083-0.175 0.106-0.097 0.256-0.181 0.492-0.273 0.321-0.126 0.463-0.238 0.543-0.43 0.060-0.143 0.032-0.318-0.058-0.366-0.132-0.071-0.287 0.048-0.551 0.42-0.245 0.346-0.378 0.43-0.651 0.417-0.189-0.010-0.279-0.060-0.382-0.216-0.094-0.142-0.122-0.246-0.112-0.429 0.007-0.135 0.019-0.174 0.079-0.26 0.084-0.121 0.236-0.224 0.405-0.272 0.069-0.020 0.282-0.044 0.486-0.055 0.451-0.025 0.59-0.052 1.087-0.215 0.251-0.082 0.326-0.138 0.326-0.244 0-0.064-0.091-0.154-0.173-0.171-0.060-0.012-0.515-0.057-0.582-0.057-0.061-0-0.17-0.108-0.193-0.192-0.033-0.121 0.016-0.219 0.124-0.248 0.116-0.031 0.202-0.004 0.416 0.131 0.097 0.061 0.244 0.132 0.327 0.158 0.144 0.044 0.154 0.044 0.249 0.008 0.19-0.072 0.213-0.2 0.082-0.456-0.108-0.211-0.307-0.424-0.477-0.509-0.256-0.129-0.423-0.334-0.527-0.648-0.042-0.125-0.051-0.201-0.051-0.398 0.001-0.215 0.007-0.257 0.059-0.37 0.129-0.28 0.385-0.287 0.552-0.017 0.053 0.087 0.069 0.161 0.13 0.596 0.079 0.57 0.11 0.664 0.286 0.883 0.182 0.227 0.342 0.299 0.441 0.2 0.065-0.065 0.074-0.136 0.035-0.268-0.019-0.065-0.041-0.188-0.048-0.273-0.011-0.134-0.003-0.183 0.056-0.367 0.111-0.344 0.089-0.493-0.122-0.832-0.123-0.197-0.135-0.283-0.052-0.372 0.103-0.111 0.252-0.155 0.306-0.090 0.017 0.020 0.023 0.166 0.020 0.459-0.006 0.473-0.014 0.438 0.171 0.771 0.064 0.115 0.12 0.359 0.121 0.52 0 0.064 0.015 0.132 0.034 0.16 0.061 0.088 0.271 0.113 0.36 0.043 0.016-0.013 0.073-0.090 0.126-0.173 0.055-0.086 0.135-0.175 0.186-0.209 0.076-0.051 0.106-0.058 0.21-0.049 0.1 0.008 0.135 0.024 0.21 0.091 0.071 0.064 0.108 0.081 0.175 0.081 0.177 0 0.379-0.168 0.379-0.314 0-0.036-0.030-0.133-0.067-0.216-0.098-0.224-0.104-0.309-0.034-0.519 0.121-0.362 0.229-0.462 0.498-0.462 0.224-0 0.377 0.107 0.416 0.289 0.026 0.122 0.007 0.213-0.101 0.482-0.235 0.586-0.249 0.768-0.075 0.941 0.045 0.045 0.123 0.094 0.174 0.109 0.15 0.045 0.256-0.009 0.46-0.233s0.308-0.278 0.436-0.224c0.068 0.028 0.084 0.050 0.114 0.149 0.019 0.064 0.035 0.141 0.035 0.17 0 0.235-0.216 0.468-0.497 0.536-0.061 0.015-0.158 0.051-0.216 0.080-0.334 0.166-0.192 0.513 0.21 0.515 0.178 0.001 0.332-0.065 0.526-0.223 0.352-0.289 0.785-0.597 0.958-0.682 0.277-0.137 0.656-0.189 0.922-0.128 0.275 0.063 0.381 0.34 0.24 0.624-0.074 0.148-0.096 0.155-0.359 0.109-0.422-0.074-0.79-0.041-1.158 0.105-0.309 0.122-0.641 0.302-0.698 0.378-0.118 0.156-0.089 0.321 0.074 0.431 0.197 0.132 0.246 0.188 0.258 0.3 0.017 0.148-0.022 0.219-0.175 0.327-0.202 0.142-0.26 0.272-0.186 0.414 0.046 0.089 0.121 0.15 0.256 0.211 0.178 0.080 0.3 0.092 0.501 0.047 0.241-0.054 0.409-0.037 0.574 0.057 0.27 0.154 0.413 0.341 0.506 0.661 0.032 0.111 0.041 0.214 0.041 0.453-0.001 0.349-0.028 0.458-0.147 0.58-0.268 0.277-0.679-0.103-0.823-0.761-0.062-0.284-0.132-0.438-0.253-0.554-0.158-0.153-0.549-0.31-0.701-0.282-0.097 0.018-0.242 0.164-0.273 0.274-0.051 0.185-0.017 0.3 0.166 0.546 0.347 0.468 0.447 0.66 0.469 0.9 0.014 0.154-0.012 0.214-0.124 0.275-0.113 0.062-0.206 0.078-0.307 0.051-0.119-0.032-0.186-0.11-0.196-0.227-0.053-0.613-0.091-0.769-0.224-0.924-0.138-0.162-0.364-0.222-0.546-0.146-0.141 0.059-0.166 0.142-0.134 0.445 0.012 0.109 0.009 0.171-0.010 0.206-0.028 0.053-0.146 0.113-0.221 0.113-0.12 0-0.3-0.277-0.398-0.613-0.060-0.205-0.118-0.275-0.229-0.275-0.125 0-0.185 0.052-0.227 0.196-0.058 0.198-0.035 0.382 0.096 0.769 0.128 0.378 0.144 0.417 0.348 0.84 0.115 0.238 0.152 0.338 0.16 0.434 0.013 0.164-0.025 0.276-0.113 0.33-0.133 0.081-0.214 0.045-0.32-0.142-0.103-0.182-0.134-0.324-0.157-0.726-0.034-0.57-0.149-1.070-0.345-1.494-0.095-0.207-0.131-0.248-0.215-0.248-0.176 0-0.31 0.181-0.312 0.42-0.001 0.129 0.008 0.16 0.092 0.305 0.051 0.089 0.108 0.206 0.126 0.26 0.034 0.1 0.042 0.349 0.014 0.451-0.023 0.085-0.141 0.133-0.33 0.133-0.201 0-0.274-0.035-0.322-0.154-0.058-0.144-0.045-0.282 0.053-0.572 0.103-0.308 0.118-0.521 0.046-0.678-0.044-0.097-0.14-0.186-0.2-0.186-0.13 0-0.329 0.437-0.476 1.044-0.079 0.324-0.105 0.479-0.198 1.143-0.062 0.443-0.097 0.568-0.2 0.71-0.145 0.2-0.48 0.292-0.583 0.161v0z"></path>
</svg>
