<?xml version="1.0" encoding="utf-8"?>
<!-- Generated by IcoMoon.io -->
<!DOCTYPE svg PUBLIC "-//W3C//DTD SVG 1.1//EN" "http://www.w3.org/Graphics/SVG/1.1/DTD/svg11.dtd">
<svg version="1.1" xmlns="http://www.w3.org/2000/svg" xmlns:xlink="http://www.w3.org/1999/xlink" width="14" height="14" viewBox="0 0 14 14">
<path fill="#fff" d="M0 5.688c0 0.814 0.559 1.493 1.313 1.688v5.749h-0.875c-0.241 0-0.438 0.196-0.438 0.438s0.197 0.438 0.438 0.438h13.125c0.243 0 0.438-0.196 0.438-0.438s-0.195-0.438-0.438-0.438h-0.875v-5.749c0.754-0.196 1.313-0.874 1.313-1.688v-0.438h-14v0.438zM8.75 7.438c0.967 0 1.75-0.784 1.75-1.75 0 0.814 0.559 1.493 1.313 1.688v5.749h-6.563v-5.688c0.967 0 1.75-0.784 1.75-1.75 0 0.966 0.784 1.75 1.75 1.75zM4.813 7.376v5.749h-2.625v-5.749c0.754-0.196 1.313-0.874 1.313-1.688 0 0.814 0.559 1.493 1.313 1.688zM12.25 1.313h-10.5l-1.75 3.5h14l-1.75-3.5zM3.697 2.285l-0.875 1.75c-0.039 0.077-0.116 0.121-0.197 0.121-0.032 0-0.066-0.007-0.097-0.023-0.108-0.054-0.152-0.185-0.097-0.293l0.875-1.75c0.055-0.108 0.185-0.151 0.293-0.098s0.151 0.185 0.098 0.293zM5.447 2.285l-0.875 1.75c-0.039 0.077-0.116 0.121-0.197 0.121-0.032 0-0.066-0.007-0.097-0.023-0.108-0.054-0.152-0.185-0.097-0.293l0.875-1.75c0.055-0.108 0.186-0.151 0.293-0.098 0.109 0.054 0.151 0.185 0.098 0.293zM7.219 3.938c0 0.121-0.097 0.219-0.219 0.219s-0.219-0.097-0.219-0.219v-1.75c0-0.121 0.098-0.219 0.219-0.219s0.219 0.097 0.219 0.219v1.75zM9.731 4.129c-0.034 0.019-0.070 0.027-0.106 0.027-0.077 0-0.152-0.041-0.191-0.114l-0.957-1.75c-0.058-0.106-0.019-0.239 0.087-0.297 0.104-0.058 0.239-0.021 0.297 0.086l0.957 1.75c0.056 0.106 0.019 0.239-0.087 0.297zM11.472 4.133c-0.031 0.016-0.063 0.023-0.097 0.023-0.080 0-0.157-0.044-0.195-0.121l-0.875-1.75c-0.055-0.108-0.010-0.239 0.097-0.293 0.106-0.054 0.239-0.010 0.294 0.098l0.875 1.75c0.053 0.108 0.010 0.239-0.099 0.293zM3.719 10.567v-1.008c-0.128-0.077-0.219-0.21-0.219-0.371 0-0.242 0.197-0.438 0.438-0.438 0.243 0 0.438 0.196 0.438 0.438 0 0.161-0.090 0.294-0.219 0.371v1.008c0.129 0.077 0.219 0.21 0.219 0.371 0 0.242-0.195 0.438-0.438 0.438-0.241 0-0.438-0.196-0.438-0.438 0-0.161 0.091-0.294 0.219-0.371zM1.75 0.438c0-0.242 0.197-0.438 0.438-0.438h9.625c0.243 0 0.438 0.196 0.438 0.438s-0.195 0.438-0.438 0.438h-9.625c-0.241 0-0.438-0.196-0.438-0.438zM7.668 9.78l-0.309-0.309 1.237-1.237 0.309 0.309-1.237 1.237zM7.668 11.017l-0.309-0.309 2.475-2.475 0.309 0.309-2.475 2.475zM9.833 9.47l0.309 0.309-1.237 1.237-0.309-0.309 1.237-1.237z"></path>
</svg>
