<?xml version="1.0" encoding="utf-8"?>
<!-- Generated by IcoMoon.io -->
<!DOCTYPE svg PUBLIC "-//W3C//DTD SVG 1.1//EN" "http://www.w3.org/Graphics/SVG/1.1/DTD/svg11.dtd">
<svg version="1.1" xmlns="http://www.w3.org/2000/svg" xmlns:xlink="http://www.w3.org/1999/xlink" width="14" height="14" viewBox="0 0 14 14">
<path fill="#fff" d="M13.426 3.199v8.477c0 1.285-1.066 2.324-2.352 2.324h-4.238c-0.629 0-1.23-0.246-1.668-0.684l-4.594-4.676s0.738-0.711 0.766-0.711c0.137-0.109 0.301-0.164 0.465-0.164 0.137 0 0.246 0.027 0.355 0.082 0.027 0 2.516 1.422 2.516 1.422v-6.945c0-0.492 0.383-0.875 0.875-0.875s0.875 0.383 0.875 0.875v4.102h0.574v-5.551c0-0.492 0.383-0.875 0.875-0.875s0.875 0.383 0.875 0.875v5.551h0.574v-4.977c0-0.492 0.383-0.875 0.875-0.875s0.875 0.383 0.875 0.875v4.977h0.602v-3.227c0-0.492 0.383-0.875 0.875-0.875s0.875 0.383 0.875 0.875z"></path>
</svg>
