<?xml version="1.0" encoding="utf-8"?>
<!-- Generated by IcoMoon.io -->
<!DOCTYPE svg PUBLIC "-//W3C//DTD SVG 1.1//EN" "http://www.w3.org/Graphics/SVG/1.1/DTD/svg11.dtd">
<svg version="1.1" xmlns="http://www.w3.org/2000/svg" xmlns:xlink="http://www.w3.org/1999/xlink" width="14" height="14" viewBox="0 0 14 14">
<path fill="#fff" d="M9.324 7.574c1.367 0 4.102 0.684 4.102 2.051v1.449h-3.5v-1.449c0-0.875-0.465-1.531-1.148-2.023 0.191-0.027 0.383-0.027 0.547-0.027zM4.676 7.574c1.367 0 4.074 0.684 4.074 2.051v1.449h-8.176v-1.449c0-1.367 2.734-2.051 4.102-2.051zM4.676 6.426c-0.957 0-1.75-0.793-1.75-1.75s0.793-1.75 1.75-1.75 1.723 0.793 1.723 1.75-0.766 1.75-1.723 1.75zM9.324 6.426c-0.957 0-1.75-0.793-1.75-1.75s0.793-1.75 1.75-1.75 1.75 0.793 1.75 1.75-0.793 1.75-1.75 1.75z"></path>
</svg>
