<?xml version="1.0" encoding="utf-8"?>
<!-- Generated by IcoMoon.io -->
<!DOCTYPE svg PUBLIC "-//W3C//DTD SVG 1.1//EN" "http://www.w3.org/Graphics/SVG/1.1/DTD/svg11.dtd">
<svg version="1.1" xmlns="http://www.w3.org/2000/svg" xmlns:xlink="http://www.w3.org/1999/xlink" width="14" height="14" viewBox="0 0 14 14">
<path fill="#fff" d="M10.95 1.221c-2.372-1.625-5.526-1.628-7.901-0.006-0.493-0.282-1.131-0.219-1.552 0.202l-0.081 0.081c-0.42 0.42-0.484 1.059-0.202 1.552-1.621 2.375-1.619 5.529 0.006 7.901-0.291 0.494-0.228 1.14 0.195 1.564l0.081 0.081c0.424 0.424 1.069 0.486 1.564 0.195 1.64 1.116 3.668 1.483 5.617 1.003 0.815-0.2 1.574-0.54 2.262-1.009 0.495 0.297 1.148 0.236 1.574-0.19l0.081-0.081c0.427-0.427 0.487-1.078 0.19-1.574 0.47-0.688 0.809-1.447 1.009-2.262 0.479-1.949 0.112-3.977-1.004-5.617 0.291-0.494 0.228-1.14-0.195-1.564l-0.081-0.081c-0.424-0.423-1.070-0.485-1.564-0.195zM11.883 2.047l0.081 0.081c0.154 0.155 0.154 0.406 0.001 0.561l-2.129 2.126c-0.158 0.151-0.401 0.149-0.554-0.005l-0.081-0.081c-0.152-0.152-0.153-0.402-0.008-0.552l2.129-2.131c0.155-0.154 0.406-0.154 0.561 0zM9.946 8.255c-0.443-0.14-0.944-0.037-1.295 0.315l-0.081 0.081c-0.352 0.352-0.455 0.852-0.315 1.296-0.159 0.068-0.321 0.126-0.487 0.167-0.67 0.165-1.383 0.102-2.016-0.162 0.139-0.445 0.038-0.952-0.31-1.3l-0.081-0.081c-0.352-0.352-0.864-0.452-1.313-0.307-0.345-0.802-0.349-1.71-0.009-2.515 0.449 0.15 0.965 0.051 1.322-0.306l0.081-0.081c0.357-0.357 0.457-0.872 0.306-1.322 0.804-0.34 1.712-0.337 2.514 0.008-0.145 0.448-0.045 0.961 0.308 1.313l0.081 0.081c0.347 0.348 0.853 0.449 1.3 0.309 0.265 0.633 0.327 1.347 0.162 2.017-0.041 0.166-0.098 0.328-0.166 0.487zM2.689 11.964c-0.155 0.154-0.406 0.154-0.561-0l-0.081-0.081c-0.155-0.154-0.155-0.406-0.001-0.561l2.127-2.125c0.155-0.151 0.405-0.149 0.557 0.003l0.081 0.081c0.153 0.153 0.155 0.397 0.011 0.548l-2.133 2.135zM10.271 1.835l-1.475 1.476c-1.131-0.553-2.453-0.556-3.587-0.007l-1.477-1.477c1.99-1.256 4.553-1.254 6.54 0.008zM2.047 2.128l0.081-0.081c0.155-0.155 0.406-0.155 0.562 0l2.121 2.121c0.154 0.155 0.154 0.406-0 0.561l-0.081 0.081c-0.154 0.154-0.406 0.155-0.56 0.001l-0.002-0.002-2.12-2.12c-0.155-0.155-0.155-0.406-0-0.561zM1.827 3.732l1.477 1.477c-0.549 1.134-0.547 2.456 0.007 3.587l-1.476 1.475c-1.262-1.987-1.264-4.55-0.008-6.539zM3.744 12.172l1.478-1.478c0.852 0.406 1.839 0.51 2.759 0.284 0.276-0.068 0.544-0.165 0.802-0.291l1.476 1.476c-0.552 0.349-1.154 0.605-1.794 0.763-1.631 0.401-3.324 0.125-4.721-0.755zM11.964 11.883l-0.081 0.081c-0.155 0.155-0.406 0.155-0.562-0l-2.104-2.103-0.024-0.028c-0.147-0.157-0.144-0.4 0.007-0.551l0.081-0.081c0.141-0.141 0.357-0.147 0.513-0.031l2.174 2.159c0.149 0.156 0.149 0.403-0.004 0.555zM12.927 8.465c-0.157 0.641-0.413 1.243-0.763 1.794l-1.476-1.476c0.126-0.258 0.223-0.527 0.291-0.803 0.227-0.92 0.121-1.907-0.285-2.759l1.478-1.478c0.88 1.398 1.156 3.091 0.755 4.722z"></path>
</svg>
