<?xml version="1.0" encoding="utf-8"?>
<!-- Generated by IcoMoon.io -->
<!DOCTYPE svg PUBLIC "-//W3C//DTD SVG 1.1//EN" "http://www.w3.org/Graphics/SVG/1.1/DTD/svg11.dtd">
<svg version="1.1" xmlns="http://www.w3.org/2000/svg" xmlns:xlink="http://www.w3.org/1999/xlink" width="14" height="14" viewBox="0 0 14 14">
<path fill="#fff" d="M5.551 8.176c1.449 0 2.625-1.176 2.625-2.625s-1.176-2.625-2.625-2.625-2.625 1.176-2.625 2.625 1.176 2.625 2.625 2.625zM9.051 8.176l2.898 2.898-0.875 0.875-2.898-2.898v-0.465l-0.164-0.164c-0.656 0.574-1.531 0.902-2.461 0.902-2.105 0-3.801-1.668-3.801-3.773s1.695-3.801 3.801-3.801 3.773 1.695 3.773 3.801c0 0.93-0.328 1.805-0.902 2.461l0.164 0.164h0.465z"></path>
</svg>
