<?xml version="1.0" encoding="utf-8"?>
<!-- Generated by IcoMoon.io -->
<!DOCTYPE svg PUBLIC "-//W3C//DTD SVG 1.1//EN" "http://www.w3.org/Graphics/SVG/1.1/DTD/svg11.dtd">
<svg version="1.1" xmlns="http://www.w3.org/2000/svg" xmlns:xlink="http://www.w3.org/1999/xlink" width="14" height="14" viewBox="0 0 14 14">
<path fill="#fff" d="M7 8.176c1.367 0 2.516 0.82 2.98 2.023h-5.961c0.465-1.203 1.613-2.023 2.98-2.023zM4.566 7l-0.629-0.629 0.629-0.602-0.629-0.629 0.629-0.602 0.602 0.602 0.629-0.602 0.629 0.602-0.629 0.629 0.629 0.602-0.629 0.629-0.629-0.629zM9.434 4.539l0.629 0.602-0.629 0.629 0.629 0.602-0.629 0.629-0.602-0.629-0.629 0.629-0.629-0.629 0.629-0.602-0.629-0.629 0.629-0.602 0.629 0.602zM7 11.676c2.57 0 4.676-2.105 4.676-4.676s-2.105-4.676-4.676-4.676-4.676 2.105-4.676 4.676 2.105 4.676 4.676 4.676zM7 1.176c3.227 0 5.824 2.598 5.824 5.824s-2.598 5.824-5.824 5.824-5.824-2.598-5.824-5.824 2.598-5.824 5.824-5.824z"></path>
</svg>
