<?xml version="1.0" encoding="utf-8"?>
<!-- Generated by IcoMoon.io -->
<!DOCTYPE svg PUBLIC "-//W3C//DTD SVG 1.1//EN" "http://www.w3.org/Graphics/SVG/1.1/DTD/svg11.dtd">
<svg version="1.1" xmlns="http://www.w3.org/2000/svg" xmlns:xlink="http://www.w3.org/1999/xlink" width="14" height="14" viewBox="0 0 14 14">
<path fill="#fff" d="M7 9.051c1.121 0 2.051-0.93 2.051-2.051s-0.93-2.051-2.051-2.051-2.051 0.93-2.051 2.051 0.93 2.051 2.051 2.051zM11.348 7.574l1.23 0.957c0.109 0.082 0.137 0.246 0.055 0.383l-1.176 2.023c-0.082 0.137-0.219 0.164-0.355 0.109l-1.449-0.574c-0.301 0.219-0.629 0.438-0.984 0.574l-0.219 1.531c-0.027 0.137-0.137 0.246-0.273 0.246h-2.352c-0.137 0-0.246-0.109-0.273-0.246l-0.219-1.531c-0.355-0.137-0.684-0.328-0.984-0.574l-1.449 0.574c-0.137 0.055-0.273 0.027-0.355-0.109l-1.176-2.023c-0.082-0.137-0.055-0.301 0.055-0.383l1.23-0.957c-0.027-0.191-0.027-0.383-0.027-0.574s0-0.383 0.027-0.574l-1.23-0.957c-0.109-0.082-0.137-0.246-0.055-0.383l1.176-2.023c0.082-0.137 0.219-0.164 0.355-0.109l1.449 0.574c0.301-0.219 0.629-0.438 0.984-0.574l0.219-1.531c0.027-0.137 0.137-0.246 0.273-0.246h2.352c0.137 0 0.246 0.109 0.273 0.246l0.219 1.531c0.355 0.137 0.684 0.328 0.984 0.574l1.449-0.574c0.137-0.055 0.273-0.027 0.355 0.109l1.176 2.023c0.082 0.137 0.055 0.301-0.055 0.383l-1.23 0.957c0.027 0.191 0.027 0.383 0.027 0.574s0 0.383-0.027 0.574z"></path>
</svg>
