<?xml version="1.0" encoding="utf-8"?>
<!-- Generated by IcoMoon.io -->
<!DOCTYPE svg PUBLIC "-//W3C//DTD SVG 1.1//EN" "http://www.w3.org/Graphics/SVG/1.1/DTD/svg11.dtd">
<svg version="1.1" xmlns="http://www.w3.org/2000/svg" xmlns:xlink="http://www.w3.org/1999/xlink" width="14" height="14" viewBox="0 0 14 14">
<path fill="#fff" d="M10.5 9.379c0.93 0 1.695 0.766 1.695 1.695s-0.766 1.723-1.695 1.723-1.695-0.793-1.695-1.723c0-0.137 0-0.273 0.027-0.383l-4.129-2.406c-0.328 0.301-0.738 0.465-1.203 0.465-0.957 0-1.75-0.793-1.75-1.75s0.793-1.75 1.75-1.75c0.465 0 0.875 0.164 1.203 0.465l4.102-2.379c-0.027-0.137-0.055-0.273-0.055-0.41 0-0.957 0.793-1.75 1.75-1.75s1.75 0.793 1.75 1.75-0.793 1.75-1.75 1.75c-0.465 0-0.875-0.191-1.203-0.492l-4.102 2.406c0.027 0.137 0.055 0.273 0.055 0.41s-0.027 0.273-0.055 0.41l4.156 2.406c0.301-0.273 0.711-0.438 1.148-0.438z"></path>
</svg>
