<?xml version="1.0" encoding="utf-8"?>
<!-- Generated by IcoMoon.io -->
<!DOCTYPE svg PUBLIC "-//W3C//DTD SVG 1.1//EN" "http://www.w3.org/Graphics/SVG/1.1/DTD/svg11.dtd">
<svg version="1.1" xmlns="http://www.w3.org/2000/svg" xmlns:xlink="http://www.w3.org/1999/xlink" width="14" height="14" viewBox="0 0 14 14">
<path fill="#fff" d="M1.792 0v14h1.010v-12.99h9.783v12.99h1.010v-14z"></path>
<path fill="#fff" d="M3.094 1.304h4.433v11.897h-4.433v-11.897z"></path>
<path fill="#fff" d="M7.86 1.304h4.432v11.897h-4.432v-11.897z"></path>
<path fill="#fff" d="M0.405 8.357h1.093v-2.713h-1.093v2.713zM0.952 5.988l0.337 0.568h-0.674l0.337-0.568zM1.288 7.446l-0.337 0.568-0.337-0.568h0.674z"></path>
<path fill="#fff" d="M9.284 5.947c0 0.893-0.73 1.617-1.631 1.617 0 0 0 0 0 0-0.901 0-1.631-0.724-1.631-1.617 0 0 0 0 0 0 0-0.893 0.73-1.617 1.631-1.617 0 0 0 0 0 0 0.901 0 1.631 0.724 1.631 1.617 0 0 0 0 0 0z"></path>
<path fill="#fff" d="M7.386 5.621c0 0.139-0.133 0.252-0.297 0.252s-0.297-0.113-0.297-0.252c0-0.139 0.133-0.252 0.297-0.252s0.297 0.113 0.297 0.252z"></path>
<path fill="#fff" d="M8.542 5.621c0 0.139-0.126 0.252-0.282 0.252s-0.282-0.113-0.282-0.252c0-0.139 0.126-0.252 0.282-0.252s0.282 0.113 0.282 0.252z"></path>
<path fill="#fff" d="M6.941 6.911v-0.089c0.465-0.613 0.969-0.613 1.513 0v0.089c-0.544-0.653-1.048-0.653-1.513 0z"></path>
</svg>
