<?xml version="1.0" encoding="utf-8"?>
<!-- Generated by IcoMoon.io -->
<!DOCTYPE svg PUBLIC "-//W3C//DTD SVG 1.1//EN" "http://www.w3.org/Graphics/SVG/1.1/DTD/svg11.dtd">
<svg version="1.1" xmlns="http://www.w3.org/2000/svg" xmlns:xlink="http://www.w3.org/1999/xlink" width="14" height="14" viewBox="0 0 14 14">
<path fill="#fff" d="M11.736 2.905c-0.017-0.010-0.034-0.017-0.051-0.025-0.14-0.092-0.297-0.16-0.457-0.199l-0.319 0.321-0.309-0.324c-0.001 0-0.002 0-0.003 0.001-0.153 0.037-0.303 0.1-0.44 0.186-0.034 0.010-0.068 0.024-0.1 0.042-0.198 0.111-0.387 0.133-0.593 0.069-0.683-0.213-1.319-1.255-1.507-1.638-0.050-0.103-0.132-0.179-0.227-0.226l-0.136-0.045c-0.099-0.017-0.204-0.006-0.301 0.042-0.247 0.12-0.349 0.417-0.23 0.664 0.029 0.060 0.138 0.276 0.313 0.551l0.117 0.177c0.366 0.534 0.946 1.196 1.672 1.424 0.144 0.045 0.289 0.070 0.433 0.078v2.617c0 0.135 0.027 0.261 0.073 0.377-0.003 0.025-0.008 0.049-0.008 0.075l0 4.756c0 0.324 0.263 0.587 0.587 0.587s0.587-0.263 0.587-0.587l-0-4.081c0.023 0.001 0.046 0.003 0.070 0.003 0.005 0 0.009-0 0.014-0.001l-0 4.079c0 0.324 0.263 0.587 0.587 0.587v0c0.324 0 0.587-0.263 0.587-0.587l0-4.666c0.031 0.029 0.065 0.057 0.104 0.078 0.075 0.041 0.157 0.060 0.237 0.060 0.176 0 0.347-0.094 0.437-0.259 1.401-2.575-0.51-3.747-1.138-4.132zM10.912 5.534h-0.006l-0.308-0.422 0.308-2.062h0.006l0.309 2.062-0.309 0.422zM12.219 6.098v-1.42c0.19 0.359 0.232 0.813 0 1.42z"></path>
<path fill="#fff" d="M12.188 1.328c0 0.707-0.573 1.279-1.279 1.279s-1.279-0.573-1.279-1.279c0-0.707 0.573-1.279 1.279-1.279s1.279 0.573 1.279 1.279z"></path>
<path fill="#fff" d="M8.085 7.189h-6.268c-0.398 0-0.722-0.324-0.722-0.722v-5.745c0-0.398 0.324-0.722 0.722-0.722h6.268c0.398 0 0.722 0.324 0.722 0.722v5.745c-0 0.398-0.324 0.722-0.722 0.722zM1.817 0.481c-0.133 0-0.241 0.108-0.241 0.241v5.745c0 0.133 0.108 0.241 0.241 0.241h6.268c0.133 0 0.241-0.108 0.241-0.241v-5.745c0-0.133-0.108-0.241-0.241-0.241h-6.268z"></path>
<path fill="#fff" d="M3.993 8.917c0 0.559-0.454 1.013-1.013 1.013s-1.013-0.454-1.013-1.013c0-0.559 0.454-1.013 1.013-1.013s1.013 0.454 1.013 1.013z"></path>
<path fill="#fff" d="M1.806 12.241c-0.030-0.278 0.026-0.505 0.137-0.698v0.698h1.030l-0.24-0.328 0.244-1.633h0.005l0.244 1.633-0.24 0.328h1.030v-0.696c0.11 0.192 0.166 0.419 0.136 0.696h0.793c0.091-1.215-0.906-1.828-1.291-2.065-0.017-0.010-0.035-0.018-0.053-0.026-0.113-0.075-0.239-0.13-0.369-0.162l-0.252 0.254-0.245-0.257c-0.001 0-0.002 0-0.002 0-0.132 0.032-0.261 0.088-0.376 0.165-0.018 0.007-0.035 0.015-0.052 0.025-0.386 0.237-1.383 0.849-1.291 2.065h0.793z"></path>
<path fill="#fff" d="M7.936 8.917c0 0.559-0.454 1.013-1.013 1.013s-1.013-0.454-1.013-1.013c0-0.559 0.454-1.013 1.013-1.013s1.013 0.454 1.013 1.013z"></path>
<path fill="#fff" d="M5.749 12.241c-0.030-0.278 0.026-0.505 0.137-0.698v0.698h1.030l-0.24-0.328 0.244-1.633h0.005l0.244 1.633-0.24 0.328h1.030v-0.696c0.11 0.192 0.166 0.419 0.136 0.696h0.793c0.091-1.215-0.905-1.828-1.291-2.065-0.017-0.010-0.035-0.018-0.053-0.026-0.113-0.075-0.239-0.13-0.368-0.162l-0.252 0.254-0.245-0.257c-0.001 0-0.002 0-0.002 0-0.132 0.032-0.261 0.088-0.376 0.165-0.017 0.007-0.035 0.015-0.052 0.025-0.386 0.237-1.382 0.849-1.291 2.065h0.793z"></path>
<path fill="#fff" d="M0.623 12.556h11.581v1.444h-11.581v-1.444z"></path>
<path fill="#fff" d="M6.689 3.832l-0.202-0.074c0.016-0.147 0.011-0.297-0.017-0.446l0.195-0.090c0.122-0.056 0.175-0.201 0.119-0.322l-0.114-0.247c-0.056-0.122-0.201-0.175-0.322-0.119l-0.195 0.090c-0.095-0.118-0.206-0.22-0.328-0.303l0.074-0.202c0.046-0.126-0.018-0.266-0.144-0.312l-0.255-0.094c-0.122-0.045-0.267 0.022-0.312 0.144l-0.074 0.202c-0.147-0.016-0.297-0.011-0.446 0.017l-0.090-0.195c-0.056-0.122-0.201-0.175-0.322-0.119l-0.247 0.114c-0.122 0.056-0.175 0.201-0.119 0.322l0.090 0.195c-0.118 0.095-0.22 0.206-0.303 0.328l-0.201-0.074c-0.121-0.045-0.267 0.022-0.312 0.144l-0.094 0.255c-0.022 0.061-0.020 0.127 0.007 0.186s0.076 0.104 0.137 0.126l0.202 0.075c-0.016 0.147-0.011 0.297 0.017 0.446l-0.195 0.090c-0.122 0.056-0.175 0.201-0.119 0.322l0.114 0.247c0.056 0.122 0.201 0.175 0.322 0.119l0.195-0.090c0.095 0.118 0.206 0.22 0.328 0.303l-0.074 0.202c-0.023 0.061-0.020 0.127 0.007 0.186s0.076 0.104 0.136 0.127l0.255 0.094c0.061 0.022 0.127 0.020 0.186-0.007s0.104-0.076 0.126-0.136l0.074-0.202c0.147 0.016 0.297 0.011 0.446-0.017l0.090 0.195c0.056 0.122 0.201 0.175 0.322 0.119l0.247-0.114c0.122-0.056 0.175-0.201 0.119-0.322l-0.090-0.195c0.118-0.095 0.22-0.206 0.303-0.328l0.202 0.075c0.061 0.023 0.127 0.020 0.186-0.007s0.104-0.076 0.126-0.136l0.094-0.255c0.047-0.126-0.018-0.265-0.143-0.312zM5.353 4.467c-0.127 0.059-0.262 0.088-0.401 0.088-0.374 0-0.717-0.219-0.873-0.559-0.222-0.481-0.010-1.053 0.471-1.275 0.127-0.059 0.262-0.088 0.401-0.088 0.374 0 0.717 0.219 0.873 0.559 0.221 0.481 0.011 1.053-0.471 1.275z"></path>
<path fill="#fff" d="M2.551 1.631h4.449v4.064h-4.449v-4.064z"></path>
</svg>
