<?xml version="1.0" encoding="utf-8"?>
<!-- Generated by IcoMoon.io -->
<!DOCTYPE svg PUBLIC "-//W3C//DTD SVG 1.1//EN" "http://www.w3.org/Graphics/SVG/1.1/DTD/svg11.dtd">
<svg version="1.1" xmlns="http://www.w3.org/2000/svg" xmlns:xlink="http://www.w3.org/1999/xlink" width="14" height="14" viewBox="0 0 14 14">
<path fill="#fff" d="M10.269 5.896c-0.11 0.044-0.221 0.12-0.365 0.193-0.291-0.371-0.608-0.72-0.879-1.115 0.048-0.12 0.078-0.265 0.148-0.364 0.388-0.092 0.776-0.184 0.86-0.58-0.325-0.102-0.769-0.019-1.201 0-0.427 0.020-0.901-0.033-1.198 0.129 0.16 0.332 0.651 0.336 1.006 0.471-0.019 0.193-0.208 0.146-0.344 0.148-1.138 0.024-2.401 0-3.451-0.019 0.077-0.308 0.156-0.614 0.257-0.901-0.054-0.149-0.147-0.265-0.212-0.405 0.11-0.327 0.686-0.186 1.093-0.213-0.009-0.099 0.021-0.236-0.021-0.3-0.336 0-0.67 0-1.007 0-0.17 0.16-0.325 0.334-0.476 0.515-0.133-0.085-0.303-0.14-0.495-0.14-0.118 0-0.226 0.021-0.325 0.056-0.040 0.137-0.068 0.275-0.068 0.422 0 0.195 0.042 0.375 0.109 0.546 0.088 0.025 0.185 0.041 0.285 0.041 0.267 0 0.489-0.105 0.621-0.255-0.026 0.097-0.059 0.2-0.101 0.318-0.177 0.501-0.432 1.138-0.601 1.563-0.417-0.2-0.818-0.334-1.371-0.3-1.534 0.094-2.567 1.306-2.531 2.743 0.038 1.377 1.104 2.615 2.681 2.615 1.52 0 2.728-1.237 2.68-2.765-0.031-0.973-0.503-1.503-1.029-2.058 0.040-0.088 0.071-0.186 0.107-0.278 0.899 0.987 1.779 1.994 2.656 3.002-0.084 0.294 0.14 0.438 0.344 0.514 0.048 0.233 0.102 0.456 0.17 0.665-0.144-0.038-0.173 0.043-0.147 0.173 0.162 0.041 0.463 0.030 0.578-0.044 0.060-0.179-0.11-0.133-0.192-0.173-0.064-0.199-0.081-0.445-0.147-0.643 0.096-0.072 0.162-0.178 0.253-0.259 0.268-0.035 0.502-0.097 0.773-0.129 0.4 1.13 1.234 1.994 2.597 1.994 1.5 0 2.686-1.193 2.676-2.701-0.010-1.804-1.818-3.2-3.731-2.465zM4.375 7.053c0.274 0.343 0.521 0.801 0.471 1.48-0.080 1.115-0.982 1.968-2.080 2.015-1.169 0.048-2.353-0.907-2.251-2.337 0.074-1.059 0.887-1.896 1.928-1.995 0.56-0.051 0.969 0.089 1.308 0.301-0.098 0.498-0.553 1.207-1.007 1.5-0.139 0.090-0.297 0.097-0.321 0.258-0.071 0.442 0.592 0.44 0.578 0.020 0.502-0.361 0.887-0.841 1.136-1.457 0.083-0.041 0.163 0.125 0.237 0.215zM7.441 8.232c-0.035-0.059-0.041-0.146-0.044-0.235-0.032-0.098 0.14 0.012 0.108-0.085 0.016-0.066-0.020-0.079-0.020-0.129-0.123-0.048-0.337-0.008-0.495-0.018-0.015 0.123 0.015 0.202 0.151 0.172-0.012 0.117 0.012 0.201 0.021 0.301-0.061 0.017-0.118-0.071-0.15-0.107-0.782-0.861-1.602-1.831-2.38-2.705 0.020-0.065 0.025-0.147 0.085-0.171 1.236 0 2.472 0 3.707 0-0.328 0.991-0.65 1.994-0.983 2.979zM8.662 8.617c-0.278 0.038-0.565 0.065-0.858 0.087 0.358-1.058 0.699-2.128 1.049-3.194 0.239 0.252 0.44 0.545 0.687 0.793-0.535 0.519-0.973 1.24-0.879 2.314zM9.819 6.731c0.421 0.462 0.783 0.975 1.157 1.482-0.597 0.107-1.212 0.203-1.822 0.299 0.001-0.814 0.217-1.413 0.665-1.781zM11.255 10.548c-1.006-0.030-1.708-0.637-2.016-1.586 0.579-0.036 1.352-0.322 1.886-0.365 0.247-0.020 0.509 0.038 0.496-0.278-0.011-0.195-0.188-0.203-0.322-0.322-0.192-0.173-0.352-0.499-0.557-0.772-0.193-0.257-0.418-0.506-0.559-0.751 0.377-0.167 0.764-0.298 1.329-0.259 1.138 0.081 2.062 1.076 1.97 2.317-0.082 1.197-1.115 2.046-2.226 2.014z"></path>
</svg>
