<?xml version="1.0" encoding="utf-8"?>
<!-- Generated by IcoMoon.io -->
<!DOCTYPE svg PUBLIC "-//W3C//DTD SVG 1.1//EN" "http://www.w3.org/Graphics/SVG/1.1/DTD/svg11.dtd">
<svg version="1.1" xmlns="http://www.w3.org/2000/svg" xmlns:xlink="http://www.w3.org/1999/xlink" width="14" height="14" viewBox="0 0 14 14">
<path fill="#fff" d="M3.104 8.333c-0.718 0-1.301 0.582-1.301 1.301s0.582 1.301 1.301 1.301c0.719 0 1.301-0.582 1.301-1.301s-0.582-1.301-1.301-1.301zM3.104 10.199c-0.312 0-0.565-0.253-0.565-0.565s0.253-0.565 0.565-0.565c0.312 0 0.566 0.253 0.566 0.565s-0.253 0.565-0.566 0.565z"></path>
<path fill="#fff" d="M10.74 8.333c-0.719 0-1.301 0.582-1.301 1.301s0.582 1.301 1.301 1.301c0.719 0 1.301-0.582 1.301-1.301s-0.582-1.301-1.301-1.301zM10.74 10.199c-0.312 0-0.565-0.253-0.565-0.565s0.253-0.565 0.565-0.565c0.312 0 0.566 0.253 0.566 0.565s-0.253 0.565-0.566 0.565z"></path>
<path fill="#fff" d="M13.223 3.066h-11.668c-0.427 0-0.847 0.343-0.933 0.762l-0.466 1.703c-0.086 0.419-0.155 1.111-0.155 1.539v1.788c0 0.427 0.35 0.777 0.777 0.777h0.793c0-0.846 0.688-1.534 1.534-1.534s1.534 0.688 1.534 1.534h4.568c0-0.846 0.688-1.534 1.534-1.534s1.534 0.688 1.534 1.534h0.948c0.428 0 0.777-0.35 0.777-0.777v-5.013c0-0.427-0.35-0.777-0.777-0.777zM3.23 6.345h-1.811l0.287-0.68c0.050-0.119-0.005-0.255-0.124-0.306s-0.255 0.006-0.305 0.124l-0.356 0.843c-0.24-0.063-0.387-0.288-0.337-0.555l0.418-1.667c0.059-0.315 0.369-0.573 0.689-0.573h1.54l-0 2.814zM6.689 6.345h-2.992v-2.814h2.992v2.814zM10.148 6.345h-2.992v-2.814h2.992v2.814zM13.523 5.762c0 0.321-0.262 0.583-0.583 0.583h-2.326v-2.814h2.326c0.321 0 0.583 0.262 0.583 0.583v1.648z"></path>
</svg>
