<?xml version="1.0" encoding="utf-8"?>
<!-- Generated by IcoMoon.io -->
<!DOCTYPE svg PUBLIC "-//W3C//DTD SVG 1.1//EN" "http://www.w3.org/Graphics/SVG/1.1/DTD/svg11.dtd">
<svg version="1.1" xmlns="http://www.w3.org/2000/svg" xmlns:xlink="http://www.w3.org/1999/xlink" width="14" height="14" viewBox="0 0 14 14">
<path fill="#fff" d="M2.633 8.467c-0.603 0-1.094 0.491-1.094 1.094s0.491 1.094 1.094 1.094c0.604 0 1.094-0.491 1.094-1.094s-0.49-1.094-1.094-1.094zM2.633 10.248c-0.379 0-0.687-0.309-0.687-0.688s0.308-0.688 0.687-0.688c0.379 0 0.688 0.308 0.688 0.688s-0.308 0.688-0.688 0.688zM11.407 8.467c-0.603 0-1.094 0.491-1.094 1.094s0.491 1.094 1.094 1.094c0.603 0 1.094-0.491 1.094-1.094s-0.491-1.094-1.094-1.094zM11.407 10.248c-0.379 0-0.688-0.309-0.688-0.688s0.308-0.688 0.688-0.688c0.379 0 0.687 0.308 0.687 0.688s-0.309 0.688-0.687 0.688zM13.593 8.128h0.406v-3.621c0-0.642-0.52-1.162-1.162-1.162h-2.249l-3.604-1.95-0.376 0.010 3.568 1.945-9.016-0.005c-0.642 0-1.162 0.52-1.162 1.162v4.105c0 0.642 0.52 1.162 1.162 1.162h0.303c-0.007-0.054-0.012-0.109-0.012-0.165 0-0.674 0.546-1.22 1.22-1.22s1.22 0.546 1.22 1.22c0 0.056-0.005 0.111-0.012 0.165h6.356c-0.007-0.054-0.012-0.109-0.012-0.165 0-0.674 0.546-1.22 1.22-1.22s1.22 0.546 1.22 1.22c0 0.056-0.005 0.111-0.012 0.165h1.349v-0.484h-0.406c-0.064 0-0.116-0.052-0.116-0.116v-0.929c-0-0.064 0.052-0.116 0.116-0.116zM7.745 3.945v2.788h-2.13v-2.788zM2.265 6.734h-0.426c-0.978 0-0.958-0.581-0.958-0.645v-2.027c0-0.064 0.052-0.116 0.116-0.116h2.256v2.788zM3.369 6.734v-2.788h2.13v2.788zM10.205 6.734h-2.343v-2.788h2.343zM11.24 6.617c0 0.064-0.052 0.116-0.116 0.116h-0.811v-2.788h0.811c0.064 0 0.116 0.052 0.116 0.116zM13.323 7.373c0 0-0.522 0.047-1.089-0.083s-0.645-0.643-0.645-0.643v-2.711h1.136c0.33 0 0.598 0.268 0.598 0.598v2.839h0z"></path>
</svg>
