<?xml version="1.0" encoding="utf-8"?>
<!-- Generated by IcoMoon.io -->
<!DOCTYPE svg PUBLIC "-//W3C//DTD SVG 1.1//EN" "http://www.w3.org/Graphics/SVG/1.1/DTD/svg11.dtd">
<svg version="1.1" xmlns="http://www.w3.org/2000/svg" xmlns:xlink="http://www.w3.org/1999/xlink" width="14" height="14" viewBox="0 0 14 14">
<path fill="#fff" d="M1.455 9.491c-0.68 0.020-0.278-1.012 0.201-1.055 0.393-0.159 1.107-0.114 1.172-0.65-0.21-0.556-0.502-1.099-0.556-1.702 0.085-0.42 0.263-0.899 0.699-1.063 0.631-0.354 1.485 0.031 1.685 0.715 0.193 0.466 0.007 0.972-0.115 1.431-0.216 0.511-0.818 0.772-0.936 1.33-0.176 0.369 0.097 1.12-0.565 1.012-0.528 0.007-1.056 0.002-1.583-0.018zM4.335 8.326c0.459-0.302 1.071-0.208 1.515-0.552 0.536-0.25 0.155-0.777-0.003-1.146-0.247-0.646-0.561-1.411-0.185-2.071 0.183-0.55 0.77-0.894 1.338-0.839 0.629-0.069 1.217 0.388 1.405 0.975 0.295 0.676-0.034 1.387-0.288 2.017-0.211 0.371-0.484 0.888 0.093 1.097 0.46 0.328 1.093 0.2 1.524 0.577 0.204 0.257 0.514 0.987 0.031 1.1-1.856 0.066-3.714 0.028-5.571 0.038-0.335-0.319-0.136-1.011 0.14-1.197zM10.643 9.474c-0.393-0.256-0.053-0.877-0.36-1.229-0.301-0.507-0.916-0.863-0.925-1.515-0.045-0.508-0.155-1.141 0.299-1.509 0.504-0.491 1.431-0.43 1.81 0.184 0.372 0.459 0.22 1.107 0.037 1.613-0.152 0.366-0.6 0.977-0.003 1.187 0.431 0.178 1.021 0.142 1.289 0.592 0.142 0.337 0.078 0.823-0.403 0.691-0.58 0.018-1.167 0.052-1.745-0.014z"></path>
</svg>
