<?xml version="1.0" encoding="utf-8"?>
<!-- Generated by IcoMoon.io -->
<!DOCTYPE svg PUBLIC "-//W3C//DTD SVG 1.1//EN" "http://www.w3.org/Graphics/SVG/1.1/DTD/svg11.dtd">
<svg version="1.1" xmlns="http://www.w3.org/2000/svg" xmlns:xlink="http://www.w3.org/1999/xlink" width="14" height="14" viewBox="0 0 14 14">
<path fill="#fff" d="M7.761 10.075c-1.12 0.521-2.162 0.516-2.862 0.465-0.835-0.060-1.506-0.289-1.801-0.489-0.182-0.123-0.429-0.075-0.552 0.106s-0.075 0.429 0.106 0.552c0.474 0.321 1.313 0.56 2.19 0.623 0.149 0.011 0.312 0.017 0.487 0.017 0.763 0 1.731-0.073 2.767-0.555 0.199-0.093 0.285-0.329 0.193-0.528s-0.329-0.285-0.528-0.193zM12.181 9.486c0.038-3.455 0.393-9.983-6.22-9.456-6.53 0.526-4.798 7.423-4.896 9.734-0.086 1.222-0.492 2.716-1.065 4.236h1.765c0.181-0.644 0.315-1.281 0.372-1.889 0.106 0.074 0.22 0.146 0.342 0.215 0.198 0.116 0.368 0.271 0.547 0.435 0.42 0.383 0.897 0.817 1.828 0.872 0.063 0.004 0.125 0.005 0.187 0.005 0.942 0 1.586-0.412 2.104-0.744 0.248-0.159 0.462-0.296 0.664-0.362 0.573-0.179 1.074-0.469 1.448-0.837 0.058-0.058 0.113-0.117 0.164-0.177 0.208 0.764 0.494 1.624 0.811 2.481h3.769c-0.905-1.398-1.838-2.767-1.819-4.514zM1.697 7.606c0-0 0-0-0-0.001-0.065-1.127 0.475-2.076 1.205-2.118s1.375 0.837 1.44 1.965c0 0 0 0 0 0.001 0.003 0.061 0.005 0.121 0.005 0.181-0.231 0.058-0.44 0.143-0.627 0.241-0.001-0.008-0.001-0.017-0.002-0.025 0-0 0-0 0-0-0.062-0.64-0.404-1.123-0.764-1.080s-0.6 0.598-0.537 1.238c0 0 0 0 0 0 0.027 0.279 0.108 0.528 0.219 0.717-0.028 0.022-0.106 0.079-0.197 0.146-0.068 0.050-0.151 0.11-0.25 0.184-0.272-0.357-0.458-0.869-0.491-1.448zM9.095 10.393c-0.026 0.596-0.805 1.157-1.526 1.381l-0.004 0.001c-0.299 0.097-0.566 0.268-0.849 0.449-0.475 0.304-0.966 0.618-1.675 0.618-0.047 0-0.094-0.001-0.141-0.004-0.65-0.038-0.954-0.315-1.338-0.665-0.203-0.185-0.413-0.376-0.683-0.535l-0.006-0.003c-0.584-0.33-0.946-0.739-0.969-1.096-0.012-0.177 0.068-0.331 0.235-0.457 0.364-0.273 0.608-0.451 0.77-0.57 0.179-0.131 0.233-0.171 0.273-0.209 0.029-0.027 0.060-0.057 0.093-0.090 0.334-0.325 0.894-0.869 1.752-0.869 0.525 0 1.106 0.202 1.725 0.6 0.292 0.19 0.545 0.277 0.867 0.388 0.221 0.076 0.471 0.163 0.807 0.306l0.005 0.002c0.313 0.129 0.682 0.363 0.665 0.751zM8.923 8.993c-0.060-0.030-0.123-0.059-0.188-0.086-0.302-0.129-0.545-0.217-0.746-0.287 0.111-0.217 0.18-0.488 0.186-0.783 0-0 0-0 0-0 0.015-0.716-0.346-1.297-0.807-1.299s-0.847 0.579-0.862 1.295c0 0 0 0 0 0-0.001 0.023-0.001 0.047-0 0.070-0.284-0.131-0.563-0.225-0.836-0.284-0.001-0.027-0.003-0.054-0.003-0.081 0-0 0-0 0-0.001-0.026-1.304 0.774-2.384 1.788-2.412s1.857 1.008 1.884 2.312c0 0 0 0.001 0 0.001 0.012 0.59-0.146 1.133-0.415 1.554z"></path>
</svg>
