<?xml version="1.0" encoding="utf-8"?>
<!-- Generated by IcoMoon.io -->
<!DOCTYPE svg PUBLIC "-//W3C//DTD SVG 1.1//EN" "http://www.w3.org/Graphics/SVG/1.1/DTD/svg11.dtd">
<svg version="1.1" xmlns="http://www.w3.org/2000/svg" xmlns:xlink="http://www.w3.org/1999/xlink" width="14" height="14" viewBox="0 0 14 14">
<path fill="#fff" d="M4.344 14c-0.933-1.942-0.436-3.054 0.281-4.102 0.785-1.148 0.988-2.284 0.988-2.284s0.617 0.803 0.37 2.058c1.091-1.214 1.296-3.148 1.132-3.889 2.465 1.723 3.519 5.453 2.099 8.218 7.552-4.273 1.879-10.666 0.891-11.387 0.329 0.72 0.392 1.939-0.273 2.531-1.126-4.269-3.91-5.144-3.91-5.144 0.329 2.202-1.193 4.609-2.662 6.408-0.052-0.878-0.106-1.484-0.568-2.324-0.104 1.595-1.323 2.895-1.653 4.493-0.447 2.164 0.335 3.749 3.305 5.423z"></path>
</svg>
