<?xml version="1.0" encoding="utf-8"?>
<!-- Generated by IcoMoon.io -->
<!DOCTYPE svg PUBLIC "-//W3C//DTD SVG 1.1//EN" "http://www.w3.org/Graphics/SVG/1.1/DTD/svg11.dtd">
<svg version="1.1" xmlns="http://www.w3.org/2000/svg" xmlns:xlink="http://www.w3.org/1999/xlink" width="14" height="14" viewBox="0 0 14 14">
<path fill="#fff" d="M10.496 4.202v3.502h0.239l-0.359 0.62-0.359-0.62h0.239v-3.502h-0.239l0.359-0.62 0.359 0.62h-0.239zM7.926 9.566v0.239h-3.031v-0.239l-0.62 0.359 0.62 0.359v-0.239h3.038v0.239l0.62-0.359-0.62-0.359h-0.007zM12.163 11.333c-0.027 0.037-0.054 0.071-0.083 0.105-0.72 0.861-1.474 1.706-2.206 2.562h-8.241v-14h10.73c0 0.149 0 0.298 0 0.447 0 0.761 0 1.523 0 2.284 0 1.081 0 2.162 0 3.243 0 1.027 0 2.057 0 3.085 0 0.378 0 0.757 0 1.135-0 0.405 0.054 0.791-0.2 1.14zM11.196 11.208h-1.396v1.552l1.396-1.552zM11.667 0.7h-9.334v12.604h6.765v-2.448c0-0.195 0.156-0.351 0.351-0.351h2.218v-9.805zM6.477 3.263c0.015 0 0.037 0.007 0.051 0.007h3.968c0.068 0 0.12-0.051 0.12-0.12s-0.051-0.12-0.12-0.12h-3.965c-0.059 0-0.112 0.051-0.112 0.127 0 0.029 0.015 0.059 0.029 0.076l0.029 0.029zM3.744 5.6h-0.896l3.487-2.389 3.487 2.389h-0.957v3.031h1.642c0.068 0 0.12 0.051 0.12 0.12s-0.051 0.12-0.12 0.12h-1.642v1.164c0 0.068-0.051 0.12-0.12 0.12s-0.12-0.051-0.12-0.12v-1.164h-0.464v-2.33h-1.164v2.33h-3.016v1.642c0 0.068-0.051 0.12-0.12 0.12s-0.12-0.051-0.12-0.12v-4.912zM4.895 7.706h1.403v-1.166h-1.403v1.166z"></path>
</svg>
