<?xml version="1.0" encoding="utf-8"?>
<!-- Generated by IcoMoon.io -->
<!DOCTYPE svg PUBLIC "-//W3C//DTD SVG 1.1//EN" "http://www.w3.org/Graphics/SVG/1.1/DTD/svg11.dtd">
<svg version="1.1" xmlns="http://www.w3.org/2000/svg" xmlns:xlink="http://www.w3.org/1999/xlink" width="14" height="14" viewBox="0 0 14 14">
<path fill="#fff" d="M12.688 0h-11.375c-0.722 0-1.313 0.591-1.313 1.313v11.375c0 0.722 0.591 1.313 1.313 1.313h11.375c0.722 0 1.313-0.591 1.313-1.313v-11.375c0-0.722-0.591-1.313-1.313-1.313zM11.339 9.8l-1.28 0.019c0 0-0.276 0.055-0.637-0.194-0.479-0.328-0.93-1.184-1.282-1.072-0.355 0.112-0.345 0.88-0.345 0.88s0.003 0.164-0.079 0.252c-0.087 0.096-0.263 0.115-0.263 0.115h-0.571c0 0-1.263 0.077-2.376-1.083-1.214-1.263-2.286-3.771-2.286-3.771s-0.063-0.164 0.005-0.243c0.077-0.090 0.282-0.096 0.282-0.096l1.37-0.008c0 0 0.129 0.022 0.221 0.090 0.077 0.055 0.118 0.161 0.118 0.161s0.221 0.561 0.514 1.066c0.571 0.987 0.839 1.203 1.034 1.099 0.282-0.153 0.197-1.397 0.197-1.397s0.005-0.451-0.142-0.651c-0.115-0.156-0.331-0.202-0.424-0.213-0.077-0.011 0.049-0.189 0.213-0.271 0.246-0.12 0.681-0.129 1.195-0.123 0.399 0.003 0.517 0.030 0.673 0.066 0.473 0.115 0.312 0.555 0.312 1.611 0 0.339-0.060 0.815 0.183 0.971 0.104 0.068 0.361 0.011 1.004-1.080 0.304-0.517 0.533-1.124 0.533-1.124s0.049-0.109 0.126-0.156c0.079-0.046 0.186-0.033 0.186-0.033l1.441-0.008c0 0 0.432-0.052 0.503 0.145 0.074 0.205-0.161 0.684-0.749 1.468-0.965 1.288-1.075 1.168-0.271 1.911 0.766 0.711 0.924 1.058 0.952 1.102 0.312 0.525-0.355 0.566-0.355 0.566z"></path>
</svg>
